<svg xmlns="http://www.w3.org/2000/svg" viewBox="0 0 133 2" enable-background="new 0 0 133 2"><g fill="#C5C2B7"><path d="M46.4.4h3.8c.5 0 1-.1 1.9-.1.3 0 .3.6.3.9 0 .3 0 .2-.3.2-.8 0-1.4.1-1.9.2-.7 0-1.2-.1-1.9 0h-1.8c-.3 0-.6-.3-.6-.6s.2-.6.5-.6zM83.4.4c-.6 0-1.1.2-1.4.2h-1.4c-.4 0-.8-.1-1.4-.1-.2 0-.5.5-.5.8s.5.4.7.4h4c.2 0 .8 0 .8-.3s-.6-1-.8-1zM57.3.3c.7 0 1.2.1 1.7.1h1.7c.4 0 .9.1 1.7.1.3 0 .3.4.3.7s0 .4-.3.4h-1.7c-.6 0-1.1.1-1.7.1-.4 0-.9-.2-1.7-.2-.3 0-.7 0-.7-.3s.4-.9.7-.9zM95.1.2h-1.5c-.6 0-.9.3-1.5.3-.4 0-.9.1-1.5.1-.3 0-.4.4-.4.6s.5.3.8.3c.6 0 1.1.1 1.4.1.5 0 .9-.1 1.4-.1.4 0 .8.1 1.4 0 .3 0 .3-.4.3-.6s-.1-.7-.4-.7zM117.2.4c-.7 0-1.2 0-1.7-.1-.6 0-1.1.2-1.7.2-.4 0-.9-.1-1.7-.1-.3 0-.5.4-.5.7s.5.6.8.6c.7 0 1.2-.2 1.6-.2h1.6c.4 0 .9.3 1.6.3.3 0 .5-.4.5-.7s-.2-.7-.5-.7zM68.9.3c.7 0 1.1.2 1.5.2.6 0 .9 0 1.5.1h1.5c.2 0 .2.5.2.7s0 .4-.2.4c-.7 0-1.1 0-1.5-.1-.6 0-1 .2-1.5.2-.4 0-.8-.4-1.5-.4-.2 0-.8-.1-.8-.4s.6-.7.8-.7zM7.3.5C6.7.5 6.2.3 5.8.3c-.6 0-1 .1-1.5.1H2.8C2.5.4 2 .2 1.4.2c-.3 0-.4.7-.4.9s0 .5.4.6c.6 0 1.1.1 1.5.1.6 0 1-.1 1.5-.1h3c.3 0 .5-.3.5-.5-.1-.3-.3-.7-.6-.7zM40 .4h-1.4c-.5 0-.9-.2-1.4-.2-.4 0-.8.1-1.4.1-.2 0-.4.6-.4.8s.2.3.4.3c.6 0 1.1-.1 1.4-.1.5.1.9 0 1.4.1.4 0 .8.3 1.4.3.2 0 .2-.3.2-.6s0-.7-.2-.7zM128.2.2h-1.7c-.6 0-1 .3-1.7.3-.4 0-1-.2-1.7-.2-.3 0-.4.7-.4 1 0 .3.1.2.4.2.7 0 1.2-.1 1.7-.1.6 0 1 .3 1.7.3.4 0 .9-.3 1.7-.3.3 0 .8 0 .8-.3s-.5-.9-.8-.9zM14 .3h1.5c.5 0 .9.1 1.5.1.4 0 .8-.1 1.5-.1.2 0 .4.7.4.9s-.2.3-.4.3c-.6 0-1.1-.2-1.5-.1-.5.1-.9 0-1.5.1-.4 0-.8.2-1.4.2-.2 0-.6-.2-.6-.5s.3-.9.5-.9zM28.5.2c-.7 0-1.1.3-1.5.3-.6 0-1-.2-1.6-.2-.4 0-.9.2-1.5.3-.3 0-.2.5-.2.7s.3.4.5.4h3c.4 0 .8-.2 1.4-.2.3 0 .8-.2.8-.5s-.7-.8-.9-.8zM106.2.3c-.7 0-1.2.2-1.7.2-.6 0-1.1-.2-1.7-.2h-1.7c-.3 0-.3.6-.3.9s.4.5.7.5c.7 0 1.2-.1 1.6-.1.6 0 1-.1 1.6-.1.4 0 .9.2 1.6.2.3 0 .7-.2.7-.5-.2-.3-.6-.9-.8-.9z"/></g></svg>