<svg xmlns="http://www.w3.org/2000/svg" width="82" height="3" viewBox="0 0 82 3"><path fill="#C5C1B7" d="M80.704 2.395c-1.6.877-1.78.256-3.604.256-1.825 0-1.825-.462-3.65-.462-1.826 0-1.826.03-3.65.03-1.826 0-1.826.026-3.652.026-1.825 0-1.825.29-3.65.29-1.826 0-1.826.057-3.65.057s-1.826-.114-3.65-.114-1.826.113-3.65.113c-1.824 0-1.824-.21-3.647-.21-1.824 0-1.824-.166-3.65-.166-1.824 0-1.824.293-3.65.293-1.825 0-1.825.086-3.65.086-1.826 0-1.826-.007-3.65-.007-1.827 0-1.827-.364-3.653-.364-1.827 0-1.827-.02-3.653-.02-1.827 0-1.827.525-3.653.525s-1.826-.078-3.652-.078-1.826.065-3.652.065-1.826-.364-3.653-.364-1.827-.13-3.654-.13c-1.83 0-1.83.293-3.66.293s-1.944.64-3.55-.238L.42.495c1.6-.877 1.815.222 3.64.222C5.883.717 5.883.14 7.71.14c1.825 0 1.825.024 3.65.024s1.825.574 3.65.574c1.826 0 1.826-.557 3.65-.557 1.827 0 1.827.335 3.652.335 1.825 0 1.825-.336 3.65-.336s1.825.294 3.65.294c1.823 0 1.823-.224 3.646-.224h3.65c1.825 0 1.825.263 3.65.263 1.826 0 1.826-.108 3.652-.108 1.825 0 1.825.38 3.65.38 1.826 0 1.826-.427 3.652-.427 1.827 0 1.827-.132 3.653-.132 1.827 0 1.827.48 3.653.48 1.827 0 1.827-.464 3.653-.464 1.827 0 1.827-.077 3.653-.077s1.826.44 3.653.44S71.603.81 73.43.81c1.83 0 1.83-.14 3.66-.14s1.816-.437 3.56.12c1.014.328.93 1.124.054 1.605z"/></svg>