<?xml version="1.0" standalone="no"?>
<!DOCTYPE svg PUBLIC "-//W3C//DTD SVG 1.1//EN" "http://www.w3.org/Graphics/SVG/1.1/DTD/svg11.dtd" >
<svg xmlns="http://www.w3.org/2000/svg">
<metadata></metadata>
<defs>
<font id="supernett_cnregular" horiz-adv-x="927" >
<font-face units-per-em="2048" ascent="1597" descent="-451" />
<missing-glyph horiz-adv-x="430" />
<glyph unicode="fi" horiz-adv-x="919" d="M416 1470q68 -6 106.5 -20t38.5 -31q-5 -13 -5 -40t-5 -44.5t-22 -19.5q-79 4 -87 8q-48 6 -49 6q-52 0 -65 -45q-5 -17 -7 -39t-2 -37t0.5 -42t0.5 -39q110 -5 125 -5q53 0 63 -8t10 -47q0 -20 -7.5 -43.5t-16.5 -30.5q-5 -4 -26 -5t-56.5 0t-40.5 1h-56l-2 -45 q-12 -164 -12 -244q0 -40 -9 -117t-9 -114q0 -31 7 -91t7 -85q0 -54 -4 -162.5t-4 -122.5q0 -18 -64 -18q-47 0 -71 18q-15 9 -15 25q0 5 2.5 16t2.5 17q0 147 8 219q0 35 -6.5 104.5t-6.5 104.5q0 44 9.5 132t9.5 132q0 56 4 166q0 9 4 27.5t4 27.5v23q-70 8 -76 8 q-74 0 -74 39q0 30 8.5 58t18.5 36q5 4 17 5t33 0t26 -1l49 -5v15q0 9 -1 30.5t-1 35.5t3 35t9 40q26 76 60 117q40 55 174 55zM667 1268q-17 17 -17 53l-2 51q0 32 13 49q19 25 57 25q56 0 74 -23t18 -55q0 -95 -18 -106q-27 -17 -70 -17q-32 0 -55 23zM809 987 q0 -82 -8 -184q-10 -85 -10 -139q0 -34 7 -105t7 -110q0 -96 -10 -209q-4 -68 -4 -209q0 -21 -1 -29t-7.5 -14t-20.5 -6q-80 0 -92 8l-4 3l-6 6t-6 7.5t-5 9.5t-2 11q0 83 4 227q1 24 5 98t4 117q0 24 -5.5 74t-5.5 78q0 46 6 130.5t7 137.5q0 41 -4.5 96t-4.5 76v10v8.5 t0.5 6t2.5 6t5.5 4t9 3t13 1t17.5 0.5q32 0 49 -3t22 -5.5t17 -12.5q20 -16 20 -92z" />
<glyph unicode="fl" horiz-adv-x="933" d="M455 1434q23 -8 49 -34.5t26 -37.5q0 -22 -16 -33q-1 -1 -15 -12t-30 -20t-29 -9q-14 0 -49 25q-27 18 -55 18q-7 0 -16 -10t-11 -16q-28 -50 -28 -84t5 -101h7q24 2 75 9.5t66 7.5q66 0 66 -23q0 -9 4 -39t4 -39q0 -32 -49 -35q-21 -1 -73.5 -8t-76.5 -8l-11 -1 q3 -37 3 -56q0 -13 4 -137.5t4 -184.5q0 -39 -6 -191t-6 -300q0 -19 8 -57t8 -48q0 -22 -20 -22q-94 0 -105 8q-6 5 -17 43.5t-11 60.5q0 25 -1 80.5t-1 83.5q0 17 3.5 102t5 156t-0.5 152q-8 168 -10 250l-3 61h-10q-13 0 -44 -3t-44 -3q-8 0 -17 27t-11 47q0 7 -3.5 22.5 t-3.5 22.5q0 8 44 16t77 8h4q-4 74 -4 111q0 12 8 45.5t15 50.5q65 135 139 135q47 0 75 -5t77 -25zM815 952q0 -13 -10 -109t-10 -143q0 -15 3 -50t3 -58q0 -48 -8.5 -174.5t-8.5 -157.5q0 -26 -1 -78.5t-1 -64.5q0 -97 -4 -105t-38.5 -15t-63.5 -7q-23 0 -30 9t-7 34v213 q0 44 10 166t10 188l-2 100q0 22 8.5 118t8.5 134q0 29 -7.5 108.5t-9.5 110.5q-2 41 -2 125q0 125 19 144q14 14 69 14q17 0 24.5 -1t17 -5t13 -14t3.5 -27q0 -21 -2 -63t-2 -62q0 -42 9 -156.5t9 -173.5z" />
<glyph unicode="TW" horiz-adv-x="1982" d="M236 1468q4 0 93 -3t160 -3q33 0 65.5 -2.5t73.5 -7t64 -6.5q18 -2 26.5 -5t15.5 -10.5t7 -21.5q0 -18 -6 -50t-12 -42q-2 -4 -8 -6t-15.5 -2.5t-18.5 -0.5t-22 0.5t-20 0.5q-27 0 -69 5t-50 5q-19 0 -42.5 -4t-24.5 -8q-2 -6 -7.5 -53t-5.5 -72q0 -39 11.5 -125.5 t15.5 -136.5q1 -26 0 -86.5t0 -85.5l4 -146q1 -72 17.5 -210t17.5 -206q0 -21 1 -69.5t1 -77.5q0 -12 -4.5 -26t-9.5 -17q-9 -6 -52 -6q-24 1 -48.5 13.5t-26.5 19.5q-5 20 -5 167q0 60 -16 203.5t-16 192.5q0 106 -2 159q-1 15 -1.5 72.5t-2.5 83.5q0 57 -13.5 145.5 t-13.5 137.5q0 38 5.5 72.5t9.5 50t3 16.5q-6 6 -73 6q-8 0 -91.5 -12t-125.5 -12q-10 0 -17.5 29t-7.5 42t9 37.5t28 30.5q6 3 91.5 13.5t107.5 10.5zM930 1456q29 0 43.5 -4t17.5 -20q21 -129 21 -189q0 -8 -6.5 -103t-13 -207.5t-5.5 -166.5q1 -48 25.5 -175.5 t29.5 -180.5q11 -102 25 -156q5 -14 12 -14q5 0 18.5 101.5t31 237.5t28.5 191q5 30 11 66.5t9 57t7 32.5q1 4 7.5 27t13 44.5t14 46t14 41t10.5 19.5q16 14 98 14q22 0 54.5 -6.5t36.5 -13.5q18 -46 31.5 -90t26 -94t15.5 -60q7 -26 21.5 -141t27.5 -170q1 -6 7 -37.5 t13 -67t14.5 -72t13.5 -60t8 -23.5q6 0 57 280q45 229 45 359q0 72 25.5 206t29.5 187q2 28 10.5 74.5t14.5 50.5q16 12 41 12q88 0 88 -20q0 -17 -3 -51.5t-6.5 -70.5t-4.5 -42q-6 -44 -26.5 -167t-25.5 -188q-20 -291 -59 -436q-13 -53 -47.5 -182.5t-52.5 -202.5 q-20 -84 -43 -84q-138 0 -142 41q-18 160 -55 308t-41 178q-3 18 -10 116.5t-14 122.5q-3 11 -16 61t-22 82.5t-12 32.5q-5 0 -19.5 -40t-18.5 -66q-24 -137 -37 -244l-29 -260q-4 -34 -12.5 -70t-21.5 -80t-19 -67q-12 -51 -39 -103q-7 -6 -32 -11t-38 -5q-26 0 -40 1 t-30 7t-22 19q-11 26 -37 141q-28 118 -39 201q-4 27 -32.5 169.5t-28.5 219.5q0 89 11 283t11 198q0 27 -8 82t-8 90q0 15 4 23q3 6 24.5 12t49.5 6z" />
<glyph unicode="rf" horiz-adv-x="1181" d="M1016 1470q68 -6 106.5 -20t38.5 -31q-5 -13 -5 -40t-5 -44.5t-22 -19.5q-78 4 -86 8q-48 6 -50 6q-52 0 -65 -45q-5 -17 -7 -39t-2 -37t0.5 -42t0.5 -39q110 -5 125 -5q53 0 63 -8t10 -47q0 -20 -7.5 -43.5t-16.5 -30.5q-5 -4 -26 -5t-56.5 0t-40.5 1h-56l-1 -45 q-13 -178 -13 -244q0 -40 -9 -117t-9 -114q0 -31 7 -91t7 -85q0 -54 -4 -162.5t-4 -122.5q0 -18 -64 -18q-47 0 -71 18q-15 9 -15 25q0 5 2.5 16t2.5 17q0 147 8 219q0 35 -6.5 104.5t-6.5 104.5q0 44 9.5 132t9.5 132q0 56 4 166q0 9 4 27.5t4 27.5v23q-70 8 -76 8 q-73 0 -73 39q0 31 8 58.5t18 35.5q5 4 17 5t33 0t26 -1l49 -5v15q0 9 -1 30.5t-1 35.5t3 35t9 40q26 76 60 117q40 55 174 55zM451 1114q19 0 55.5 -39t36.5 -47q0 -12 -23.5 -27t-46.5 -22q-10 -4 -39 -12.5t-52.5 -17t-37.5 -17.5q-46 -29 -55 -53q-3 -7 -8 -39t-10 -67 t-5 -36q-6 -19 -1 -109.5t5 -115.5q0 -39 -12 -113q-2 -12 -9 -46.5t-7 -43.5q0 -38 4 -111t4 -83q0 -25 0.5 -46t1.5 -31v-11q0 -17 -8 -33q-3 -6 -24 -10t-40 -4q-26 0 -49.5 9t-23.5 21q0 1 0.5 19.5t0.5 37t-1 29.5q-9 102 -9 199q0 15 13.5 86.5t13.5 95.5q0 37 -4 96 t-4 101q0 17 8 89.5t8 108.5q0 55 -6 111t-6 68q0 23 14 57.5t27 38.5q24 8 61 8q35 0 43 -10q3 -3 0.5 -27.5t-5 -43.5t0.5 -23q1 0 36 15.5t80.5 31.5t72.5 16z" />
<glyph unicode=" "  horiz-adv-x="430" />
<glyph unicode="&#x09;" horiz-adv-x="430" />
<glyph unicode="&#xa0;" horiz-adv-x="430" />
<glyph unicode="!" horiz-adv-x="430" d="M215 1470q51 0 57 -12q4 -8 12.5 -65t17.5 -164.5t9 -212.5q0 -122 -12 -240q-8 -80 -8 -123q0 -12 2 -50t2 -60t-4 -58.5t-4 -48.5q0 -4 -1.5 -34.5t-3.5 -50t-6 -23.5q-12 -12 -24 -15.5t-47 -3.5q-16 0 -38.5 8t-25.5 17q-4 12 -4 51q0 27 7.5 81t7.5 81q0 9 -4.5 54 t-4.5 54t3 32t6.5 53t5.5 46q10 112 10 228q0 9 -1 48.5t-1 70.5q0 29 -10.5 88t-10.5 88q0 21 -6 61t-6 51q0 12 26.5 30.5t55.5 18.5zM229 188q15 0 27.5 -8t15.5 -12t11 -16q18 -35 18 -76q0 -33 -10 -53q-12 -26 -37 -33.5t-64 -7.5q-71 0 -71 90q0 36 10 65t33 41 q20 10 67 10z" />
<glyph unicode="&#x22;" horiz-adv-x="630" d="M487 1505q29 0 29 -100q0 -23 -3 -68t-3 -67q0 -55 9 -110t9 -97q0 -22 -4 -68.5t-4 -58.5q0 -55 -4 -64q-13 -32 -72 -32q-69 0 -69 24q0 27 8 77t8 75q0 64 -10 142.5t-10 123.5q0 69 1.5 111t3 56.5t1.5 16.5q0 9 31 27q21 12 79 12zM195 1501q40 0 45 -10 q3 -7 8.5 -33.5t5.5 -42.5q0 -43 -6 -125.5t-6 -105.5q0 -10 4 -95.5t4 -111.5q0 -37 -13 -75t-26 -38q-23 0 -53 6q-21 4 -38.5 16t-17.5 21q0 17 7.5 61t7.5 62q0 15 -6.5 66t-6.5 80q0 28 5.5 94t5.5 98q0 84 2 100q1 12 25.5 21.5t52.5 11.5z" />
<glyph unicode="#" horiz-adv-x="1103" d="M977 551q14 0 29 -25t15 -59q0 -22 -6 -33t-13 -12.5t-21 -1.5q-10 0 -40.5 3t-41.5 3q-16 0 -32.5 -4t-25.5 -4l-40 1q0 -24 -1 -74.5t-1 -63.5q0 -14 2 -53t2 -62t-5.5 -78.5t-8.5 -64.5q-9 -27 -89 -27q-39 0 -49 16q-4 6 -4 37q0 16 4 52.5t4 60.5q0 14 -1 72t-1 106 q2 30 2 90q-40 2 -60 2q-47 0 -163 -8l-53 -4q-4 -45 -4 -101q0 -6 3 -34.5t3 -42.5q0 -38 -2 -108.5t-2 -88.5q0 -20 -4.5 -31t-20.5 -18q-21 -8 -47 -8q-67 0 -69 18q-5 40 -5 72q0 46 3.5 98.5t3.5 63.5q0 20 -2 57t-2 43q2 55 4 82q-70 8 -106 8q-32 0 -41 5t-9 30 q0 28 16.5 60t35.5 32q56 0 76 -2l42 -4q20 158 20 231l-1 105q-25 1 -74 6t-74 6q-41 6 -41 88q0 25 11 40t22 15q69 0 153 -6q-4 148 -4 219q0 21 3 77t3 77q0 3 -1 13t-1 20q0 13 23 19.5t53 6.5q20 0 38.5 -8.5t20.5 -15.5q4 -15 5 -46t-0.5 -72t-1.5 -46q0 -107 5 -250 l128 -2q24 0 84 -4q0 9 4 75t4 101q0 38 12 123t23 102q4 7 36.5 12t55.5 5q35 0 35 -29q0 -10 -12.5 -95.5t-12.5 -127.5l-2 -172q23 1 87.5 4.5t82.5 3.5q12 0 18.5 -39t6.5 -65q0 -24 -20 -35q-18 -10 -172 -12q2 -42 17 -232l9 -96q36 -2 57 -2q10 0 20.5 4.5t26.5 5.5 q9 0 43 -2t35 -2zM392 548q45 2 116.5 8.5t86.5 6.5q17 0 53 -2q-13 118 -15 164l-7 158q-80 6 -92 6l-119 -1q1 -35 1 -108q0 -43 -3.5 -78t-10.5 -80t-10 -74z" />
<glyph unicode="$" horiz-adv-x="811" d="M653 684q21 -32 43.5 -107t22.5 -124q0 -127 -29 -230q-40 -143 -104 -194q-39 -30 -102 -47q8 -29 8 -82q0 -17 -7.5 -75.5t-7.5 -97.5q0 -26 -12.5 -33.5t-42.5 -7.5q-88 0 -88 37t7 107t7 79q0 11 -5 59q-64 2 -91 16q-86 45 -133 111t-47 147q0 21 1 55t1 39 q0 31 47 47q25 8 57 8q17 0 28 -13.5t11 -33.5q0 -11 -2.5 -51t0.5 -47q7 -43 20 -67t56 -58q5 -4 11.5 -6.5t15.5 -3t15.5 -1t17.5 0t16 0.5q103 0 149 49q9 12 16 27.5t9.5 23t8.5 31.5t7 26q18 64 18 183q0 32 -15.5 80t-33.5 83q-26 50 -186 134q-6 4 -40 24.5t-48.5 30 t-35.5 25.5t-32 28q-40 44 -65 113t-25 123q0 56 27 170q22 100 45 129q29 33 84 60t111 35q-2 22 -10.5 97.5t-8.5 109.5q0 30 70 34q28 2 50.5 -8t22.5 -23q0 -32 10 -104t11 -113q85 -18 149 -80q19 -15 28.5 -24t19.5 -27t12 -39q0 -9 -10 -39q-6 -19 -22 -39.5 t-34 -20.5q-6 0 -23.5 15.5t-23.5 25.5q-26 37 -59 60q-51 35 -125 35q-28 0 -69.5 -12t-61.5 -27q-14 -12 -25 -82q-2 -8 -8.5 -38.5t-11 -54t-4.5 -34.5q0 -56 9 -85t44 -63q24 -23 47.5 -40t36 -23.5t51.5 -26.5q50 -26 129.5 -87t97.5 -89z" />
<glyph unicode="%" horiz-adv-x="1572" d="M1087 1505q4 0 8.5 -4t10.5 -11t10 -11q10 -8 23.5 -24.5t13.5 -22.5q0 -21 -14 -46q-7 -12 -22 -37t-25.5 -44.5t-18.5 -38.5q-2 -5 -43 -119q-11 -33 -39 -95.5t-39 -95.5q-54 -131 -104 -288q-8 -28 -30 -81.5t-27 -72.5q-3 -12 -15.5 -74t-21.5 -92l-21 -82 q-29 -143 -49 -200q-24 -65 -33 -74q-23 -23 -35 -23q-38 0 -65 11q-2 1 -12 3.5t-15.5 6t-5.5 8.5q0 11 43 162q3 7 17 65.5t16 69.5q18 60 68 293q4 21 26.5 71.5t28.5 69.5q11 32 29.5 87.5t35 101.5t33.5 86q6 14 23.5 53t25.5 61l39 90q3 9 15 47t20 58q27 74 80 145 q14 21 33 34t36 13zM375 1475q13 0 44 -8.5t46 -14.5q108 -47 137 -129q32 -91 43 -246q6 -61 6 -200q0 -121 -73 -228q-33 -48 -81.5 -76t-103.5 -28q-115 0 -180 71q-34 37 -49 80q-11 30 -17.5 65.5t-12 81t-9.5 66.5q-12 98 -12 150q0 115 10 188q5 37 45 109 q46 74 119 100q43 19 88 19zM369 1348q-62 0 -95 -68q-18 -37 -20 -51q-5 -37 -8 -123t0 -123q10 -91 22 -174q5 -52 45 -104q23 -31 84 -31q25 0 49.5 18.5t34.5 40.5q1 2 14 30.5t19 47t6 33.5q0 120 -4 186q-2 34 -13 125t-18 109q-8 22 -47.5 53t-68.5 31zM1186 852 q34 0 57.5 -5t61.5 -24q45 -22 83 -81t44 -128l4 -51l12 -59q12 -89 12 -176q0 -144 -39 -222q-27 -52 -49 -73t-55 -35q-53 -23 -113 -23q-81 0 -139 37q-90 53 -109 176q-28 180 -28 279q0 39 8 113q11 92 41 143q28 64 84 88q7 3 24 11t26 11.5t23.5 9t27 7.5t24.5 2z M1212 723q-81 0 -112 -45q-17 -23 -28 -69.5t-11 -80.5q0 -6 -1.5 -70t1.5 -65q3 -64 16 -139t25 -98q11 -22 34 -36t40 -14q49 0 76.5 11.5t52.5 46.5q28 66 28 190q0 27 -7 84.5t-13 71.5q-4 9 -8 27.5t-7.5 36.5t-3.5 20q-6 51 -25.5 90t-56.5 39z" />
<glyph unicode="&#x26;" horiz-adv-x="1048" d="M958 145q12 0 20.5 -36t8.5 -60q0 -14 -5.5 -24.5t-7.5 -11.5t-14 -9q-52 -29 -73 -29q-72 0 -103 23q-49 36 -73 96l-2 5q-32 -35 -62 -58q-97 -72 -192 -72q-141 0 -224 54q-59 37 -104 106t-45 125q0 105 8 158t42.5 140t72.5 148q39 63 117 149q-61 77 -84 134 q-4 11 -13.5 33t-13.5 31.5t-10.5 27.5t-9 30t-5 28.5t-2.5 33.5q0 62 15.5 110t30 68t44.5 52q86 96 234 96q56 0 127 -33q60 -30 96.5 -89t36.5 -118q0 -84 -10 -129q-17 -82 -56 -129q-28 -36 -185 -156q18 -26 34.5 -54.5t37.5 -67.5t34 -62q8 -13 26 -44.5t25 -43.5 t20.5 -37.5t21.5 -43t18.5 -43.5t19.5 -53q61 79 75 114q8 21 35 41t41 20t49 -35q29 -26 29 -59q0 -4 -14.5 -19t-31 -36.5t-20.5 -38.5q-1 -6 -5.5 -13.5t-11.5 -18t-13.5 -19.5t-18 -22.5t-19 -22.5t-20.5 -24.5t-19 -23.5q8 -36 15 -58t21.5 -41t34.5 -19q12 0 39.5 15 t37.5 15zM367 1278q-41 -55 -41 -98q0 -21 4.5 -39t14 -43t13.5 -39q11 -39 68 -108q22 18 48 38t46.5 35t24.5 18q57 45 71 129q9 41 9 66q0 46 -29 78q-39 39 -102 39q-40 0 -69 -19t-58 -57zM586 170q20 20 68 88l-1 2q-12 41 -28.5 78t-46 94t-37.5 74q-59 127 -135 236 q-49 -58 -87 -126q-47 -79 -75 -176q-21 -74 -21 -180q0 -29 31.5 -71t75.5 -62q38 -16 133 -16q28 0 64 18t59 41z" />
<glyph unicode="'" horiz-adv-x="362" d="M186 1503q70 0 70 -24q0 -27 -8 -77t-8 -75q0 -64 10 -142.5t10 -123.5q0 -69 -1.5 -111t-3 -56.5t-1.5 -16.5q0 -9 -31 -27q-21 -12 -80 -12q-28 0 -28 100q0 22 3 67t3 68q0 55 -9.5 110t-9.5 97q0 22 4.5 68.5t4.5 58.5q0 54 4 63q14 33 71 33z" />
<glyph unicode="(" horiz-adv-x="548" d="M436 1606q19 0 50.5 -24.5t31.5 -41.5q0 -20 -22 -51q-28 -40 -65 -111.5t-48 -103.5q-45 -126 -72 -275q-24 -172 -24 -421q0 -24 5 -53t15 -69.5t12 -49.5q11 -48 24 -155.5t32 -168.5q20 -64 52.5 -148.5t53.5 -137.5t21 -62q0 -32 -40.5 -52t-62.5 -20q-19 0 -75 136 t-82 231q-15 58 -30.5 157.5t-25.5 143.5q-4 18 -13 60t-14.5 68t-10.5 61.5t-5 62.5q0 253 29 450q17 107 76 281q19 55 69 151t76 121q21 21 43 21z" />
<glyph unicode=")" horiz-adv-x="559" d="M106 1616q16 0 73.5 -90t72.5 -123q41 -89 65 -189q17 -67 62 -274q37 -180 37 -258q0 -108 -8 -199q-9 -185 -48 -331q-6 -26 -19 -58.5t-26.5 -62.5t-17.5 -41q-4 -13 -11.5 -37t-13.5 -42.5t-10 -27.5q-78 -150 -96 -168q-14 -14 -34.5 -28.5t-31.5 -14.5 q-17 0 -38 34t-21 54q0 21 22 52q11 16 23.5 38.5t24.5 46.5t16 31q8 14 15 47t10 43q9 22 26 59.5t29.5 68.5t19.5 59q34 129 43 303q2 59 2 178q0 56 -26 178q-13 56 -30.5 147.5t-31.5 149.5q-6 28 -15.5 57.5t-23.5 67.5t-20 55q-4 11 -49 85t-45 83q0 33 30 70t45 37z " />
<glyph unicode="*" horiz-adv-x="645" d="M283 1579q74 0 90 -8q5 -3 8.5 -55t3.5 -86q0 -46 4 -48q2 -2 37 25q8 6 30 15t29 14q9 7 25 12.5t22 5.5q13 0 29 -20q9 -13 16 -41.5t7 -46.5q0 -5 -13 -12t-33.5 -16t-29.5 -15q-16 -11 -39 -22.5l-37 -18.5t-14 -9q0 -4 5.5 -11t15 -17t12.5 -13q6 -7 15 -22t13 -21 q13 -18 36.5 -67.5t23.5 -59.5q0 -15 -14.5 -28t-28.5 -13q-5 0 -25 -3t-31 -3q-17 0 -20 6q-2 6 -23 42t-22 38q-32 74 -41 74q-5 0 -21 -36t-22 -56l-19 -51q-14 -25 -30 -25q-26 0 -62 19q-35 22 -35 41q0 7 7 24t18 39.5t14 28.5l27 65q16 40 16 41q0 5 -30 17 q-11 4 -48 22t-51 27q-47 29 -47 45q0 37 29 63q25 21 39 21q6 0 57 -29q6 -3 22.5 -8t22.5 -8q5 -2 13.5 -6t14.5 -7t9 -2t3.5 5t-0.5 11t-1 9q0 13 -2 39t-2 39q0 31 6 63.5t21 32.5z" />
<glyph unicode="+" horiz-adv-x="831" d="M750 786q9 0 14.5 -39.5t5.5 -64.5q0 -24 -16 -35q-18 -12 -160 -12q-20 0 -83 7q2 -81 1 -104q0 -2 -2 -58t-6 -99t-10 -43q-36 0 -62 9q-2 1 -21 8t-29 15t-13 20q-2 18 -1.5 34t2 60.5t1.5 76.5q0 20 -4 88l-152 -2q-21 1 -61 6t-60 6q-33 6 -33 88q0 25 9 40.5 t18 15.5q52 0 117.5 -6.5t68.5 -6.5h78q-4 32 -4 43q0 24 6 126.5t6 119.5q0 10 11 17.5t24 7.5q24 0 64.5 -16t40.5 -34q0 -16 -2 -105t-2 -116q0 -25 4 -49q60 -6 92 -6q22 0 83 4t75 4z" />
<glyph unicode="," horiz-adv-x="301" d="M133 158q43 0 55 -15q31 -37 31 -139q0 -26 -7.5 -83t-16.5 -93q-24 -80 -33 -96q-31 -54 -45 -54q-12 0 -32.5 6.5t-31.5 14.5q-12 9 -22.5 24t-10.5 21q0 18 31 74q14 25 27 114q4 32 4 60q0 16 -9.5 68t-9.5 63q0 8 25 21.5t45 13.5z" />
<glyph unicode="-" horiz-adv-x="788" d="M565 731q4 0 36.5 -1t58.5 -1t33.5 -8t7.5 -39q0 -14 -4 -41t-9 -35q-8 -8 -35 -8q-18 0 -47 3t-30 3q-14 0 -67.5 -6t-68.5 -6l-134 2q-26 0 -92 -7t-68 -7q-35 0 -41 6q-5 5 -11 25t-6 36q0 18 1 28t9.5 21t24.5 11q9 0 77 8q85 10 95 10l129 -2q13 0 74 4t67 4z" />
<glyph unicode="." horiz-adv-x="335" d="M145 156q75 0 88 -19q21 -32 21 -67q0 -28 -15.5 -53t-39.5 -25q-3 0 -16 -1t-19 -1q-36 0 -58 14q-24 17 -24 76q0 34 16 55t47 21z" />
<glyph unicode="/" horiz-adv-x="643" d="M520 1620q72 0 72 -16q0 -14 -6.5 -51.5t-14.5 -49.5q-3 -4 -7.5 -24t-9 -45.5t-5.5 -30.5q-4 -17 -15.5 -53t-15.5 -54q-6 -26 -25 -97t-26 -112q-1 -6 -15 -125t-30 -194q-11 -51 -43 -162.5t-37 -136.5q-69 -389 -76 -412q-57 -205 -67 -282q-4 -35 -4 -70 q0 -27 -74 -27q-20 0 -45 5t-25 14q0 61 6 108q6 42 38.5 167.5t35.5 144.5q44 251 76 403q5 23 38 136.5t38 136.5q6 29 39 297q4 32 12 68.5t22.5 94.5t22.5 93q2 9 8.5 48t14 72.5t16.5 44.5q8 10 18.5 51.5t12.5 43.5q14 14 71 14z" />
<glyph unicode="0" horiz-adv-x="940" d="M475 1470q40 0 88 -10q61 -9 101.5 -40.5t74.5 -90.5q15 -26 28 -63.5t17 -55t15 -67.5q49 -192 49 -320q0 -179 -17 -301q-7 -81 -11 -113t-16 -103t-33 -120t-52 -88q-58 -68 -152 -104q-68 -23 -145 -23q-58 0 -143 56q-86 59 -111 112q-21 29 -41.5 108t-20.5 130 q0 53 -1 119.5t-1 81.5q0 22 -6 123t-6 124q0 38 14 181q17 174 56 270q78 194 313 194zM485 1329q-45 0 -86 -16q-79 -31 -104 -86q-9 -21 -16.5 -49t-10 -47.5t-6.5 -52.5t-6 -44q-23 -166 -23 -207q0 -40 7.5 -124.5t7.5 -124.5v-175q0 -48 21 -115t55 -116 q39 -55 129 -55q59 0 100 22t55 45q52 80 82 361q15 117 15 282q0 64 -33 220q-5 29 -20 79t-17 60q-20 75 -47 104q-36 39 -103 39z" />
<glyph unicode="1" horiz-adv-x="702" d="M496 1462q31 0 49 -18q14 -14 8 -107l-6 -86q-10 -153 -10 -186q0 -31 -11.5 -120.5t-21.5 -141.5q-17 -84 -33 -236q-13 -78 -20 -178q-5 -102 -5 -186q0 -69 5 -74q3 -4 26 -4q16 0 43 -3.5t31 -6.5q5 -3 11.5 -17.5t6.5 -21.5q0 -20 -9 -55t-17 -35h-172q-13 0 -38 -1 t-38 -1q-9 0 -27 2t-26 2q-6 1 -24 5.5t-28 4.5q-12 0 -18 29t-6 59q0 43 31 43q100 0 106 4q3 2 3.5 45t0.5 108t2 99q4 113 15 176q3 19 11 106.5t21 137.5q39 142 39 262q0 47 2.5 97t4.5 74.5t1 25.5q-5 8 -49 -19q-12 -7 -28.5 -27t-20.5 -24q-13 -13 -59 -48t-49 -38 q-14 -14 -50 -14q-12 0 -36 18q-13 9 -26 31t-13 35q0 5 10.5 17t27.5 26.5t32.5 27.5t30.5 25t17 14q3 3 39 38.5t45 41.5q46 31 86.5 48.5t47.5 21.5q35 20 61 23q12 1 27 1z" />
<glyph unicode="2" horiz-adv-x="813" d="M426 1466q56 0 127.5 -24.5t108.5 -63.5q79 -82 79 -239q0 -137 -67 -271q-4 -9 -14 -38t-27 -66t-43 -78t-70.5 -93.5t-91.5 -104t-61 -68.5q-28 -35 -63.5 -106t-49.5 -128q-2 -4 -4 -17.5t0 -16.5q10 -5 67 -5q70 0 119 -10l62 -10q89 -14 170 -14q15 0 26 -30t11 -50 q0 -7 -11 -26.5t-16 -24.5t-41 -5q-16 0 -46 1.5t-36 1.5q-9 0 -114.5 13t-149.5 13q-26 0 -75.5 -5t-78.5 -5q-65 0 -65 16q0 26 1.5 47t5 39t5.5 27t8 28.5t8 26.5q29 103 43 135q1 2 15 34t27 56t28 44q4 5 96.5 117t143.5 186q28 40 46.5 77t31 69.5t18.5 43.5 q22 44 32.5 94t10.5 142q0 50 -27 94q-37 55 -145 55q-57 0 -90 -29q-22 -21 -38.5 -49.5t-21.5 -50.5q-4 -16 -4 -39.5t-3.5 -39.5t-16.5 -29q-9 -9 -58 -9q-24 0 -48.5 15t-24.5 26q0 51 6 88q7 43 42.5 113t86.5 98q54 30 88.5 37.5t87.5 7.5z" />
<glyph unicode="3" horiz-adv-x="847" d="M375 1477q118 0 211 -93q33 -32 72.5 -133t39.5 -153q0 -26 -2.5 -47.5t-7 -37.5t-7.5 -25t-9 -20t-6 -12q-15 -33 -37 -63.5t-35.5 -45.5t-13.5 -18q0 -2 4.5 -4.5t14 -8t17.5 -13.5q18 -16 27.5 -28.5t26.5 -49t45 -111.5q30 -83 30 -211q0 -131 -43 -219 q-14 -26 -59 -67t-47 -43q-18 -24 -66 -47q-71 -38 -149 -41q-24 0 -74 4q-100 12 -166.5 96t-68.5 188q0 21 11.5 48.5t18.5 31.5q12 6 66 6q19 0 39 -8.5t20 -21.5l-5 -34q-5 -33 -5 -44q0 -78 68 -113q20 -10 61 -10q64 0 95.5 8t60.5 37q6 6 23 19t30 25.5t18 27.5 q31 77 31 141q0 98 -14 143q-8 25 -18.5 61.5t-14 46t-12 27.5t-17.5 27t-26 23q-25 18 -41 18q-21 0 -76 -35q-20 -12 -29 -12q-16 0 -30 8q-68 44 -68 62q0 14 14 29.5t34.5 30.5t23.5 18q17 15 63 38q9 6 25 15.5t29 18t24 18.5q38 38 55 82q23 56 23 90q0 8 -0.5 14 t-3.5 17.5t-6 20t-10.5 33t-14.5 46.5q-34 106 -154 106q-58 0 -88 -22q-11 -8 -26.5 -36t-24.5 -56q-4 -15 -6.5 -33t-3.5 -28.5t-4 -12.5q-16 -12 -49 -12q-56 0 -64 8q-14 22 -14 53q0 43 35.5 121.5t72.5 103.5q77 58 187 58z" />
<glyph unicode="4" horiz-adv-x="858" d="M485 1430q13 0 46.5 -23t33.5 -39q1 -15 -15.5 -50t-29.5 -56q-5 -7 -12 -31.5t-16 -44.5q-6 -13 -31 -55.5t-55.5 -102t-59.5 -129.5q-9 -20 -28.5 -78.5t-28.5 -79.5q-6 -13 -33 -86q-20 -55 -16 -57q5 -4 23.5 -4.5t34.5 0.5t26 0l100 -2q15 0 47 3.5t35 6.5 q2 5 1.5 13.5t-1.5 24.5t0 24q2 21 14 111.5t12 113.5q0 22 107 22q7 0 14 -2.5t14 -13.5t7 -29q0 -5 -5 -37.5t-10.5 -72t-7.5 -54.5q-2 -17 0.5 -38t5.5 -34t5 -16q2 -4 20 0q57 13 111 13q6 0 15 -7.5t9 -15.5q0 -9 -3 -49.5t-3 -44.5q0 -24 -55 -31q-85 -11 -90 -16 q-3 -3 -6 -45.5t-3 -59.5q0 -39 4.5 -120t4.5 -107q0 -21 -2 -39.5t-5.5 -35t-3.5 -17.5q-2 -14 -13.5 -39t-20.5 -25t-46 4t-45 7q-9 3 -12.5 4.5t-7.5 8.5t-4 19q0 1 8 46.5t8 62.5q0 35 -4 112t-4 113q0 18 3 53t3 39t-0.5 7t-1 5t-3.5 2.5t-3.5 0.5h-5h-6.5 q-75 -6 -78 -6h-109q-133 0 -149 2q-23 3 -63 30.5t-40 38.5q0 12 10 44t19 53q52 129 82 210q8 19 25.5 72t25.5 72l49 102q17 36 52.5 96t44.5 80q14 30 22 59t17 44q5 9 11 20.5t9.5 18t7 12.5t6.5 8q20 15 43 15z" />
<glyph unicode="5" horiz-adv-x="841" d="M348 1458q45 0 157 -13t157 -13q61 0 61 -37q0 -27 -4.5 -56.5t-9.5 -35.5q-10 -13 -76 -13q-10 0 -117.5 16.5t-126.5 16.5q-74 0 -82 -8q-1 -1 -5.5 -11t-8.5 -25t-4 -26q0 -16 -4 -51.5t-4 -44.5q0 -6 3 -80t3 -102q0 -6 -2.5 -27t-3.5 -33.5t2 -17.5q2 -1 23.5 2 t52 6.5t49.5 3.5q98 0 172 -45q103 -62 139 -254q10 -62 10 -112q0 -61 -16 -179q-11 -98 -90 -208q-39 -52 -77.5 -85t-86.5 -40q-6 -1 -19 -4.5t-28 -5t-41 -1.5q-37 0 -109 25q-53 21 -104 106q-27 52 -34 97t-7 119q0 14 7.5 22.5t26 10.5t27.5 2t33 -1q34 -3 39 -18 q8 -13 18 -82q8 -55 31 -96q24 -43 74 -43q26 0 76 12q5 1 10 3.5t10 7.5t8 9t8 12t7.5 11.5t8 13.5t7.5 13q45 75 61 159q17 97 17 152q0 66 -21.5 131.5t-68.5 101.5q-30 27 -88 27q-35 0 -84.5 -8t-61.5 -23q-7 -8 -15.5 -26t-16 -28.5t-15.5 -10.5q-13 0 -41 12t-39 21 q-9 8 -15.5 23.5t-6.5 23.5q0 3 2 10.5t6.5 20.5t7.5 26q12 47 12 160q0 18 -3 90.5t-3 79.5q0 9 4 64t4 83q0 18 15 101q7 34 26 59q7 10 164 10z" />
<glyph unicode="6" horiz-adv-x="935" d="M510 1473q44 0 91 -9t97.5 -37t73.5 -71q13 -21 21 -60t8 -55q0 -35 -58 -47q-32 -8 -43 -8q-24 0 -28 22q0 2 -25 76q-4 13 -47.5 29t-71.5 16q-44 0 -79 -6q-30 -6 -55 -27.5t-40 -50.5q-34 -61 -49 -131q-28 -138 -29 -143q-6 -32 -9.5 -77t-0.5 -48q5 -5 64 24 q110 50 223 50q13 0 53 -17q115 -51 164 -121q24 -35 44 -117.5t20 -187.5q0 -170 -19 -231q-2 -5 -9 -26t-9 -27.5t-9 -25t-11 -26.5t-11 -23.5t-13.5 -24.5t-15 -21.5t-18.5 -22t-21 -18.5q-80 -64 -204 -64q-72 0 -116 10t-79 35q-25 21 -46 49t-33 50t-25 61.5t-18 57.5 t-17 65q-23 89 -39 223q-8 66 -8 203q0 118 14 219q13 113 39 203q2 7 8 30t9.5 34.5t9.5 30.5t13 35t15 32q47 75 84 108q74 60 205 60zM520 778q-61 0 -147.5 -45.5t-102.5 -73.5q-10 -15 -10 -67q0 -24 12 -135q2 -26 13.5 -74.5t13.5 -58.5q25 -136 100 -203 q12 -7 29 -10t30 -3.5t35.5 0.5t30.5 1q28 0 49 9t36.5 29t23 34.5t20.5 43.5q37 98 37 256q0 23 -8 67.5t-8 69.5q0 45 -53 102.5t-101 57.5z" />
<glyph unicode="7" horiz-adv-x="817" d="M719 1317q-3 -8 -45 -121t-49 -137l-52 -174q36 4 46 4q65 0 65 -23q0 -9 4 -38.5t4 -38.5q0 -32 -49 -35q-18 -1 -58.5 -6.5t-57.5 -7.5q-19 -46 -52 -103q-6 -12 -16.5 -48.5t-21.5 -81.5t-15 -58q-26 -106 -68 -189q-7 -17 -20 -43.5t-21 -44t-10 -25.5 q-10 -40 -29 -94.5t-26 -58.5q-2 -2 -23 -2q-30 0 -61.5 7.5t-34.5 21.5q-4 12 -4 32q0 5 4 18.5t8.5 27.5t5.5 16q31 95 64 164q11 25 72 182q13 35 27.5 106.5t17.5 79.5q18 52 35 89l-113 1q-13 0 -46.5 -3t-47.5 -3q-8 0 -17.5 27t-11.5 47q0 7 -3 22.5t-3 22.5 q0 8 47 16.5t80 8.5q14 0 77.5 -2t97.5 -2q19 57 44.5 150t28.5 103q6 20 24 67.5t28.5 80.5t10.5 45q-8 3 -22.5 1t-58.5 -6.5t-81 -4.5q-21 0 -67 7t-74 7q-116 0 -125 2q-2 1 -12.5 2.5t-16 3.5t-11 10.5t-5.5 22.5q0 92 22 92q3 0 82.5 5t110.5 5q20 0 60.5 -10 t62.5 -10q36 0 92.5 8t93.5 8q5 0 34 1t44 1q26 0 43.5 -12t17.5 -27q0 -25 -26 -106z" />
<glyph unicode="8" horiz-adv-x="890" d="M446 1473q95 0 160 -43q39 -27 84 -72q84 -86 84 -260q0 -41 -8 -72q-25 -82 -70 -133q-11 -13 -33.5 -29t-38.5 -27t-16 -14q0 -7 78 -90q62 -69 90 -153q6 -19 10 -42.5t5.5 -38.5t3 -45.5t2.5 -41.5q2 -31 2 -93q0 -50 -4 -75q-10 -81 -76 -160q-71 -89 -221 -104 q-54 -5 -129 -5q-59 0 -119 41t-84 80q-74 104 -74 226q0 52 6 92q0 196 138 334q6 5 16.5 14.5t18.5 17t16.5 15.5t13 13.5t4.5 8.5q0 4 -14.5 16.5t-35.5 31t-32 32.5q-25 31 -63 100q-8 15 -15.5 46t-7.5 57q0 72 15 137q28 128 129 193q39 25 72 34t93 9zM444 1331 q-3 0 -17.5 -2t-23.5 -2q-36 0 -72 -42.5t-44 -88.5q-6 -46 -6 -100q0 -23 30 -74q34 -56 49 -68q20 -16 50.5 -32.5t48.5 -16.5q12 0 73.5 40.5t73.5 60.5q27 50 27 114q0 90 -58 148q-60 63 -131 63zM461 745q-6 0 -53 -39t-74 -67q-50 -50 -68 -121q-28 -102 -28 -156 q0 -96 22 -145q33 -65 84 -92q9 -5 19.5 -7.5t22.5 -3.5t19.5 -1.5t23 0t20.5 0.5q25 0 98 22q42 12 78 70q28 43 28 184q0 79 -10 127q-12 69 -90 154q-18 21 -52 48t-40 27z" />
<glyph unicode="9" horiz-adv-x="884" d="M414 1466q81 0 161 -37t105 -79q28 -47 60 -181t32 -245q0 -56 -27 -236l-14 -147q0 -85 -10 -187q-7 -90 -43 -157q-29 -56 -72.5 -112t-70.5 -71t-70 -26t-80 -11q-56 0 -107 34t-67 57q-18 21 -36 68t-25 75q-11 38 -11 63q0 5 13.5 14t25.5 9q68 0 80 -6 q20 -10 37 -60q17 -57 31 -75q32 -37 59 -37q66 0 102 49q21 30 41 72q1 3 23.5 56t26.5 87q4 43 3 96t-6 56q-3 2 -32 -5q-56 -14 -123 -14q-98 0 -184.5 59t-108.5 156q-25 116 -25 232q0 20 3.5 42.5t10 50.5t9.5 42q0 27 8 67q15 109 72 187q82 114 209 114zM422 1325 q-6 0 -31 -10q-103 -43 -123 -193q0 -1 -6 -49q-14 -82 -14 -137q0 -108 24 -188q14 -44 59 -67.5t103 -23.5q46 0 94.5 21.5t57.5 36.5q9 14 26 91t17 118q0 24 -41 256q-18 86 -35 98q-19 19 -57.5 33t-73.5 14z" />
<glyph unicode=":" horiz-adv-x="339" d="M152 1094q55 0 73 -23q19 -24 19 -55q0 -95 -19 -107q-26 -16 -69 -16q-34 0 -56 22q-16 16 -16 54l-2 51q0 33 12 49q19 25 58 25zM180 203q28 0 40.5 -7.5t19.5 -23.5q18 -40 18 -70q0 -52 -17 -74t-65 -22q-51 0 -72.5 17t-21.5 73q0 28 10.5 58t34.5 39q27 10 53 10z " />
<glyph unicode=";" horiz-adv-x="301" d="M102 1049q75 0 88 -19q21 -32 21 -67q0 -28 -15.5 -53t-39.5 -25q-4 0 -16 -1t-19 -1q-36 0 -58 14q-24 17 -24 76q0 34 16 55t47 21zM133 158q43 0 55 -15q31 -37 31 -139q0 -26 -7.5 -83t-16.5 -93q-24 -80 -33 -96q-31 -54 -45 -54q-12 0 -32.5 6.5t-31.5 14.5 q-12 9 -22.5 24t-10.5 21q0 18 31 74q14 25 27 114q4 32 4 60q0 16 -9.5 68t-9.5 63q0 8 25 21.5t45 13.5z" />
<glyph unicode="&#x3c;" horiz-adv-x="819" d="M682 1247q17 0 39 -18q12 -11 24.5 -31.5t12.5 -32.5q0 -16 -35 -51l-96 -82q-17 -13 -65.5 -63t-61.5 -62q-78 -75 -166 -133q-16 -11 -41 -33.5t-25 -29.5t47 -54.5t74 -70.5q9 -8 38 -36t42 -38q21 -18 55.5 -55t40.5 -43t37.5 -39t48.5 -49q88 -83 88 -99 q0 -8 -20 -36t-27 -35q-18 -15 -39 -15q-8 0 -67.5 50.5t-83.5 76.5q-63 72 -84 92q-24 22 -90 87t-105 98q-69 62 -88 84q-42 54 -45 59q-8 13 -8 41q0 7 16.5 28.5t40.5 41.5q96 82 119 96q34 22 85 66t85 81q67 67 88 84q25 20 59 54q24 21 61.5 44t45.5 23z" />
<glyph unicode="=" horiz-adv-x="872" d="M109 958q52 0 117.5 -6t68.5 -6q34 0 85.5 -1t70.5 -1q23 0 78 -5t83 -5q22 0 83 4t75 4q9 0 15 -40t6 -64t-17 -35q-18 -12 -160 -12q-11 0 -83 7t-85 7q-44 0 -92 -0.5t-80.5 -1t-37.5 -0.5q-20 1 -60.5 6t-60.5 6q-33 6 -33 88q0 25 9 40t18 15zM545 655q21 0 114 -6 t109 -6q9 0 16 -11.5t7 -23.5q0 -24 -14.5 -64t-31.5 -40q-15 0 -95.5 2t-104.5 2q-17 0 -62 -7t-61 -7q-6 0 -67 -1.5t-79 -0.5q-2 0 -52.5 2t-90 6t-39.5 10q0 34 8 61q1 2 7 21t13.5 29.5t18.5 13.5q17 2 31.5 1.5t55 -2t69.5 -1.5q4 0 121 6q15 1 61.5 8.5t65.5 7.5z " />
<glyph unicode="&#x3e;" horiz-adv-x="819" d="M137 1247q8 0 45.5 -23t61.5 -44q34 -34 59 -54q21 -17 88 -84q34 -37 85 -81t85 -66q23 -14 119 -96q24 -20 40.5 -41.5t16.5 -28.5q0 -28 -8 -41q-3 -5 -45 -59q-19 -22 -88 -84q-39 -33 -105 -98t-90 -87q-21 -20 -84 -92q-24 -26 -83.5 -76.5t-67.5 -50.5 q-21 0 -39 15q-7 7 -27 35t-20 36q0 16 88 99q17 16 48.5 49t37.5 39t40.5 43t55.5 55q13 10 42 38t38 36q27 23 74 70.5t47 54.5t-25 29.5t-41 33.5q-88 58 -166 133q-14 13 -62 62.5t-64 62.5l-97 82q-35 35 -35 51q0 12 12.5 32.5t24.5 31.5q22 18 39 18z" />
<glyph unicode="?" horiz-adv-x="679" d="M344 1495q64 0 148 -71t110 -167q10 -39 10 -122q0 -21 -18 -68q-16 -41 -56 -87.5t-79.5 -94t-55.5 -94.5q-11 -31 -16.5 -95t-9.5 -86q-5 -27 -13 -115t-8 -114q0 -16 -43 -37t-92 -20q-5 0 -9.5 17t-4.5 38q0 35 7 126.5t15 133.5q3 18 10.5 71t16.5 91t25 71 q41 82 141 189q43 50 43 72q0 3 1 16.5t1 24.5t-2 27.5t-8 31.5q-22 49 -57 85t-70 36q-87 0 -119 -39q-8 -10 -19 -43t-21 -59.5t-19 -26.5q-14 0 -27 8q-4 3 -27 17.5t-37 27.5t-14 25q0 23 20.5 78t53.5 90q37 37 88 49q48 14 135 14zM303 197q19 0 41.5 -17t28.5 -43 q4 -24 4 -41q0 -46 -21 -80q-23 -26 -67 -26q-61 0 -68 39q-6 34 -6 77q0 20 1 30t6 23t16 21q12 11 24 14t41 3z" />
<glyph unicode="@" horiz-adv-x="1425" d="M750 1450q47 0 123 -7.5t118 -17.5q57 -12 111.5 -46t91.5 -81q88 -100 127 -305q16 -92 16 -256q0 -110 -28 -243q-11 -54 -56 -110.5t-98 -94.5q-57 -40 -94.5 -52t-104.5 -12q-19 0 -36 8t-25.5 17.5t-16.5 17.5t-12 8q-3 0 -18.5 -12.5t-36.5 -28t-61.5 -28 t-87.5 -12.5q-100 0 -156 65q-29 34 -46.5 79.5t-24 103.5t-8 93t-1.5 96v21q0 30 5.5 56.5t14.5 57.5t13 52q11 64 24 113q22 61 50.5 102.5t74.5 65.5q53 26 117 26q25 0 51 -5.5t40 -9.5t15 -3t12 42t17 46q7 5 39.5 10.5t48.5 5.5q13 0 21 -15.5t8 -37.5q0 -45 -10 -137 q-20 -240 -21 -287q-7 -178 2 -278q9 -99 35 -99q52 0 101 42t69 81q29 59 41 178q6 67 6 136q0 154 -47 297q-23 64 -68.5 121t-105.5 73q-106 27 -231 27q-52 0 -122 -15t-110 -38q-62 -35 -152 -142t-102 -147q-39 -95 -39 -254q0 -88 9.5 -217t29.5 -172 q66 -145 152 -197q124 -72 239 -72q81 0 166 37q25 10 41 10q9 0 23 -15.5t20 -18.5q12 -6 27.5 -23t15.5 -24q0 -8 -4.5 -15.5t-14 -14.5t-18.5 -12.5t-24 -11.5t-23.5 -9t-23.5 -8.5t-19 -6.5q-54 -23 -168 -23q-73 0 -162.5 26.5t-150.5 63.5q-108 66 -170 188.5 t-70 246.5q-10 155 -10 325q0 131 45 244q34 87 119 201q51 61 91.5 98t94.5 61q169 72 312 72zM719 989q-42 0 -62 -22q-41 -43 -57 -138q-6 -35 -15.5 -73.5t-14.5 -62t-5 -38.5q0 -174 6 -215q4 -41 28 -76.5t71 -35.5q23 0 55 8q17 9 45.5 27t32.5 26q6 12 6 160 q0 26 -1.5 95.5t-0.5 111.5q0 51 2 78q5 81 -4 104q-6 16 -33.5 33t-52.5 18z" />
<glyph unicode="A" horiz-adv-x="856" d="M422 1466q25 0 46.5 -6.5t27.5 -15.5q31 -47 51 -105q36 -100 61 -290q13 -116 35 -230q45 -236 100 -409q14 -42 31 -152q13 -93 21 -125q30 -100 30 -113q0 -11 -13 -16.5t-24 -5.5q-9 0 -31 2t-32 2q-31 0 -45 23q-15 25 -23 71q-32 182 -32 185q-3 23 -11.5 62 t-11.5 40q-10 4 -49 4q-30 -1 -77.5 -8.5t-65.5 -7.5q-16 0 -56.5 -2t-54.5 -2q-3 0 -19 -1t-28 -3.5t-14 -6.5l-19 -77q-4 -16 -10.5 -56.5t-13.5 -60.5q-12 -39 -15 -94q-6 -52 -20 -66q-12 -12 -54 -12q-26 0 -50.5 5t-24.5 13q0 6 1 17t2.5 26.5t2.5 24.5q1 12 1.5 28.5 t1 25.5t1.5 13q0 2 31 121q28 118 57 273q10 49 24.5 140t27.5 160t26 111q14 48 27.5 160t17.5 133q8 33 33 98.5t30 85.5q6 27 23 31q30 10 84 10zM420 1272q-2 0 -9.5 -10t-16 -30t-13.5 -40q-5 -23 -18 -153t-19 -165q-32 -137 -47 -223l-23 -133q0 -4 58 -4 q11 0 39.5 -1t42.5 -1q31 0 82 7t53 7q8 0 10 9q-8 39 -24.5 101.5t-22.5 90.5q-11 43 -23 136.5t-20 131.5q-5 21 -11 86.5t-9 87.5q-4 27 -9.5 51.5t-11 38t-8.5 13.5z" />
<glyph unicode="B" horiz-adv-x="864" d="M244 1456q132 0 198 -6q21 -2 65 -19.5t79 -44.5q104 -79 145 -137t41 -145q0 -70 -12 -117q-31 -122 -86 -168q-11 -8 -31.5 -18.5t-35.5 -17.5t-15 -9q0 -1 11.5 -8t31.5 -22.5t37 -32.5q56 -56 82 -170q2 -11 8 -37t9 -41.5t6 -37.5t3 -38q0 -103 -20 -164 q-36 -103 -135 -174q-72 -51 -357 -51q-33 0 -51.5 0.5t-45 3t-39.5 9t-13 16.5q0 9 -2 58t-2 58q0 26 -6.5 110t-6.5 130q0 42 9.5 147t9.5 121q0 21 -2 87.5t-2 84.5q0 48 1 133t1 99q0 15 6 66t6 71q2 47 2 141q0 85 21 113q8 10 90 10zM299 1317q-18 0 -18 -25 q0 -8 -1 -25.5t-1 -25.5q0 -33 -8.5 -96t-8.5 -84q0 -29 -1 -87t-1 -87q0 -31 8 -33q57 -5 146 10q92 15 123 30q45 22 65 62q27 59 27 148q0 40 -27.5 75.5t-77.5 77.5q-52 44 -159 54q-24 6 -66 6zM352 713q-44 0 -84 -6q-4 0 -4 -56q-2 -36 -11 -129t-9 -137q0 -26 7 -80 t7 -82q0 -75 6 -84q4 -4 76 -4q51 0 107.5 8t78.5 19q30 15 46 26t33.5 41.5t25.5 77.5q2 16 2 107q0 17 -3.5 33.5t-11.5 43t-10 33.5q-18 68 -47 99q-36 42 -93.5 66t-115.5 24z" />
<glyph unicode="C" horiz-adv-x="813" d="M465 1475q48 0 102 -23q72 -34 117 -84q12 -13 21 -30t17.5 -37.5t12.5 -28.5q25 -63 25 -109q0 -19 -17 -30q-14 -9 -46.5 -23t-39.5 -14q-20 0 -32 37q-6 16 -18 58t-23 66q-15 34 -46.5 54t-68.5 20q-32 0 -74.5 -14t-62.5 -37q-5 -5 -9 -10.5t-7.5 -11.5t-6 -10.5 t-6 -12t-5 -10.5t-4 -12t-3.5 -11.5t-4 -13t-4 -12.5q-56 -171 -56 -408q0 -34 4.5 -102t4.5 -95q0 -171 51 -299q26 -66 47 -100q29 -43 147 -43q90 0 107 31q4 8 10 18.5t9.5 17t7.5 15.5t6 18q5 6 1 53.5t-4 53.5q0 18 29 32.5t60 14.5q35 0 45 -21q8 -19 8 -61 q0 -103 -15 -145q-5 -14 -13.5 -28.5t-19.5 -32t-16 -27.5q-27 -46 -98.5 -63t-144.5 -17q-105 0 -158 30q-28 15 -50 36.5t-39 51.5t-27 51.5t-25 59.5q-60 153 -60 277q0 18 1 46t1 35q0 11 -7 104.5t-7 139.5q0 45 24 232q10 76 38.5 173.5t56.5 135.5q30 41 112 78 t152 37z" />
<glyph unicode="D" horiz-adv-x="860" d="M346 1460q30 0 57.5 -4.5t58 -16.5t46.5 -19t53.5 -26.5t48.5 -25.5q62 -32 102 -112.5t50 -163.5q16 -122 16 -234q0 -311 -28 -467q-11 -68 -54 -160t-90 -139q-58 -55 -125 -69q-30 -6 -138.5 -16.5t-166.5 -10.5q-37 0 -50 7.5t-17 37.5q-7 49 -7 178q0 23 5.5 80.5 t5.5 93.5q0 43 12 149t12 146q0 47 -8 102t-8 82q0 13 -2 44t-2 47q0 24 2 51.5t4.5 54t3.5 35.5q4 47 4 244q0 25 7.5 53t17.5 35q32 24 190 24zM307 1319q-29 0 -31 -12q-3 -37 -8 -199q-1 -10 -4.5 -46t-3.5 -56q0 -72 16 -224q5 -68 5 -80q0 -44 -7 -112 q-2 -24 -11 -86.5t-9 -97.5q0 -19 -2 -58.5t-2 -54.5q0 -2 -1 -27t-1 -43q0 -21 0.5 -31.5t1.5 -24t4.5 -19t9.5 -5.5q107 0 146 9q3 1 20 5.5t22.5 6.5t18 7t21 11.5t16.5 14.5q27 30 59.5 103t40.5 118q25 137 25 418q0 132 -10 198q-15 101 -42 151t-85 79q-34 18 -55 28 t-57.5 18.5t-76.5 8.5z" />
<glyph unicode="E" horiz-adv-x="716" d="M426 1462q18 0 65.5 -3t65.5 -3q46 0 74 -8q6 -1 15 -19.5t9 -29.5q0 -13 -5 -39.5t-11 -34.5q-11 -14 -78 -14q-17 0 -65.5 4t-73.5 4q-2 0 -32.5 -2t-57.5 -2q-70 0 -72 -2q-4 -4 -4 -21q0 -16 4 -71.5t4 -79.5q0 -23 -3 -72t-3 -74q0 -21 3 -64t3 -65q0 -10 39 -10 q4 0 46.5 6t56.5 6q9 0 40 -3.5t56 -4.5q22 -1 48 0.5t43.5 3t22.5 0.5q33 -5 33 -92q0 -20 -10 -35q-3 -4 -64 -14q-16 -4 -86 -4q-24 0 -49 3t-30 3q-8 0 -58 -5t-76 -5q-12 0 -20 -17q-8 -16 -8 -77q0 -16 3 -93.5t3 -121.5q0 -22 -8 -87.5t-8 -91.5q0 -32 5.5 -54.5 t14.5 -22.5q14 0 48 3t40 3q22 0 91.5 -6.5t74.5 -6.5q13 0 48 7.5t46 7.5q10 0 35 -37q14 -20 14 -80q0 -17 -68 -31t-106 -14q-28 0 -79.5 7t-59.5 7q-20 0 -99 -8t-98 -8q-21 0 -36 127q-7 68 -7 121q0 39 4.5 99t4.5 62q0 25 -3.5 76t-3.5 84q0 127 13 201q6 35 6 67 q0 29 -5 88t-5 89q0 23 2 70t2 67q0 23 -2 70.5t-2 72.5q0 42 10 94t22 56q7 2 54 7t63 5q10 0 75 6t89 6z" />
<glyph unicode="F" horiz-adv-x="749" d="M457 1458q73 0 192 -18q22 -3 41 -16t19 -25q0 -13 -8 -36.5t-17 -37.5q-6 -12 -17.5 -22.5t-17.5 -10.5q-3 0 -28.5 6t-73.5 12.5t-107 6.5q-42 0 -106.5 -5.5t-67.5 -8.5q-4 -4 -4 -39q0 -16 -3 -47t-3 -48q0 -31 3 -69.5t8.5 -91t6.5 -68.5q1 -14 1 -31.5v-27.5t1 -11 q10 -3 23.5 -3t44.5 2.5t45 2.5q61 0 139 -4q115 -7 127 -14q7 -4 14 -30t7 -46q0 -44 -17 -53q-12 -6 -133 -6q-9 0 -65 5t-72 5q-29 0 -74.5 -4t-46.5 -8q-6 -14 -6 -74q0 -28 4 -75.5t4 -67.5q0 -43 -12 -150t-12 -164q0 -14 3 -75t3 -76q0 -34 -14 -41q-12 -6 -52 -6 q-57 0 -69 10q-11 9 -11 37q0 9 -2 57.5t-2 104.5q0 20 12.5 170.5t12.5 189.5q0 19 -4 60t-4 65q0 34 5 122.5t5 135.5q0 40 -8 115t-8 121q0 40 5 119t5 83q0 35 14 49q18 13 84 17q133 14 236 14z" />
<glyph unicode="G" horiz-adv-x="913" d="M451 1479q46 0 88 -11q7 -2 39 -4t40 -4q48 -12 82 -47.5t72 -109.5q11 -22 24 -77t13 -65q0 -15 -29 -31q-25 -14 -73 -14q-17 0 -25 13t-29 71q-9 26 -15 41.5t-13 27.5t-9.5 16t-13.5 16t-16 18q-5 5 -13 8t-23.5 5t-19.5 3q-57 11 -90 11q-17 0 -33 -8.5t-26.5 -17.5 t-24.5 -30t-19 -29t-18 -32q-1 -2 -12.5 -23.5t-13.5 -26t-11.5 -23t-12 -25.5t-9 -23t-8.5 -26.5t-4.5 -24.5t-3.5 -27q-5 -82 -12 -263.5t-7 -248.5q0 -36 10 -98.5t25 -91.5q42 -86 62 -123q29 -50 54.5 -65t90.5 -15q126 0 164 74q36 71 45 207q4 86 4 120q0 72 -6 78 q-9 3 -22 2.5t-40.5 -2.5t-38.5 -2q-21 0 -62 10.5t-48 20.5q-10 17 -10 74q0 24 5.5 34.5t28.5 10.5q20 0 71 -5.5t69 -5.5q19 0 50.5 5.5t39.5 5.5q43 0 69 -17q22 -15 31.5 -70.5t9.5 -107.5q0 -82 -10 -160q-1 -10 -3.5 -38t-3.5 -38.5t-4 -34.5t-5.5 -36t-6.5 -32 t-9 -33t-12 -28t-15 -28q-39 -61 -116.5 -104t-190.5 -43q-181 0 -242 137q-6 15 -35.5 63.5t-40.5 73.5q-18 40 -34.5 125t-16.5 137q0 57 1 151.5t1 102.5q0 43 3 90t8 103.5t7 89.5q9 130 146 321q36 49 90.5 76t112.5 27z" />
<glyph unicode="H" horiz-adv-x="919" d="M158 1487q24 0 64 -14t40 -31q0 -24 -8 -97t-8 -96q0 -37 4 -123t4 -135q0 -77 4 -80q3 -2 22 0.5t47.5 5.5t45.5 3q25 0 62.5 -3t53.5 -4q2 0 24.5 1t38.5 0t30 -5q9 -3 32.5 -3t30.5 3q0 40 3 81t9.5 98t8.5 81q4 54 4 103q0 7 -4 77t-4 87q0 9 39.5 14.5t64.5 5.5 q24 0 35 -16q5 -8 8.5 -83t3.5 -124q0 -25 -5.5 -105.5t-6.5 -91.5q-13 -178 -13 -245q0 -31 8 -88.5t9 -75.5q2 -23 2 -71.5t-1 -101t-1 -57.5q0 -50 6 -112t6 -66q0 -23 -3.5 -104.5t-4.5 -91.5q-6 -33 -88 -33q-25 0 -40 8.5t-15 17.5q0 8 3 95.5t3 99.5q0 36 -8 168 q-2 24 -2 141q0 14 -11 176q-5 65 -8 72q-39 -8 -65 -4q-37 6 -89 6q-17 1 -54 4.5t-60 3.5q-24 0 -52.5 -3t-47.5 -7t-21 -6q-3 -15 -2.5 -38t2.5 -77t2 -78t-3 -102t-1 -121q0 -15 7 -85t3 -107q0 -3 -1.5 -22.5t-3 -39.5t-4 -41.5t-6 -35.5t-7.5 -15q-30 -10 -62 -10 q-61 0 -63 16t-0.5 34.5t4 60.5t2.5 73q0 33 -7.5 92.5t-7.5 79.5q0 39 5.5 107.5t5.5 107.5q0 16 -5.5 88t-5.5 113q0 35 4.5 121t4.5 108q0 28 -6.5 138t-6.5 118q0 27 6.5 94t6.5 74q6 43 16 55q2 2 5.5 6.5t4.5 5.5t4 3t5.5 2h7.5z" />
<glyph unicode="I" horiz-adv-x="417" d="M254 1442q35 0 35 -29q0 -10 -12.5 -95.5t-12.5 -127.5l-2 -221q0 -49 3 -100.5t9.5 -124.5t8.5 -101q2 -26 6 -69t6 -72.5t2 -59.5l-2 -161q0 -14 2 -53t2 -62t-5.5 -78.5t-8.5 -64.5q-9 -27 -88 -27q-40 0 -50 16q-4 6 -4 37q0 16 4.5 52.5t4.5 60.5q0 14 -1 72t-1 106 q2 37 2 111q0 47 -10.5 138.5t-12.5 135.5q-10 240 -10 279q0 25 4 92.5t4 103.5q0 38 12 123t23 102q4 7 36.5 12t55.5 5z" />
<glyph unicode="J" horiz-adv-x="610" d="M162 1452q3 0 162 -12q21 -3 58 -4.5t52 -3.5q16 -1 32 -25t21 -47q11 -91 11 -100q0 -20 -2 -62.5t-2 -64.5q0 -51 7 -154.5t7 -155.5q0 -74 -19 -352q0 -4 -12 -131q-2 -22 -3 -65t-3 -64q-4 -62 -30.5 -117t-55.5 -76q-44 -32 -149 -32q-45 0 -94 14.5t-74 38.5 t-41.5 88.5t-16.5 130.5q0 20 7 34.5t14 18.5q12 6 108 6q15 0 15 -104q0 -53 12 -70q15 -18 49 -18q76 0 90 18q25 32 25 152q0 18 2 38.5t5.5 45.5t4.5 39q23 251 23 397q0 27 -7.5 151t-7.5 156q0 18 2 58t2 59q0 45 -4 49q-10 10 -24 10q-45 0 -99 7q-41 6 -69 6 q-23 0 -48 -3t-28 -3q-16 0 -16 38q0 85 14 95q20 14 82 14z" />
<glyph unicode="K" horiz-adv-x="847" d="M737 301q27 -60 60.5 -157t33.5 -115q0 -31 -63 -35q-28 -4 -47 -4q-8 0 -19.5 11.5t-17.5 25.5q-1 2 -29.5 87t-38.5 107q-19 42 -71.5 120.5t-71.5 121.5q-11 25 -52.5 139.5t-62.5 142.5q-72 -74 -77 -88q-4 -16 -7 -34.5t-5.5 -45t-4.5 -40.5q-18 -140 -18 -324 q0 -20 5 -82.5t5 -73.5q0 -26 -16 -47q-10 -14 -58 -14q-47 0 -57 8q-12 14 -12 74q0 7 -5.5 53t-5.5 80q0 167 23 358q16 135 16 303q0 8 -7 68.5t-7 89.5q0 34 2 106t2 109q0 35 -13.5 91.5t-13.5 84.5q0 8 19.5 20t40.5 15q7 1 24 3.5t23 2.5q12 0 25 -16 q19 -25 29.5 -90t10.5 -111q0 -36 -4 -103t-4 -98q0 -26 8 -97t13 -81q17 18 54.5 58.5t63 69.5t39.5 48q11 15 53 82.5t60 87.5q23 26 43 58t44.5 77.5t37.5 67.5q13 8 45 8q19 0 51 -4q37 -3 37 -20q0 -74 -127 -252q-9 -12 -56 -84t-61 -90l-27.5 -38.5t-43.5 -56.5 t-40 -38q24 -30 51 -88.5t52 -124.5t35 -86q20 -45 71.5 -127t65.5 -113z" />
<glyph unicode="L" horiz-adv-x="663" d="M160 1479q24 0 46.5 -7.5t22.5 -15.5q0 -10 -3 -41t-3 -41q0 -24 9.5 -105t9.5 -104q0 -58 -10.5 -172.5t-10.5 -187.5q0 -87 13.5 -261t13.5 -284q0 -14 -3 -42.5t-5 -49t0 -23.5q1 -2 9.5 -3t17.5 -0.5t19 0.5l9 1q27 0 60 -3t55 -3q24 0 90 4t90 4q27 0 35 -10t8 -43 q0 -20 -9 -50t-20 -34q-12 -4 -67.5 -9t-92.5 -5q-22 0 -66 5t-67 5q-6 0 -51.5 -3t-73.5 -3q-78 0 -84 12q-10 20 -10 66q0 36 8.5 98.5t8.5 93.5q0 82 -15.5 269t-15.5 272q0 40 9 153t9 193q0 34 -7.5 118t-8.5 111q0 20 6.5 48.5t11.5 35.5q8 11 62 11z" />
<glyph unicode="M" horiz-adv-x="1312" d="M272 1468q45 0 64 -24q20 -29 51.5 -105.5t50.5 -138.5q48 -152 56 -190q17 -80 49 -207q4 -15 33.5 -96t35.5 -129q5 -40 13.5 -89t16.5 -82.5t11 -33.5t17.5 55t30.5 121t20 80q9 27 46 124.5t48 143.5q14 49 29.5 136t19.5 102q18 62 66 200q20 60 71 117q23 4 70 4 q31 0 51 -8q43 -21 49 -240q2 -45 8 -114t7 -123q0 -7 4 -149.5t4 -198.5q0 -36 -3 -81.5t-5.5 -76.5t-8.5 -85t-8 -77q-6 -61 -6 -197q0 -87 -8 -106q-8 -18 -76 -18q-42 0 -49 14q-3 6 -8.5 42.5t-5.5 55.5q0 129 12 240q21 218 23 301l-4 332q0 28 -8 121.5t-11 93.5 q-1 0 -7 -13t-13.5 -37t-12.5 -47q-41 -212 -53 -249q-19 -59 -50 -140.5t-48 -136.5l-53 -207q-14 -50 -35 -95.5t-35 -55.5q-24 -17 -103 -17q-65 0 -65 31q0 22 -26 113t-31 121q-2 16 -5 31t-4.5 26.5t-5 25.5l-5.5 22t-6 22.5t-6 20.5t-7.5 23.5t-7.5 22.5t-9.5 26.5 t-9.5 28.5q-26 79 -35 129q-9 52 -33.5 144t-46 160.5t-24.5 68.5q-8 0 -14.5 -109t-6.5 -182q0 -57 -4 -228.5t-4 -203.5q0 -60 4 -122.5t4 -108.5q0 -31 -3 -91.5t-3 -91.5q0 -13 -8 -31t-16 -26q-10 -10 -82 -10q-22 0 -33 22q-6 12 -6 76q0 24 5 75t5 77q0 40 -5 103.5 t-5 123.5q0 30 3 195t3 219q0 47 6 129t13.5 155.5t7.5 81.5q10 147 10 185q0 7 10 14.5t21 9.5q48 6 79 6z" />
<glyph unicode="N" horiz-adv-x="985" d="M205 1456q81 0 106 -14q18 -11 23 -25q18 -38 36 -85t29 -80t30.5 -94t29.5 -91q13 -39 22.5 -113t18.5 -106q39 -126 110 -244q12 -18 39.5 -85.5t50.5 -125t25 -57.5q2 17 0.5 57t-5.5 121.5t-5 110.5q-1 35 -7 111.5t-6 117.5q0 36 3.5 110t3.5 115q0 24 -2 50.5 t-5 61.5t-4 56q-8 90 -8 152q0 39 8.5 47t44.5 8q91 0 93 -22q1 -8 2 -39.5t2 -71.5t2 -57q2 -51 10 -148q6 -93 6 -98q0 -21 -5 -70t-5 -78q0 -48 9 -143.5t9 -144.5q0 -59 -1 -178.5t-1 -178.5q0 -17 -14 -93.5t-14 -108.5q0 -29 -74 -29q-62 0 -72 31q-19 58 -24 98 q-2 15 -19.5 53.5t-45 92t-40.5 83.5q-6 15 -28.5 71.5t-49.5 114.5t-67 134q-26 49 -55 181.5t-53 234.5t-44 102q0 -19 6 -121.5t6 -122.5q0 -36 4.5 -107.5t4.5 -107.5q-3 -105 -13 -252q-8 -155 -10 -223q-2 -57 -2 -172l2 -68q0 -18 -72 -18q-60 0 -65 12q-4 10 -4 49 q0 31 -1 100.5t-1 110.5q0 50 3.5 106t9.5 128t9 110q2 35 2 103q0 45 -5 140t-5 149q0 57 6 172t6 174q0 104 60 104z" />
<glyph unicode="O" d="M483 1483q23 0 40 -2.5t24.5 -5.5t21 -9.5t21.5 -9.5q80 -30 127.5 -88.5t79.5 -148.5q37 -110 45 -164q2 -19 1.5 -42.5t-2 -59t-1.5 -42.5q0 -33 3 -103t3 -118q0 -46 -5 -93.5t-14.5 -106t-13.5 -93.5q-17 -144 -72 -237q-5 -8 -16.5 -28.5t-18 -31t-18 -26.5t-24 -28 t-27.5 -23q-77 -50 -186 -50q-110 0 -158 21q-90 55 -160 186q-25 48 -38 158t-13 219q0 70 4 149.5t10.5 177.5t9.5 150q3 47 13 107.5t18 87.5q4 15 12 28.5t21.5 32t19.5 27.5q2 3 11.5 21.5t19.5 33t23 27.5q30 30 92.5 57t146.5 27zM498 1343q-90 0 -138 -38 q-9 -7 -18.5 -19t-15 -22t-13.5 -27t-12 -23q-26 -43 -35 -77q-14 -54 -24 -199q-15 -199 -15 -324q0 -159 9 -249q13 -139 98 -224q26 -26 127 -26q55 0 99 33t71 85q6 11 10.5 25t9 33.5t7 32t7.5 39t7 36.5q35 206 35 287q0 36 -4.5 111t-4.5 112q0 148 -14 203 q-21 79 -76.5 155t-109.5 76z" />
<glyph unicode="P" horiz-adv-x="790" d="M229 1458q100 0 223.5 -25t155.5 -47q29 -20 57.5 -57.5t39.5 -68.5q12 -34 23 -114.5t11 -146.5q0 -63 -0.5 -93.5t-7 -81.5t-18.5 -85q-21 -59 -53 -97.5t-58 -51.5q-21 -10 -104.5 -23.5t-118.5 -13.5q-18 0 -67.5 2t-53.5 2q-4 -3 -4 -29q0 -40 6 -118.5t6 -118.5 q0 -41 -6.5 -114.5t-7.5 -92.5q0 -68 -8 -78q-11 -14 -97 -14q-38 0 -38 41q0 20 7 95t7 112q0 48 -7 148t-7 149q0 59 -3.5 185t-3.5 198q0 38 9 157q16 163 16 193q0 22 -6 73.5t-6 59.5q0 29 12 41q14 14 102 14zM266 1311q-4 -10 -3.5 -21.5t4 -33t3.5 -29.5 q0 -51 -11 -138t-11 -137q0 -62 4.5 -154.5t7.5 -95.5q15 -12 121 -12q26 0 76 7t63 12q14 5 32 23.5t26 39.5q20 49 20 162q0 97 -12.5 200t-38.5 121q-50 35 -154 50q-115 18 -127 6z" />
<glyph unicode="Q" horiz-adv-x="962" d="M831 43q13 -2 18 -7.5t5 -23.5q0 -12 -5.5 -41t-12.5 -37q-10 -10 -41 -10q-24 0 -54 6q-17 5 -61 29t-75 48q-56 -25 -128 -25q-92 0 -172 41q-109 64 -170 227q-53 190 -53 489q0 62 16 188.5t19 176.5q7 123 69 211q52 74 133.5 113.5t174.5 39.5q49 0 75.5 -1.5 t62.5 -12t60 -31.5q64 -55 107 -170.5t49 -224.5q22 -194 22 -287q0 -211 -30 -376q-24 -128 -46 -178q-24 -56 -63 -96q43 -35 51 -38q33 -8 49 -10zM475 119q19 0 39 3q-27 45 -37 68q-33 74 -33 93q0 10 19 27.5t39 29.5q16 8 51 8q7 0 22 -32t32 -74.5t25 -56.5l7 8 q26 46 59 180q9 39 17 174t8 207q0 186 -28 338t-87 211q-13 13 -35 20t-36 7.5t-43 0.5q-32 0 -51.5 -2t-45 -12t-43.5 -29q-45 -45 -71.5 -102.5t-26.5 -108.5q0 -23 -16.5 -136.5t-16.5 -207.5q0 -127 31 -358q13 -92 33 -133q26 -53 76.5 -88t111.5 -35z" />
<glyph unicode="R" horiz-adv-x="819" d="M748 123q30 -75 30 -103q0 -18 -21 -26t-44 -8q-70 0 -72 12q-8 31 -24 63t-43 75.5t-37 60.5q-17 31 -55 127t-46 112q-18 39 -37.5 74.5t-39 63.5t-32.5 46t-30.5 39t-20.5 25q-29 -7 -32 -8q-1 -14 0 -41t4 -85t4 -79q0 -23 -4 -76t-4 -86q0 -27 6 -98t6 -102 q0 -22 -8 -60t-17 -45q-16 -8 -45 -8q-80 0 -80 41q0 16 4.5 50.5t4.5 53.5q0 31 -6.5 86t-6.5 90q0 26 1 130.5t1 150.5q0 80 2 98q15 130 15 394q0 44 -4 130t-4 130q0 52 20 88q27 8 76 8q92 0 220.5 -24t178.5 -58q53 -36 93.5 -116.5t41.5 -172.5q0 -129 -53 -219 q-14 -24 -35.5 -42.5t-39 -27t-48.5 -22.5t-47 -23q-24 -13 -87 -27q88 -116 136 -229q1 -2 43 -107t64 -142l34 -50q33 -49 38 -63zM256 834q2 -3 9 -4t19 0.5t24 4t29.5 5t29.5 4.5q144 15 188 69q22 26 35.5 71.5t13.5 82.5q0 45 -21.5 101.5t-47.5 76.5q-12 10 -30 16.5 t-33 10t-45.5 9t-49.5 9.5q-34 7 -74 8.5t-41 -2.5q-3 -9 -2 -24t3.5 -50t2.5 -53q0 -67 -6 -131q-5 -57 -6.5 -124t2.5 -80z" />
<glyph unicode="S" horiz-adv-x="737" d="M358 1464q109 0 160 -26q34 -18 86 -74q30 -33 50 -65.5t20 -41.5q0 -18 -21 -30q-10 -5 -27 -17.5t-30.5 -19t-28.5 -6.5q-7 0 -21.5 20t-33.5 47t-31 39q-35 35 -110 35q-21 0 -54 -17t-51 -38q-17 -18 -31 -78t-14 -107q0 -42 25 -90.5t61 -83.5q19 -17 40 -32.5 t34 -24t38.5 -24t37.5 -23.5q62 -40 116 -107q41 -49 72 -160t31 -239q0 -98 -54.5 -177.5t-144.5 -123.5q-41 -14 -129 -14q-109 0 -158 24q-52 27 -102 113q-20 35 -33.5 85t-13.5 91q0 16 32 27.5t50 11.5q29 0 33 -6q9 -14 24 -53q27 -104 53 -125q34 -27 78 -27 q121 0 154 29q70 64 70 151q0 77 -36 192t-83 158q-17 16 -38.5 31.5t-34.5 23.5t-42.5 25.5t-38.5 22.5q-67 47 -125.5 135.5t-58.5 157.5q0 65 19 154.5t34 117.5q19 35 68 84q20 20 69 37.5t90 17.5z" />
<glyph unicode="T" horiz-adv-x="749" d="M47 1473q3 0 24 -4.5t53 -9.5t62 -5q24 0 75 2t77 2q30 0 131 -7t152 -7q86 0 110 -11q19 -9 19 -26q0 -37 -5 -57q-13 -38 -18 -41q-18 -9 -104 -9q-20 0 -72 4t-62 5q-24 0 -30 -6q-2 -8 -1.5 -22t2 -41t1.5 -36q0 -67 -12.5 -198.5t-12.5 -194.5q0 -55 8.5 -163 t8.5 -163q0 -130 -10.5 -232.5t-21.5 -159t-11 -73.5q0 -14 -6.5 -22.5t-21 -12t-27.5 -4.5t-38 -1q-53 0 -53 24q0 47 8 74q18 60 27.5 183.5t9.5 240.5q0 38 -8 153t-8 181q0 62 13 188t13 193q0 92 -12 92q-40 0 -63 4q-14 3 -31 3t-38 -1.5t-32 -1.5q-39 0 -75.5 8 t-49.5 18q-18 13 -18 29q0 18 18.5 61.5t28.5 43.5z" />
<glyph unicode="U" d="M203 1462q36 0 45 -10t14 -51q12 -99 12 -182t-14 -251t-14 -243q0 -223 16 -301q5 -25 7 -86t7 -88q5 -41 28.5 -76t62.5 -43q62 -12 94 -12q9 0 25.5 -1t30 -1t26.5 2q8 1 16.5 8t17 19t14.5 22.5t14 25.5t11 21q19 34 33 108t19 148q14 280 14 426q0 18 -7 85.5 t-7 117.5q0 151 4 233q0 77 4 101t61 24q25 0 62 -14q16 -6 16 -123q0 -53 -5 -118.5t-5 -84.5q0 -32 10 -111t10 -102q0 -22 -1.5 -81.5t-3.5 -136.5t-3 -105q-11 -319 -94 -473q-28 -50 -73.5 -92t-90.5 -42q-128 0 -189 6.5t-110 32.5q-42 22 -74 70t-45 98t-16.5 136.5 t-5.5 97.5q-17 104 -17 194q0 264 7 373q2 32 12 116.5t10 127.5q0 31 -9 114t-9 89q0 32 90 32z" />
<glyph unicode="V" horiz-adv-x="948" d="M164 1456q15 0 33 -51q10 -28 26 -84t21 -70q24 -102 45 -207q22 -127 24 -133q2 -10 80 -274q14 -45 25.5 -133t18.5 -150.5t12 -62.5q4 0 12.5 24t11.5 43q48 204 70 320q29 139 45 199q17 64 59.5 181.5t57.5 164.5q9 29 43 161q13 55 28 62q16 8 41 8q29 0 54.5 -6 t25.5 -16q0 -17 -3 -38.5t-6.5 -36.5t-9.5 -39t-8 -34q-30 -124 -73 -242q-3 -7 -16 -43t-18.5 -51.5t-16 -47t-18.5 -59t-15 -57.5q-14 -57 -43 -212.5t-54 -237.5q-26 -86 -112 -318q-13 -22 -70 -22q-51 0 -63 12q-13 28 -22.5 63t-19.5 85.5t-14 66.5q-6 26 -11 58.5 t-10.5 77t-8.5 65.5q-14 91 -46.5 228t-64.5 224q-14 39 -24 113.5t-15 97.5q-15 84 -51 207q-3 8 -12.5 35t-15 45.5t-5.5 26.5q0 18 2 26q4 23 10 25q18 6 101 6z" />
<glyph unicode="W" horiz-adv-x="1275" d="M1141 1456q27 0 47.5 -5.5t23.5 -12.5q2 -4 2 -23q0 -25 -4 -61q-3 -26 -13 -76t-13 -66q-6 -32 -17 -98.5t-18 -103.5q-5 -27 -16 -80t-18 -93t-11 -75q-6 -56 -12.5 -187.5t-16.5 -201.5q-11 -83 -39 -201q-26 -115 -37 -141q-8 -18 -30.5 -22.5t-61.5 -4.5 q-13 0 -37.5 5t-31.5 11q-27 52 -39 103q-6 24 -19 67.5t-22 79.5t-13 70l-28 260q-13 107 -37 244q-4 26 -19 66t-20 40q-3 0 -12 -33t-21 -81.5t-16 -61.5q-7 -24 -14.5 -122.5t-10.5 -116.5q-4 -30 -41 -178t-55 -308q-4 -41 -141 -41q-23 0 -43 84q-17 72 -51.5 199 t-49.5 186q-39 145 -59 436q-5 66 -25.5 189.5t-25.5 165.5q-1 7 -5 42.5t-7 70t-3 51.5q0 20 89 20q24 0 40 -12q6 -4 14.5 -50.5t10.5 -74.5q4 -53 29.5 -187t25.5 -206q0 -130 45 -359q51 -280 58 -280q4 0 15.5 55.5t25.5 129.5t14 75q13 55 27.5 170t21.5 141 q2 7 15.5 59t27 95.5t31.5 89.5q4 7 36 13.5t54 6.5q82 0 98 -14q10 -8 60 -178q3 -12 6.5 -33t8.5 -56.5t11 -66.5q11 -55 28.5 -191t31 -237.5t18.5 -101.5q7 0 12 14q14 54 25 156q6 60 15 209.5t14 193.5q17 148 69 393q5 24 16.5 104t22.5 122q4 16 19.5 20t44.5 4z " />
<glyph unicode="X" horiz-adv-x="866" d="M731 1458q20 0 42 -6.5t22 -19.5q0 -50 -13 -86q-13 -30 -46 -82t-38 -62q-8 -15 -48 -113t-64 -145q-41 -77 -62 -129q-22 -44 -22 -59q0 -27 92 -252q3 -7 30.5 -83.5t49.5 -115.5q8 -13 35 -72t49 -86q12 -14 34.5 -60.5t22.5 -59.5q0 -31 -80 -31q-43 0 -57 16 q-20 24 -37.5 51t-27 44t-27 51.5t-25.5 50.5q-51 106 -55 115l-74 188q-1 3 -3 8.5t-3.5 9t-4 7.5t-5.5 6t-6 2q-5 0 -33 -55.5t-43 -94.5q-43 -122 -62 -205q-11 -39 -26 -77q-36 -85 -66 -115q-6 -6 -71 -6q-15 0 -33.5 7t-18.5 17q0 37 33 117q36 79 37 84q6 18 18.5 67 t26 93t27.5 78q16 38 59 123t61 131q11 27 11 39q0 3 -4.5 12.5t-13 27t-15.5 35.5q-28 73 -74 208.5t-53 150.5q-9 21 -34.5 63.5t-33.5 57.5q-14 26 -32.5 72t-18.5 57t18.5 18.5t39.5 7.5q67 0 77 -18q107 -191 109 -195q16 -32 61 -172q51 -139 54 -139t7.5 8.5t11 22 t11.5 20.5q31 50 69 146t60 137q22 34 93 166q3 6 7.5 10.5t8.5 6.5t12 3.5t12 2t14.5 1t14.5 0.5z" />
<glyph unicode="Y" horiz-adv-x="763" d="M692 1462q62 0 62 -24q0 -13 -8.5 -59t-16.5 -72q-13 -49 -76 -197q-28 -68 -63 -197q-11 -35 -29 -83.5t-30.5 -80t-12.5 -36.5l-6 -172q-2 -27 -12.5 -100t-10.5 -99q0 -14 4.5 -43.5t4.5 -36.5q0 -34 -2 -104t-2 -78q0 -61 -9 -68q-7 -5 -27 -10.5t-36 -5.5 q-38 0 -66 14q-3 2 -5.5 7t-3.5 14t-1.5 17.5t-1 20.5t-0.5 19q0 32 5 85.5t5 84.5q0 8 -3 40t-3 48q0 91 6 158q1 7 10 79.5t11 129.5q-4 18 -34 65.5t-71.5 108t-56.5 86.5q-63 106 -127 270q-6 18 -26.5 58t-30.5 53q-19 27 -19 78q0 11 25 19.5t53 8.5q35 0 48 -8.5 t16 -28.5q2 -11 18 -42t37.5 -71t30.5 -61q42 -108 75 -172q17 -35 44 -78t48 -70.5t25 -27.5t10 17t14 43.5t13 39.5q5 11 21.5 70.5t35.5 104.5q56 131 90 254q8 32 78 32z" />
<glyph unicode="Z" horiz-adv-x="811" d="M588 1456q160 0 166 -29q4 -12 4 -32q0 -30 -6 -54q-37 -113 -78 -176q-19 -30 -57 -93t-54 -89q-15 -26 -33 -67t-29 -72.5t-9 -34.5q5 -8 67 -8q8 0 34.5 1t47 1t27.5 -2q18 -5 18 -66q0 -48 -16 -55q-11 -8 -56.5 -14.5t-89.5 -6.5q-21 0 -47 2.5t-40.5 4.5t-16.5 0 q-10 -10 -29 -72q-21 -60 -49 -159.5t-29 -102.5q-6 -20 -24 -67.5t-28.5 -80.5t-10.5 -45q10 -3 33 -0.5t78.5 7t91.5 4.5q21 0 67 -7.5t74 -7.5q116 0 125 -2q2 -1 12.5 -2.5t16 -3.5t11 -10.5t5.5 -22.5q0 -92 -23 -92q-3 0 -82 -5t-110 -5q-20 0 -60.5 10t-62.5 10 q-36 0 -113 -8t-114 -8q-5 0 -34 -1t-44 -1q-26 0 -44 12.5t-18 26.5q0 22 27 106q3 8 45 121t49 137q3 10 25 82t39 128.5t16 60.5q-3 8 -90 8q-4 0 -19.5 -2t-25 -2.5t-16.5 2.5q-15 11 -15 45q0 53 8 69q3 6 7.5 10t12 6.5t13 4t17 3.5t16.5 3q16 3 88.5 2.5t73.5 1.5 q4 2 23 43.5t42 94.5t29 65q42 89 106 182q54 82 54 105q0 8 -23 8q-18 0 -65 -3.5t-58 -4.5q-151 -14 -170 -15q-23 0 -90 6.5t-88 6.5q-10 0 -21.5 28t-11.5 45q0 35 10 47.5t44 12.5q26 0 86.5 -2t76.5 -2q51 0 156.5 10t157.5 10z" />
<glyph unicode="[" horiz-adv-x="620" d="M377 1606q17 0 52 -3.5t52 -3.5q67 0 82 -10q1 0 4 -2.5t4 -3t4 -3t4 -4.5t3.5 -5t3.5 -6.5t2 -8t1.5 -10t0.5 -12.5q0 -35 -10 -55q-10 -21 -99 -21q-22 0 -44.5 1t-37 2t-16.5 1q-37 0 -57 -10q-5 -12 -5 -23.5t4 -45t5 -46.5q10 -107 10 -151q0 -120 -10 -350 q-1 -58 0.5 -152.5t1.5 -130.5q0 -38 -8.5 -133.5t-8.5 -161.5q-1 -11 2 -88.5t2 -116.5q-1 -19 -5.5 -96.5t-4.5 -108.5q0 -8 6 -21.5t13 -14.5q4 -1 18.5 1t37.5 4.5t42 2.5q112 0 135 -17q10 -8 15.5 -36t5.5 -48q0 -27 -11 -37t-34 -10q-20 0 -69 2t-56 2 q-14 0 -63.5 -5.5t-92.5 -10t-47 -2.5q-9 4 -27 55q-18 45 -18 92q0 26 7 124t7 126q1 39 -1 92t-4.5 94t-2.5 46q0 50 9 146.5t9 121.5q0 27 -1.5 111.5t0 144t6.5 119.5q4 53 4 237q0 35 -9.5 116t-9.5 116q0 78 6 147q4 41 45 47q117 13 148 13z" />
<glyph unicode="\" horiz-adv-x="692" d="M67 1599q22 11 69 5t53 -17q12 -23 25 -82.5t16 -90.5q6 -45 40 -180q9 -25 79 -290q44 -164 51 -186q11 -34 51 -134.5t55 -161.5q10 -40 22 -117.5t16 -98.5q28 -161 58 -257q7 -19 23.5 -136t14.5 -129q-3 -18 -50 -41q-14 -10 -39 -8.5t-34 18.5q-3 6 -24.5 128.5 t-28.5 142.5q-16 47 -38 162t-29 143q-6 24 -15.5 81t-17.5 87q-12 45 -92 269q-39 107 -73 258l-75 269q-8 30 -20 89t-18 83l-30 135q-10 47 11 59z" />
<glyph unicode="]" horiz-adv-x="608" d="M383 1593q9 -4 27 -55q16 -39 18 -92q0 -53 6 -146q10 -107 10 -131q0 -52 -4.5 -156t-5.5 -139q-3 -28 -0.5 -141t2.5 -141q0 -61 -12 -131q-4 -36 -6 -104.5t-6 -102.5q-4 -53 -4 -162q0 -73 12 -160q12 -95 12 -180q0 -47 -35 -59q-1 0 -8 -2.5t-11 -4t-14 -3.5 t-22 -3.5t-29 -3t-41 -2t-53 -0.5q-17 0 -48 3.5t-48 3.5q-47 0 -62 10q-10 6 -13 9t-8 15t-5 31q0 35 10 55q11 21 78 21q24 0 51 -2.5t43 -1.5q53 3 66 10q13 6 -9 115q-10 50 -10 131q0 46 5 137t5 137q0 27 9.5 121.5t9.5 124.5q0 18 -1 53t-1 53q-4 161 6 269 q4 53 4 182q0 126 -18 252q-9 35 -19 37q-4 1 -18.5 -1t-37.5 -4.5t-42 -2.5q-94 0 -115 16q-20 15 -20 84q0 27 11 37t34 10q20 0 58.5 -2t45.5 -2q14 0 63.5 5.5t92.5 10t47 2.5z" />
<glyph unicode="^" horiz-adv-x="813" d="M453 1462q18 0 34 -8q13 -7 39 -82q18 -52 46 -118t34 -87q9 -29 22.5 -91.5t22.5 -90.5l78 -233q33 -106 33 -166q0 -19 -4 -23q-7 -7 -38.5 -12.5t-53.5 -5.5q-11 0 -23 8t-16 14q-2 3 -3 11.5t-2.5 20t-3.5 17.5q-10 48 -51 164.5t-45 132.5q-12 40 -30.5 121 t-24.5 105q-9 28 -18.5 52t-16.5 37t-10 13q-2 0 -64 -133q-44 -95 -84 -207q-3 -10 -17.5 -51t-20.5 -62q-5 -17 -10 -36t-10.5 -41.5t-8.5 -36.5q-16 -84 -27 -111q-2 -5 -12.5 -11.5t-20.5 -6.5q-80 0 -90 10q-6 6 -6 20q0 17 21 138q13 60 43 159q53 165 143 357 q58 129 92 186q6 10 17.5 23t17.5 16q16 8 68 8z" />
<glyph unicode="_" horiz-adv-x="1058" d="M1024 -4q19 0 27 -26.5t8 -55.5q0 -16 -3.5 -27t-10.5 -14.5t-11 -4.5t-10 -1q-15 0 -83 -15.5t-99 -15.5q-40 0 -120 9.5t-122 9.5q-18 0 -53 -1t-53 -1q-161 -4 -269 6q-106 8 -190 8q-16 0 -25.5 30.5t-9.5 51.5q0 28 7 37.5t28 9.5q54 0 284 -10q58 -1 152.5 0.5 t130.5 1.5q55 0 131 -13q33 -4 103 -4q34 0 94 12.5t94 12.5z" />
<glyph unicode="`" horiz-adv-x="358" d="M145 1589q13 0 29 -26q15 -26 41.5 -63.5t32.5 -47.5q46 -83 51 -96q8 -20 8 -37q0 -9 -19 -29t-32 -26q-3 -2 -10 -6.5t-12.5 -6.5t-12.5 -2q-10 0 -24.5 19.5t-20.5 42.5q-5 18 -22 39t-21 30q-8 16 -57 93q-25 42 -25 67q0 13 18.5 22.5t32.5 12.5q1 0 14 7t29 7z" />
<glyph unicode="a" horiz-adv-x="827" d="M643 1171q26 0 40.5 -27t16.5 -59q5 -45 5 -65q0 -47 -11.5 -131t-11.5 -131q0 -18 6 -98t6 -101t-2 -52.5t-2 -43.5q0 -30 2.5 -54.5t3.5 -48.5q4 -110 4 -155q0 -20 6 -50.5t11 -33.5q4 -3 31 -7.5t30 -7.5q8 -8 8 -55q0 -41 -24 -55q-20 -10 -80 -10q-30 0 -47.5 6 t-23.5 12t-15 21q-2 4 -8 14t-10 16t-7 6q-5 0 -22.5 -15t-40.5 -33.5t-39 -24.5q-43 -15 -80 -15q-79 0 -153.5 43t-102.5 105q-20 39 -38.5 101t-22.5 112q-11 121 -11 209q0 127 5 215q0 81 43 188q43 102 151 139l31.5 10.5t31 10.5t26 7t26.5 3q41 0 78 -12t59.5 -24.5 t28.5 -12.5q4 0 6 5.5t2 11.5v6q1 4 1.5 19.5t2 27t4.5 14.5q5 4 42 12t44 8zM383 967q-28 0 -63.5 -12t-49.5 -33q-19 -22 -31 -59t-15 -57t-6 -76.5t-3 -61.5q-6 -52 -6 -101q0 -73 12 -213q2 -22 20.5 -86.5t28.5 -77.5q15 -25 52 -44t69 -19q35 0 79.5 37.5t66.5 68.5 q3 7 5 17t3.5 24t2.5 26.5t1.5 32.5t1 33.5t0.5 38.5v38v41v40q0 34 -12 115q-7 51 -7 90q0 21 9 109q0 44 -11 55q-32 28 -73.5 51t-73.5 23z" />
<glyph unicode="b" horiz-adv-x="804" d="M205 1456q19 0 41 -11.5t22 -25.5q0 -57 4 -151q7 -164 7 -178q0 -27 8 -27q4 0 28 14.5t61 28.5t73 14q56 0 107.5 -25t84.5 -71q33 -44 49 -100t31 -158q11 -40 16 -77.5t5.5 -60t0.5 -77.5q0 -34 -4 -100q-4 -177 -65 -310q-32 -66 -100 -115t-128 -49q-64 0 -120 23 q-26 11 -45 26.5t-26.5 25t-8.5 9.5q-2 0 -6.5 -13.5l-9.5 -28.5t-7 -17q-9 -14 -47 -14q-47 0 -59 6q-7 3 -13 17.5t-6 31.5q0 8 2.5 30.5t6.5 59t6 60.5q5 78 22 251q0 41 -8 131q-8 94 -8 146q0 93 6 178q6 159 6 168q0 53 -2 141t-4 155t-2 71q0 11 27 16.5t55 5.5z M436 969q-10 0 -36 -10.5t-47 -21.5l-21 -11q-18 -7 -40 -25.5t-22 -23.5q-4 -110 -4 -164q0 -21 2.5 -59.5t3.5 -55.5q1 -20 7 -70t6 -73q0 -40 -7.5 -109t-7.5 -115q0 -10 36.5 -41.5t58.5 -42.5q28 -14 55 -14q44 0 89 44.5t62 111.5q25 113 25 323q0 10 -2.5 29t-7 46.5 t-6.5 47.5q-3 15 -7 42.5t-7 45t-7 27.5q-25 69 -50.5 94t-72.5 25z" />
<glyph unicode="c" horiz-adv-x="698" d="M375 1139q139 0 215 -107q57 -86 57 -125q0 -13 -47 -41q-40 -24 -41 -24q-8 0 -25.5 15.5t-25.5 33.5q-29 56 -61 79t-78 23q-71 0 -93 -49q-67 -128 -67 -205q0 -26 8 -132.5t8 -160.5q0 -152 11 -204q11 -57 37 -88t87 -31q28 0 82 29q44 23 54 47q4 7 20 80 q11 45 29 45q33 0 69 -9q12 -2 27.5 -11.5t15.5 -22.5q0 -17 -9.5 -64t-16.5 -65q-12 -27 -50 -74.5t-79 -67.5q-75 -37 -146 -37q-74 0 -128 24t-83.5 64.5t-44 82t-18.5 89.5q-6 67 -6 148q0 15 -1 41t-1 39q0 49 -6.5 159t-6.5 121q0 74 35 176t97 164q58 58 182 58z" />
<glyph unicode="d" horiz-adv-x="811" d="M635 1485q40 0 48.5 -9.5t8.5 -58.5q0 -176 -10 -241q-10 -76 -10 -234q0 -123 20 -266q4 -27 12.5 -106.5t8.5 -100.5q0 -60 -1.5 -160.5t-3 -177t-1.5 -78.5q0 -32 -15 -47q-12 -12 -43 -12q-4 0 -24 -4t-31 -4t-23 18q-2 3 -4 19.5t-3.5 31.5t-2.5 15q-6 0 -15.5 -9.5 t-21 -23.5t-18.5 -19q-64 -47 -139 -47q-131 0 -193 66q-32 32 -72 184q-41 157 -41 277q0 253 35 399q16 74 109 172q33 34 63 47.5t84 13.5q26 0 115 -24q13 -3 31 -13t22 -10q3 0 5 20.5t4.5 54t5.5 52.5q8 49 8 211q0 8 6 25.5t12 23.5q15 15 74 15zM338 975 q-33 0 -62 -44.5t-40 -84.5q-7 -26 -17 -152.5t-10 -193.5v-44.5t2 -33.5t3.5 -28.5t6.5 -44.5t10 -66q16 -87 45 -129q26 -33 82 -33q33 0 59.5 12t33.5 19t22 24l15.5 15.5l19 19t18 19t17.5 21t11 19t5 17.5v157q0 68 -12 179q-17 149 -25 270q-14 30 -71 56t-113 26z " />
<glyph unicode="e" horiz-adv-x="737" d="M381 1135q122 0 205 -95q51 -60 70.5 -119.5t19.5 -166.5v-74q0 -23 -9 -74.5t-20 -64.5q-20 -25 -115 -25q-14 0 -139 11.5t-139 11.5q-35 0 -35 -15q0 -65 2 -92q1 -4 5.5 -36.5t8.5 -61.5t10 -60.5t11 -42.5q11 -31 54 -69.5t85 -38.5q39 0 54.5 10t42.5 45 q14 19 18.5 39t4 36t1.5 21q7 19 49 19q28 0 64 -8q19 -4 24.5 -22t5.5 -58q0 -16 -13.5 -49t-37.5 -62q-35 -43 -49.5 -58t-40 -32t-53.5 -20.5t-76 -3.5q-41 0 -84 12q-50 20 -96 62t-70 83q-10 17 -16.5 38t-9 33.5t-8 45t-7.5 45.5q-37 177 -37 348q0 55 17.5 164 t32.5 147q30 67 96 117q76 60 174 60zM377 989q-37 0 -77.5 -29t-59.5 -67q-9 -20 -19 -75t-10 -93q0 -17 6 -23q2 -2 9 -3t21.5 -3t26.5 -4q143 -26 177 -26q14 0 40.5 5t32.5 9q11 8 11 53q0 92 -17 144q-9 32 -22.5 50.5t-40.5 35.5q-44 26 -78 26z" />
<glyph unicode="f" horiz-adv-x="563" d="M334 1460q75 0 110 -26q41 -31 70 -75.5t29 -60.5q0 -36 -31 -49q-19 -8 -72 -8q-12 0 -41 43q-28 35 -57 35q-19 0 -25 -12q-15 -30 -12 -93q6 -110 8 -112q8 -8 76 -8l98 2q8 0 11.5 -1t6.5 -9t3 -25q0 -62 -6 -86q-3 -7 -24.5 -16.5t-41.5 -10.5q-16 -2 -51 -2 q-18 0 -38.5 2t-27.5 2q-9 0 -10.5 -2t-1.5 -10q0 -20 2 -57t2 -62q0 -22 5.5 -68t5.5 -71q0 -96 -9.5 -228t-9.5 -169q0 -19 2 -68t2 -59q0 -120 -14 -136q-9 -9 -40 -15.5t-48 -6.5q-30 0 -37.5 8.5t-7.5 30.5q0 1 0.5 20.5t1 46t0.5 46.5q0 7 -4 56.5t-4 61.5 q0 22 11 141.5t11 139.5v110q0 13 -3 41t-3 43q0 41 -4 118.5t-8 80.5l-35 6q-20 0 -50 4.5t-36 10.5q-17 17 -17 98q0 8 0.5 13.5t2.5 9t3 4.5t5.5 3t5.5 3q9 6 45 6q70 0 80 10q2 2 2.5 29.5t-0.5 54.5v27q0 100 35 159q21 39 35 51q34 29 100 29z" />
<glyph unicode="g" horiz-adv-x="804" d="M592 1153q20 0 54 -15t38 -28q5 -14 14 -172.5t9 -239.5q0 -8 -11 -143q0 -25 2 -81t2 -89q0 -100 -10 -315q-4 -93 -32 -210t-64 -147q-109 -92 -254 -92q-34 0 -69 10.5t-54.5 23.5t-19.5 21q0 29 8 43q2 3 8.5 27t15.5 29q12 4 29 4q5 0 32.5 -5t33.5 -5q47 0 92.5 12 t66.5 33q18 18 38 79.5t20 100.5l6 65q-13 -7 -47 -22q-84 -41 -158 -41q-72 0 -117 35q-77 61 -116 166q-18 49 -29.5 106t-15 87.5t-3.5 41.5q0 8 6 62t7 77q0 62 1.5 103.5t8.5 102.5t23.5 113t42.5 93q29 44 108 84q27 17 65.5 26t59.5 9q74 0 160 -39q4 4 4 39 q0 39 2 43q8 8 43 8zM383 956q-26 0 -63.5 -21t-55.5 -48q-45 -120 -45 -314q0 -11 -6 -66t-6 -67q0 -24 15 -113.5t34 -119.5q34 -57 106 -57q40 0 107 39.5t78 56.5q6 12 11 87t5 136q0 16 -4 49t-4 53q3 177 6 217q0 90 -8 101q-14 18 -47 33q-85 34 -123 34z" />
<glyph unicode="h" horiz-adv-x="823" d="M152 1475q72 0 79 -23q6 -31 20.5 -151.5t14.5 -149.5q0 -6 -1.5 -33t-1.5 -48t3 -26q2 0 43 19t100.5 38t104.5 19q54 0 100 -38.5t68 -102.5q18 -58 29.5 -147.5t11.5 -133.5q0 -16 5 -60t5 -77q0 -58 -18 -229q0 -27 2 -87t2 -95q0 -113 -17 -136q-12 -18 -36 -18 q-62 0 -72 8q-7 4 -9 6t-6.5 7.5t-6 13t-1.5 18.5q0 5 2 34t2 44q0 33 -2 99t-2 102q0 50 7 129q0 6 4 43t4 55q0 23 -4 88.5t-4 116.5q0 52 -29 147q-14 44 -30 54t-60 10q-35 0 -118 -46.5t-83 -64.5q0 -19 7 -119t7 -127q0 -62 -5 -193.5t-11 -178.5q-12 -109 -12 -222 q0 -11 -10 -19.5t-27 -8.5q-24 0 -78 8q-12 1 -20.5 9t-8.5 14q0 38 5 111.5t10 103.5q10 64 10 368q0 25 -7 98t-7 101q0 16 5 144t5 169q0 40 -11.5 174t-11.5 158q0 8 18 16.5t36 8.5z" />
<glyph unicode="i" horiz-adv-x="358" d="M169 1446q56 0 74 -23t18 -55q0 -95 -18 -106q-27 -17 -70 -17q-32 0 -55 23q-17 17 -17 53l-2 51q0 32 13 49q19 25 57 25zM152 1100q32 0 49 -3t22 -5.5t17 -12.5q20 -16 20 -92q0 -82 -8 -184q-10 -85 -10 -139q0 -34 7 -105t7 -110q0 -96 -10 -209q-4 -68 -4 -209 q0 -21 -1 -29t-7.5 -14t-20.5 -6q-80 0 -92 8l-3 3q-4 3 -7 6t-6 7.5t-5 9.5t-2 11q0 83 4 227q1 24 5 98t4 117q0 24 -5.5 74t-5.5 78q0 46 6 130.5t7 137.5q0 41 -4.5 96t-4.5 76v10v8.5t0.5 6t2.5 6t5.5 4t9 3t13 1t17.5 0.5z" />
<glyph unicode="j" horiz-adv-x="382" d="M181 1446q56 0 74 -23t18 -55q0 -95 -18 -106q-27 -17 -70 -17q-32 0 -55 23q-16 16 -16 53l-2 51q0 33 12 49q19 25 57 25zM199 1124q39 0 69 -24q17 -14 17 -144q0 -32 -5.5 -112.5t-5.5 -104.5t2.5 -87t2.5 -109q0 -36 -9.5 -154t-9.5 -188q0 -39 5 -121.5t5 -128.5 q0 -57 -15 -108t-34 -79q-49 -68 -86 -98q-22 -19 -57.5 -40t-48.5 -21q-24 0 -56 37l-9 9q-8 9 -11.5 16t-3.5 16q0 16 20 35.5t46.5 38t31.5 24.5q0 1 12 13.5t17.5 19t15 18.5t15 23.5t8.5 21.5q4 17 4.5 67t-1 133t-1.5 118q0 41 10 171t10 164q0 32 -6 97.5t-6 122.5 q0 11 8 108.5t8 102.5q0 27 -2 55.5t-4 45.5l-2 17q0 21 21 35q15 10 45 10z" />
<glyph unicode="k" horiz-adv-x="770" d="M702 129q48 -61 48 -104q0 -9 -41 -15q-10 -2 -29.5 -10t-30.5 -8q-14 0 -27.5 9.5t-20 17.5t-20 29.5t-16.5 25.5q-69 97 -133 254q-14 35 -63 114q-3 4 -35.5 67.5t-44.5 74.5q-17 -21 -21 -27q-4 -8 -10 -53.5t-6 -59.5q0 -23 5 -81.5t5 -88.5q0 -14 -4.5 -127 t-5.5 -120q-3 -21 -10.5 -28t-34.5 -7q-24 0 -64.5 9t-40.5 17q0 2 3 43t6.5 93.5t3.5 81.5q0 1 -3 68t-3 159q0 23 7 86t7 86q0 67 -2 129.5t-2 66.5q0 47 8 148.5t8 159.5q0 35 -2.5 80.5t-5.5 88t-4 54.5q0 11 -4 38.5t-4 33.5q0 34 88 34q42 0 47 -12q18 -46 18 -80 q0 -49 2 -78q9 -76 9 -168q0 -35 -8.5 -107t-8.5 -112q0 -109 8 -125q4 0 26.5 24.5t55.5 62.5t51 57q21 22 66.5 60.5t50.5 43.5q16 15 36 30.5t30.5 25.5t17.5 20q9 12 27 12q106 0 106 -32q0 -9 -23.5 -51t-51.5 -74q-32 -39 -92.5 -86.5t-77.5 -67.5q-72 -80 -74 -82 l-29 -30q15 -20 73.5 -124t59.5 -106q8 -14 43 -92t45 -96q41 -77 92 -152zM281 584l1 2z" />
<glyph unicode="l" horiz-adv-x="423" d="M170 1427q54 0 82 -12q24 -10 24 -33q0 -15 -2 -84.5t-2 -87.5q0 -10 8.5 -74.5t8.5 -76.5q0 -47 -5 -257t-5 -243q0 -50 8 -118.5t10 -104.5q8 -92 8 -246q0 -74 -10 -88q-6 -9 -38 -14.5t-48 -5.5q-25 0 -37 9.5t-12 22.5q0 16 -6.5 161t-6.5 161q0 32 -8 94t-8 94 q0 17 3 68t3 78q0 21 3 176t3 190q0 24 -12 93t-12 94q0 141 10 174q5 17 13 23.5t28 6.5z" />
<glyph unicode="m" horiz-adv-x="1232" d="M195 1155q35 0 45 -10q6 -8 13 -29t7 -35v-37q2 0 14 9t32.5 21.5t47.5 25t65 21.5t77 9q34 0 74 -27.5t69 -72.5q32 34 109 68q55 24 118 24q57 0 112 -19.5t79 -53.5q28 -37 61 -158q6 -21 15.5 -190t9.5 -234q0 -35 -5 -111.5t-5 -122.5q0 -21 2 -68t2 -71 q0 -40 -9 -74q-4 -7 -24 -14q-18 -6 -72 -6q-18 0 -30.5 5.5t-12.5 14.5q0 15 3 63t3 67q0 25 -3 76.5t-3 62.5q0 18 5 74.5t5 70.5q0 77 -8.5 243.5t-13.5 184.5q-30 115 -113 115q-53 0 -114.5 -44t-61.5 -77q0 -3 -3 -75t-3 -109q0 -290 20 -383q7 -35 7 -127 q0 -39 -1 -93.5t-1 -56.5q0 -4 -5.5 -8t-23.5 -8t-45 -4q-19 0 -55 18q-19 10 -19 33t2 79t2 87q0 66 -8 115q-18 92 -18 342q0 25 3 105t3 89q-22 125 -74 125q-34 0 -77.5 -17.5t-72.5 -41.5q-24 -21 -40.5 -52t-16.5 -57q0 -78 -9 -189t-9 -163q0 -99 6 -201 q1 -22 2.5 -62t2.5 -72.5t1 -61.5q0 -38 -10 -52t-60 -14q-15 0 -22.5 0.5t-20 3.5t-18.5 9t-11 17.5t-5 28.5v117q0 47 -5.5 147t-5.5 154q0 39 6 76q15 114 15 223q0 135 -2 205q0 18 -4 73.5t-4 63.5q0 19 28.5 27t57.5 8z" />
<glyph unicode="n" horiz-adv-x="800" d="M154 1130q72 0 86 -12q6 -4 8 -26.5t3 -42t3 -19.5q58 42 130.5 68t137.5 26q43 0 87.5 -28.5t68.5 -73.5q13 -23 23 -88t10 -127q0 -156 -6 -264q-1 -18 -9 -72.5t-8 -83.5q0 -54 5 -155.5t5 -106.5q0 -6 3.5 -43.5t3.5 -42.5q0 -18 -9 -27q-28 -22 -88 -22 q-14 0 -27.5 18t-17.5 33q-10 45 -10 102q0 91 -4 136q-1 12 -4.5 51.5t-3.5 60.5q0 49 12 162.5t12 159.5q0 196 -10 217q-9 19 -33.5 34t-50.5 15q-46 0 -114.5 -44.5t-75.5 -70.5q-9 -46 -9 -272q0 -40 -10.5 -115.5t-11.5 -109.5l-4 -119q-3 -30 -4 -80t-1 -86.5 t-1 -40.5q-4 -29 -21.5 -37t-50.5 -8q-47 0 -64 20q-6 21 -6 41q0 8 1 24t1 23v58q3 35 5.5 122.5t9.5 135.5q14 114 14 149q0 68 -4 210t-4 218q0 14 -5 57.5t-5 49.5q0 17 9 21.5t34 4.5z" />
<glyph unicode="o" horiz-adv-x="768" d="M352 1133q30 0 82.5 -8t79.5 -19q53 -24 92 -74t57.5 -102.5t26.5 -110.5q17 -143 17 -258q0 -173 -29 -323q-9 -43 -33.5 -101t-44.5 -82q-22 -27 -96.5 -54.5t-138.5 -27.5q-136 0 -224 133q-43 65 -61.5 241.5t-18.5 273.5q0 49 20 155.5t54 173.5q91 183 217 183z M360 987q-26 0 -49 -27.5t-51 -85.5q-28 -57 -42.5 -130t-14.5 -121q0 -82 14.5 -236.5t42.5 -191.5q61 -78 105 -78q27 0 75.5 16.5t63.5 40.5q9 16 22 68.5t17 81.5q2 11 7 42t7.5 51t5 57t2.5 77q0 119 -30 307q-10 60 -60 94.5t-115 34.5z" />
<glyph unicode="p" horiz-adv-x="798" d="M213 1165q39 0 49 -8q5 -3 9.5 -25t8.5 -41.5t7 -19.5q2 0 31.5 7.5t69.5 15.5t67 8q40 0 90 -19.5t80 -48.5q14 -14 25.5 -33t16.5 -33.5t13 -41t12 -37.5q28 -84 36.5 -168.5t8.5 -200.5q0 -253 -104 -428q-17 -30 -103 -88q-30 -18 -75 -18q-44 0 -93 20t-80 40 t-32 20q-8 0 -8 -158q0 -16 3 -70t3 -71q0 -123 -15 -129q-40 -17 -63 -17q-56 0 -64 23q-2 5 -2.5 42.5t-1 84.5t-2.5 67q-2 31 -2 80q0 105 15 336q1 17 9 120.5t9 164.5q0 26 -5 95t-5 93q0 50 6 162.5t6 161.5q0 96 17 102q36 12 63 12zM428 954q-96 0 -152 -43 q-14 -115 -14 -170q0 -32 7 -98.5t7 -105.5q0 -41 -6.5 -107t-7.5 -90q0 -4 -2 -24.5t-2 -30.5q0 -12 5.5 -23.5t17 -27.5t14.5 -21q21 -26 36 -41t42.5 -29t58.5 -14q32 0 45 16q6 8 19.5 24.5t20.5 25.5t15.5 24t14.5 29q23 58 36 132.5t13 133.5q0 171 -27 283 q-4 15 -9.5 45t-11 49.5t-13.5 28.5q-37 34 -107 34z" />
<glyph unicode="q" horiz-adv-x="804" d="M588 1155q22 0 70.5 -24t48.5 -35q0 -9 -10.5 -49t-12.5 -58q-2 -23 -2 -69q0 -27 4 -83t4 -85q0 -32 -2 -119.5t-2 -157.5q0 -84 -8 -127q-14 -85 -14 -194q0 -106 12 -201q14 -114 14 -203q0 -39 -4 -43q-14 -14 -53 -14q-60 0 -74 14q-20 20 -20 113q0 41 -11 118.5 t-12 114.5q-120 -76 -192 -76q-80 0 -134 62q-65 77 -100 192q-29 107 -29 191q0 14 5 72q11 118 14 266q8 257 149 336q49 28 109 28q46 0 92.5 -18t76.5 -36.5t36 -18.5q27 104 45 104zM350 981q-52 0 -82 -41q-53 -80 -53 -231q0 -19 1 -56t1 -55q0 -28 -5 -85t-5 -85 q0 -17 1.5 -36t3.5 -32.5t6.5 -34.5t7 -30t8.5 -33t8 -31q27 -106 96 -106q19 0 38.5 9t44.5 27.5t32 22.5l53 37q7 6 23 82.5t16 99.5q0 31 -2 86t-2 82q0 30 3.5 86.5t2.5 94.5q-4 62 -21 135q-3 11 -43.5 40.5t-70.5 41.5q-34 12 -62 12z" />
<glyph unicode="r" horiz-adv-x="538" d="M190 1149q17 0 27 -10q7 -6 13 -21.5t10.5 -28t7.5 -12.5q60 53 127 53q147 0 147 -32q0 -51 -12 -72q-10 -19 -17 -26t-20 -7q-12 0 -39 -1t-41 -1q-32 0 -53 -18q-60 -64 -66 -88t-6 -70q0 -20 2 -58.5t2 -56.5q0 -13 3.5 -40t3.5 -42q2 -108 -19 -268q-4 -74 -4 -219 q0 -31 -5 -72t-11 -51q-10 -12 -62 -12q-53 0 -67 20q-7 11 -7 39q0 29 5 74q3 41 8 246q1 31 9.5 94t8.5 98q0 21 -5 76t-5 82q0 25 1 75t1 74q0 51 -2 76l-5 48q-6 47 -11 73q0 2 -5.5 22t-5.5 29q0 18 11 21q18 6 81 6z" />
<glyph unicode="s" horiz-adv-x="688" d="M340 1133q84 0 147 -43q80 -56 107 -138q6 -16 15 -37t13.5 -32.5t4.5 -18.5q0 -26 -23 -39q-13 -8 -40.5 -16t-45.5 -8q-9 0 -26 29.5t-29 64.5q-18 45 -53 68.5t-78 23.5q-54 0 -92 -24q-17 -12 -29 -58.5t-12 -93.5q0 -33 17 -60.5t36 -42.5t53 -36q16 -10 65 -38.5 t72.5 -43.5t59 -43t61.5 -58q8 -9 14 -19t10 -21.5t6.5 -19t5.5 -22t5 -22.5q19 -78 19 -121q0 -72 -35 -135q-12 -21 -42.5 -51.5t-33.5 -34.5q-41 -48 -145 -63q-45 -5 -52 -5q-99 0 -182 74q-49 40 -74 88q-34 66 -34 107q0 23 37 41t71 18q9 0 14.5 -9t12.5 -31.5 t12 -33.5q10 -22 31 -47q54 -65 125 -65q82 0 108 49q5 9 16 23.5t17 25.5t8 23q4 24 4 34q0 52 -20 107q-18 49 -115 102q-39 22 -107 69t-96 75q-79 79 -86 147q-4 32 -4 51q0 53 19 116.5t41 100.5q21 33 95 63t132 30z" />
<glyph unicode="t" horiz-adv-x="571" d="M270 1436q15 0 23.5 -10t10.5 -18.5t3 -25.5q6 -69 6 -102q0 -24 -3 -75t-3 -75q0 -25 6 -34q11 0 46 2t47 2q62 0 77 -4q19 -5 25 -11q10 -10 10 -71q0 -58 -22 -58q-8 0 -51 2.5t-58 2.5q-73 0 -92 -11q3 -12 4 -35t1 -44t-0.5 -54.5t-0.5 -48.5q0 -40 6 -117.5 t6 -111.5q0 -28 -5 -100.5t-5 -104.5v-170q0 -10 5 -25.5t11 -15.5q48 0 68 18q7 6 20.5 20.5t23 23t13.5 8.5q12 0 47 -19t35 -43q0 -38 -35.5 -82.5t-74.5 -58.5q-15 -5 -62.5 -9t-72.5 -4q-52 0 -86 43q-13 15 -25 68t-12 98q0 170 10 365q1 29 -4 162v131q0 20 -4 52 t-4 52q-6 6 -54 7t-57 6q-11 7 -17 36.5t-6 49.5q0 7 11 40q5 15 43 15q4 0 24.5 -1.5t36.5 -1t23 4.5q0 20 5 63t5 64q0 13 -1 40t-1 40q0 70 4 90q11 35 100 35z" />
<glyph unicode="u" horiz-adv-x="770" d="M125 1116q29 0 59 -6q21 -4 38.5 -16t17.5 -21q0 -17 -7.5 -61t-7.5 -62q0 -15 6.5 -86t6.5 -100q0 -19 -6.5 -101.5t-6.5 -130.5q0 -66 6.5 -168t16.5 -155q10 -46 42.5 -70t67.5 -24q43 0 89 12t59 29q13 16 23 77.5t10 110.5q0 39 -1 115t-1 96q0 54 -7.5 165 t-7.5 167q0 22 4 68.5t4 58.5q0 51 5 63q14 33 77 33q27 0 48.5 -6.5t21.5 -18.5q0 -27 -8 -76.5t-8 -74.5q0 -133 12 -359q1 -19 2.5 -51.5t2.5 -60t1 -51.5q0 -140 -25 -248q-19 -78 -59 -121q-20 -23 -80.5 -46.5t-118.5 -23.5q-71 0 -133 15q-44 10 -69.5 31t-55.5 65 q-9 15 -16.5 34.5t-11 33.5t-7 42.5t-4 37l-2.5 42.5t-2 35q-14 187 -14 238q0 22 4 100.5t4 122.5q0 6 -2 30.5t-4 76.5t-2 127q0 37 13 74.5t26 37.5z" />
<glyph unicode="v" horiz-adv-x="776" d="M121 1118q44 0 58 -7t20 -32q3 -18 20 -68.5t21 -66.5q7 -28 15 -87t15 -87q4 -17 15.5 -64t18 -79t11.5 -64q5 -31 13.5 -92.5t13.5 -91.5q1 -11 6 -64t10.5 -86.5t10.5 -33.5q2 0 7 37t13.5 94t18.5 94q4 19 19.5 97.5t27.5 119.5l63 186q36 123 55 203q17 79 45 82 q72 8 93 8q20 0 20 -31q0 -70 -41 -206q-40 -128 -94 -277q-9 -26 -18.5 -69.5t-21 -105t-13.5 -69.5q-4 -22 -9.5 -67t-13.5 -81.5t-24 -78.5q-8 -24 -19.5 -51t-21 -48t-9.5 -22q-7 -12 -77 -12q-60 0 -76 8q-10 10 -26.5 47.5t-22.5 65.5q-19 76 -49 289q-28 177 -64 297 q-8 25 -15 57t-10.5 55t-9 62.5t-8.5 56.5q-1 4 -22 64.5t-21 84.5q0 15 4 19q12 14 72 14z" />
<glyph unicode="w" horiz-adv-x="1198" d="M96 1102q77 0 86 -23q15 -41 23 -102q5 -36 26 -121q13 -51 33 -235t23 -197q42 -225 49 -225q3 0 7.5 17.5t10.5 55t10 66t11 83t10 73.5q8 51 14.5 126t8.5 87q5 32 20.5 84t32.5 103l18 54q3 10 8.5 20t10 15.5t11 13.5t7.5 9q6 7 48 15.5t67 8.5q22 0 47 -9.5 t31 -21.5q12 -24 34 -137q6 -36 22.5 -163.5t25.5 -186.5q4 -27 9.5 -76.5t10 -85t10 -72t11 -56t10.5 -19.5t8.5 17.5t7 47.5t6.5 43q6 35 22.5 184.5t20.5 166.5l41 145q4 19 13 75.5t18 84.5q2 5 13 47t20.5 64t19.5 22q119 0 119 -25q0 -42 -23.5 -123.5t-25.5 -105.5 q-4 -36 -18.5 -94.5t-24.5 -83.5q-5 -12 -11 -62t-15.5 -128.5t-18.5 -135.5q-8 -49 -24 -123.5t-19 -91.5q-12 -70 -27 -104q-6 -13 -37.5 -21t-66.5 -8q-80 0 -90 22q-2 4 -17.5 39.5t-28.5 72t-18 65.5q-10 47 -23.5 204t-23.5 203q-6 23 -14 89t-15.5 116.5t-11.5 50.5 q-7 0 -17 -33.5t-22 -89.5t-14 -65q-5 -21 -11.5 -107.5t-11.5 -114.5q-2 -15 -12.5 -74.5t-17 -102.5t-11.5 -99q-4 -37 -23 -93.5t-30 -70.5q-12 -14 -113 -14q-36 0 -50.5 14t-26.5 49q-13 31 -48.5 160t-44.5 178q-5 27 -20.5 179.5t-26.5 211.5q-51 255 -51 287 q0 19 8.5 25t40.5 6z" />
<glyph unicode="x" horiz-adv-x="665" d="M508 1106q32 0 72.5 -5.5t40.5 -17.5q0 -10 -6 -31.5t-12.5 -39.5t-19.5 -51.5t-18 -47.5q-15 -46 -51.5 -124t-46.5 -103q-6 -16 -20 -44.5t-23.5 -49.5t-9.5 -29q0 -6 49 -123q21 -57 49 -118q15 -36 44 -116t40 -106q1 -2 5.5 -16.5t7.5 -26.5t3 -22q0 -17 -12 -29 q-7 -6 -42 -10t-60 -4q-16 0 -52 90q-44 131 -61 166q-6 14 -17.5 48.5t-21 56.5t-16.5 22q-5 0 -10 -10.5t-10.5 -27t-10.5 -24.5q-32 -50 -39 -84q-9 -36 -43 -122t-35 -93q-4 -22 -88 -22q-15 0 -23.5 1t-17 7.5t-8.5 19.5q0 43 14 74q0 1 18 51t42 113t39 100 q5 12 18 33t14 25q56 135 56 145t-10.5 37.5t-18.5 42.5q-12 26 -71 133t-78 170q-21 108 -21 127q0 14 10.5 18.5t36.5 6.5q64 0 82 -9q7 -4 10.5 -15t6 -29t4.5 -25q9 -39 23.5 -71.5t39 -74.5t33.5 -59q5 -10 13.5 -31.5t15 -36t10.5 -14.5q14 39 44 107t42 102 q11 35 37 92q31 74 53 74z" />
<glyph unicode="y" horiz-adv-x="823" d="M623 1090q30 0 66 -8t36 -23q0 -26 -5.5 -77.5t-6.5 -59.5q-2 -25 -2 -154q0 -64 4 -192t4 -191q0 -25 -4 -99.5t-4 -95.5q0 -26 1 -76t1 -75q0 -110 -26 -211.5t-54 -134.5q-26 -30 -86.5 -52t-128.5 -22q-121 0 -193 55q-22 19 -22 39q0 15 10 35q1 2 6.5 20t13 30 t17.5 12q8 0 28 -12t27 -15q57 -23 107 -23q87 0 112 27q17 18 31 91t14 128q0 56 -10 66q-2 0 -33.5 -24t-76 -48.5t-78.5 -24.5q-71 0 -142 39.5t-94 108.5q-26 71 -26 219q0 16 1 43.5t1 40.5q-1 42 -6 146.5t-5 160.5q0 18 -7 107t-7 121q0 89 12 114q6 15 115 15 q18 0 18 -164q0 -19 -1 -46.5t-1 -33.5q0 -22 8 -63.5t9 -61.5q2 -20 3 -42.5t1.5 -50t1.5 -42.5q2 -88 2 -277q0 -137 39 -170q24 -20 61 -20q13 0 50.5 16.5t54.5 30.5q4 4 30 25.5t45 39t23 25.5q7 10 12.5 112.5t5.5 180.5q0 38 -6 115.5t-6 115.5q0 17 1 36t2.5 42.5 t2.5 36.5q4 97 13 152q5 26 12 34.5t29 8.5z" />
<glyph unicode="z" horiz-adv-x="641" d="M137 1114q15 0 45 -9t43 -9q12 0 70 5t80 5q133 0 192 -10q33 -7 33 -23q0 -67 -22.5 -161t-55.5 -152q-44 -78 -215 -352q-35 -55 -58.5 -143t-23.5 -122q0 -4 37 -4q21 0 63.5 5.5t69.5 5.5q31 0 76 -9.5t64 -9.5q10 0 19.5 -7t12.5 -15q8 -20 8 -52q0 -28 -11.5 -48.5 t-26.5 -20.5q-29 0 -94 8t-76 8t-99 -9t-121 -9q-114 0 -114 43q0 28 39 135q12 33 29.5 100t38.5 123.5t53 108.5q4 6 83.5 138.5t108.5 176.5q47 78 47 141q0 4 -31.5 8.5t-46.5 4.5q-14 0 -64.5 -5.5t-68.5 -5.5t-73 8.5t-70 8.5q-8 0 -13.5 14t-5.5 33q0 14 4.5 36.5 t4.5 26.5q1 18 17 25.5t52 7.5z" />
<glyph unicode="{" horiz-adv-x="579" d="M475 1614q12 0 22.5 -24.5t10.5 -61.5q0 -15 -7 -30.5t-18 -16.5q-126 -16 -135 -27q-7 -8 -13.5 -48.5t-6.5 -66.5q0 -7 10 -104.5t10 -153.5q0 -69 -22 -219q-4 -26 -13 -51.5t-16.5 -40.5t-7.5 -16q0 -2 9 -14.5t21 -33t17 -40.5q16 -59 27.5 -141.5t11.5 -127.5 q0 -33 -7.5 -119t-7.5 -104l2 -215q0 -23 14.5 -68.5t35.5 -78.5q7 -11 53.5 -22t46.5 -21q0 -27 -5 -57.5t-13 -37.5q-12 -10 -70 -10q-10 0 -42 8.5t-44 14.5q-30 14 -53.5 47.5t-30.5 64.5q0 1 -18.5 61t-18.5 91q0 20 -0.5 70.5t-0.5 89t1 59.5q0 1 6 99.5t6 127.5 q0 38 -11 122t-21 118q-6 23 -50.5 56t-44.5 46q0 12 11.5 24t26.5 22.5t18 13.5q4 5 9 19.5t10.5 35.5t6.5 25q21 105 21 200q0 51 -6 142.5t-6 119.5q0 166 28 213q31 51 254 60z" />
<glyph unicode="|" horiz-adv-x="479" d="M264 1589q62 0 64 -16q0 -2 4 -28.5t4 -37.5q0 -45 -6.5 -127.5t-7.5 -109.5q-2 -52 -16.5 -193.5t-14.5 -222.5q0 -33 2 -113t2 -120l-2 -359q0 -14 5 -47.5t5 -46.5q0 -18 -2 -51.5t-2 -62.5t4 -56q3 -18 5 -78t3 -112.5t2 -55.5q2 -18 8.5 -40t6.5 -27q0 -9 -25.5 -19 t-50.5 -10q-52 0 -66 14q-12 12 -16 68q0 169 -10 264q-3 23 -3 48t1.5 60t1.5 58q0 17 -5 65.5t-5 73.5q-1 15 -4 146t-3 157q0 18 1 102t1 136q0 92 27 362q21 220 21 287q0 72 10 80q15 12 61 12z" />
<glyph unicode="}" horiz-adv-x="575" d="M207 1593q76 0 104 -14q38 -21 43 -29q5 -9 11 -39t6 -59q0 -42 1 -118.5t1 -123.5q0 -20 5 -69t5 -70q0 -7 -0.5 -37t0 -45.5t2.5 -40t6 -43.5q16 -54 27 -67q3 -4 9.5 -8.5t17 -12.5t18.5 -14q10 -20 10 -37q0 -33 -6 -39l-22 -17q-22 -16 -42 -35t-24 -32 q-17 -50 -17 -108q0 -45 3.5 -139t3.5 -142q0 -25 -10.5 -95t-10.5 -87q0 -18 -2 -96t-2 -97q0 -10 -1 -30.5t-1 -30.5q0 -28 -26 -63t-58 -50q-41 -21 -104 -35q-24 -6 -64 -6q-12 0 -12 12q0 90 6 111q2 6 18.5 12.5t40.5 14.5t35 14q19 23 19 53q0 102 4 148q4 23 24 229 q5 70 4 113.5t-4.5 103t-3.5 78.5q0 18 7 68.5t12 70.5t17 40.5t21 33t9 14.5q0 1 -7.5 14.5t-16.5 39.5t-13 55q-10 85 -10 184q0 21 -6.5 73t-6.5 73v231q0 4 -31.5 5.5t-61.5 0.5t-42 0q-10 1 -17 37.5t-7 58.5q0 37 32 37q3 0 42 2t65 2z" />
<glyph unicode="~" horiz-adv-x="913" d="M289 924q71 0 127 -39q44 -29 119 -101q51 -47 108 -47q17 0 31.5 17t21.5 37q11 55 11 79q0 10 21 19.5t42 9.5q54 0 68 -11t14 -46q0 -55 -13 -90.5t-38 -71.5q-63 -86 -152 -86q-63 0 -102 16q-32 13 -74.5 43.5t-73.5 61.5q-53 49 -80 60q-14 5 -26 5q-34 0 -60 -16 q-12 -4 -18 -23q-4 -11 -6.5 -33.5t-7.5 -35.5q-8 -19 -82 -19q-58 0 -58 27q0 35 13 92t41 84q32 32 79 50t95 18z" />
<glyph unicode="&#xa1;" horiz-adv-x="460" d="M227 946q-70 0 -84 21q-9 14 -16.5 38.5t-7.5 41.5q0 28 15.5 52.5t39.5 24.5q4 0 16.5 1t18.5 1q35 0 57 -14q25 -17 25 -76q0 -36 -17 -63t-47 -27zM213 -334q-47 0 -47 37q0 15 2.5 66t3.5 102q0 27 9 83.5t9 86.5q0 17 -1 53t-1 53q-3 152 7 269q4 53 4 162 q0 31 -6.5 81t-12.5 89.5t-6 42.5q0 21 29.5 33t64.5 12q31 0 40 -7t9 -24q0 -5 4 -36t5 -42q1 -13 8.5 -58.5t7.5 -72.5q0 -51 -4.5 -144t-5.5 -130q-3 -28 -0.5 -141.5t2.5 -141.5q0 -61 -12 -131q-5 -41 -5 -103q0 -15 -4 -42.5t-4 -38.5q0 -34 -16 -43q-24 -15 -80 -15z " />
<glyph unicode="&#xa2;" horiz-adv-x="698" d="M614 315q12 -2 27.5 -11.5t15.5 -22.5q0 -17 -9.5 -64t-16.5 -65q-12 -27 -50 -74.5t-79 -67.5q-36 -17 -62 -25q1 -11 6.5 -46t8 -61.5t2.5 -53.5q0 -23 -38 -31t-77 -8q-29 0 -29 29q0 20 -16 164q-46 7 -82 27t-59.5 45t-39.5 57.5t-23.5 62.5t-10.5 63q-6 67 -6 148 q0 15 -1 41t-1 39q0 49 -6.5 159t-6.5 121q0 74 35 176t97 164q35 35 105 50q2 19 4.5 45.5t4.5 44t2 24.5q0 12 -3 36t-3 34q0 13 22.5 19.5t45.5 6.5q37 0 65 -14q17 -9 17 -90q0 -15 -5 -52t-7 -53q93 -21 149 -100q57 -86 57 -125q0 -13 -47 -41q-40 -24 -41 -24 q-8 0 -25.5 15.5t-25.5 33.5q-29 56 -61 79t-78 23q-71 0 -93 -49q-67 -128 -67 -205q0 -26 8 -132.5t8 -160.5q0 -152 11 -204q11 -57 37 -88t87 -31q28 0 82 29q44 23 54 47q4 7 20 80q11 45 29 45q33 0 69 -9z" />
<glyph unicode="&#xa3;" horiz-adv-x="794" d="M395 1313q-49 -17 -74.5 -59.5t-25.5 -96.5q0 -34 12 -104q2 -11 7 -29t17 -56t22 -72l92 2q10 0 58 -4t66 -4q41 0 52 -8.5t11 -40.5q0 -15 -6 -41t-14 -35q-12 -8 -55 -8q-24 0 -62 3t-55 3l-49 -1q1 -4 3 -12.5t3 -12.5q35 -136 35 -209q0 -10 -9.5 -60.5t-10.5 -64.5 q-8 -95 -27 -159q-16 -53 -16 -60q0 -4 7 -7.5t21.5 -9t18.5 -7.5q124 -50 135 -51q13 0 45 26q31 27 41 27q14 0 51 -21q12 -7 24.5 -21t12.5 -24q0 -40 -53 -82q-63 -47 -121 -47q-18 0 -70.5 17.5t-89.5 33.5q-62 27 -72 27q-5 0 -17.5 0.5t-17 0t-13.5 -2t-16.5 -4.5 t-16.5 -8q-4 -3 -20 -17.5t-30.5 -26.5t-19.5 -12q-22 0 -49 23q-13 11 -25 31.5t-12 33.5q0 19 35 54q69 55 110 125q35 77 45 176q1 9 8 44t7 42q0 65 -4 96q-4 29 -40 156l-70 -3q-54 0 -63 6q-8 5 -17 25t-9 36q0 18 1.5 28.5t14.5 22t38 11.5q20 0 66 6 q-52 180 -52 240q0 70 21 135.5t71.5 119.5t122.5 69q79 14 137 14q51 0 90 -16q44 -20 90 -59q18 -15 38.5 -47t20.5 -46q0 -30 -8 -38q-5 -5 -31.5 -17t-37.5 -12q-3 0 -11 -0.5t-11.5 0t-9 2.5t-9.5 6q-7 5 -20.5 22.5t-18.5 22.5q-27 26 -51.5 33.5t-63.5 7.5t-76 -12z " />
<glyph unicode="&#xa5;" d="M810 461q5 -5 11 -25.5t6 -36.5q0 -18 -1 -27.5t-10 -20.5t-26 -11q-7 0 -79 -8q-99 -11 -100 -11l-69 2q1 -9 4 -31.5t3 -29.5q0 -34 -2 -104t-2 -78q0 -62 -8 -68q-7 -5 -27.5 -10.5t-36.5 -5.5q-37 0 -65 14q-3 2 -5.5 7t-3.5 14.5t-2 17t-1.5 20.5t-0.5 19 q0 32 5.5 85t5.5 85q0 1 -5 61l-72 -4q-4 0 -38 1t-61 1q-28 0 -35.5 8t-7.5 39q0 15 4.5 41.5t9.5 34.5q8 8 37 8q18 0 48.5 -3t31.5 -3q8 0 21 1.5t32.5 3.5t30.5 3l4 54q2 29 11 98h-9q-28 0 -96 -7t-71 -7q-37 0 -43 6q-5 5 -11.5 25t-6.5 36q0 18 1 28t10 21t26 11 q8 0 80 8q90 10 99 10h22q-16 33 -79 126t-75 114q-63 106 -127 270q-6 18 -26.5 58t-30.5 53q-19 27 -19 78q0 11 25 19.5t53 8.5q35 0 48 -8.5t16 -28.5q2 -11 18 -42t37.5 -71t30.5 -61q39 -100 76 -172q17 -35 44 -78t47.5 -70.5t24.5 -27.5t10 17t14 43.5t13 39.5 q5 11 21.5 70.5t35.5 104.5q59 137 91 254q8 32 77 32q62 0 62 -24q0 -13 -8.5 -59t-16.5 -72q-15 -56 -75 -197q-31 -75 -64 -197q-8 -26 -66 -180q17 1 41.5 2.5t41 2.5t20.5 1t38.5 -1t61.5 -1q28 0 35 -8t7 -39q0 -56 -13 -76q-8 -8 -37 -8q-18 0 -48.5 3t-31.5 3 q-11 0 -33.5 -2t-50.5 -5t-41 -4l-2 -60q-4 -37 -11 -88h48q28 0 96 7t71 7q37 0 43 -6z" />
<glyph unicode="&#xa6;" horiz-adv-x="462" d="M262 1599q29 0 29 -28q0 -6 8.5 -106t9.5 -136q10 -363 10 -465q0 -96 -28 -96q-78 0 -98 8q-7 3 -12 18t-5 23q0 19 1 59.5t1 61.5q0 45 -6 184t-6 191q0 41 -11.5 122t-11.5 126q0 14 16 20t48 12q30 6 55 6zM207 604q22 0 58.5 -7t43.5 -13q10 -8 10 -52q0 -16 -5 -46 t-5 -42q0 -24 -2 -96t-2 -100q0 -37 -5 -107.5t-5 -91.5q0 -14 4 -43.5t4 -36.5q0 -34 -2 -104t-2 -78q0 -86 -8 -92q-7 -5 -27.5 -11t-36.5 -6q-35 0 -65 15q-5 3 -7.5 19t-3.5 47.5t-1 35.5q0 31 5 85t5 85q0 8 -3 40t-3 48q0 11 3 72t3 86q0 23 2 97t2 151q0 37 11.5 91 t31.5 54z" />
<glyph unicode="&#xa7;" horiz-adv-x="886" d="M459 1477q69 0 151 -35q56 -19 95 -72q10 -17 10 -29q0 -10 -45 -55q-28 -20 -43 -20q-9 1 -17.5 6t-22 17t-16.5 14q-40 30 -122 30q-40 0 -69.5 -14t-37.5 -31q-8 -16 -18.5 -64t-10.5 -77q0 -46 28.5 -77.5t80.5 -57.5q13 -6 71.5 -33.5t95 -48t68.5 -45.5 q94 -73 129 -207q19 -82 19 -127q0 -80 -12.5 -129.5t-59.5 -110.5q-9 -11 -26.5 -29.5t-28 -31t-10.5 -17.5t8.5 -22t20.5 -40t18 -36q18 -45 18 -110q0 -97 -12 -146q-11 -49 -59 -92t-111 -70q-68 -28 -121 -28q-65 0 -139 43q-94 57 -94 82q0 20 4 28q9 16 28 37t31 21 q35 0 88 -31q1 -1 12 -8t20.5 -13t21 -11t18.5 -5q86 0 137 51q31 27 35 84q0 71 -12 115q-3 9 -7 17.5t-11 18.5l-10.5 15t-13.5 17t-12 14q-20 20 -54.5 48t-45.5 32q-7 3 -25.5 7t-44 9.5t-41.5 9.5q-33 9 -101 64.5t-99 109.5q-33 72 -33 117q0 111 12 158q19 75 82 135 q11 11 34.5 30.5t38.5 33t15 16.5q0 6 -35 41q-35 40 -51 112q-8 44 -8 101q0 26 3 48.5t9.5 44t10.5 32.5t14.5 32.5t11.5 24.5q19 41 98.5 74t141.5 33zM416 858q-4 0 -30 -19t-54 -41t-31 -24q-48 -36 -62 -78t-14 -129q0 -18 25 -63q47 -73 117 -105q10 -4 55 -15.5 t55 -14.5q11 -4 43 -21.5t37 -17.5q7 0 26.5 25t32.5 48q46 67 46 97q0 35 -9 100q-7 48 -32 101t-62 83q-28 22 -80.5 48t-62.5 26z" />
<glyph unicode="&#xa8;" horiz-adv-x="587" d="M141 1458q8 0 13 -0.5t9.5 -2l6 -2t6.5 -4t8 -5.5q25 -17 25 -76q0 -36 -17 -63t-47 -27q-56 0 -69 20q-25 38 -25 80q0 28 15.5 53t39.5 25q4 0 16 1t19 1zM446 1452q62 0 74 -18q17 -26 17 -80q0 -30 -13.5 -56t-38.5 -26q-48 0 -77 16q-25 17 -25 76q0 35 16.5 61.5 t46.5 26.5z" />
<glyph unicode="&#xa9;" horiz-adv-x="1333" d="M694 1493q106 0 205 -60t170 -153q80 -113 135 -262q41 -110 41 -293q0 -106 -35 -297q-2 -10 -9 -49t-13 -64t-14 -43q-47 -136 -156 -213q-28 -21 -125 -55q-114 -43 -184 -43q-127 0 -255 36.5t-186 111.5q-100 130 -141 282q-39 157 -39 359q0 224 53 364 q72 200 213 289q70 44 162 67t178 23zM684 1354q-125 0 -242 -60q-92 -63 -157 -217q-54 -157 -54 -329q0 -154 39 -342q8 -41 34 -99t52 -88q62 -72 141.5 -96.5t196.5 -24.5q38 0 133 31q90 29 123 59q42 37 69 95.5t35 97.5t20 117l3 18q23 138 23 213q0 171 -60 311 q-24 59 -56.5 111t-76.5 99.5t-102 75.5t-121 28zM666 1202q25 0 75 -8q60 -12 99 -57q23 -23 48 -62t25 -59q0 -6 -5 -13t-14.5 -12.5t-16.5 -9.5t-16 -8l-9 -4q-8 -4 -41 -4q-5 0 -9.5 1t-8.5 4t-6.5 5.5t-6.5 8.5t-5.5 9t-6 11t-6.5 12q-12 22 -36.5 36.5t-51.5 14.5 q-38 0 -68 -12q-56 -23 -76 -101q-4 -16 -5 -29t0 -35.5t1 -31.5q0 -20 -7 -123t-7 -145q0 -66 35 -144q14 -34 61 -57q45 -18 78 -18q30 0 55 19t37 40l35 51q17 21 29 21q13 0 35 -13.5t32 -23.5q19 -19 19 -29q0 -8 -15 -45q-12 -33 -70.5 -85t-82.5 -62q-38 -15 -76 -15 q-60 0 -139 33q-83 36 -123 115q-53 103 -53 252q0 15 7 106.5t7 116.5q0 8 -1.5 31.5t0 43t7.5 46.5q28 137 133 194q62 35 144 35z" />
<glyph unicode="&#xaa;" horiz-adv-x="710" d="M453 1520q12 0 60 -8.5t48 -14.5q0 -27 -8 -78t-8 -78q0 -2 3 -19.5t7 -41t6 -37.5q6 -51 6 -147q0 -74 -2 -115l-4 -66q0 -8 8 -24.5t17 -20.5q38 -21 47 -36q6 -9 6 -17q0 -20 -29 -49q-21 -25 -35 -25q-7 0 -28 7q-31 12 -53 28q-5 5 -12.5 11.5t-11.5 10t-5 3.5 q-3 0 -11 -5t-22.5 -13.5t-30.5 -14.5q-46 -18 -98 -18q-64 0 -117 36q-23 14 -40.5 48.5t-23 57.5t-13.5 62q-17 73 -17 138q0 86 10.5 181t34.5 122q28 32 80 54t94 22q16 0 40.5 -7.5t42 -14.5t18.5 -7q3 0 16 39q12 37 25 37zM315 1343q-19 0 -42 -8t-27 -24 q-21 -103 -21 -195q0 -20 6 -56t7 -52q3 -37 12.5 -73t19.5 -42q15 -12 39 -12q27 0 70 26.5t49 38.5q8 16 8 94v136q0 29 -10 67q-4 18 -23 43q-11 14 -43 35.5t-45 21.5z" />
<glyph unicode="&#xab;" horiz-adv-x="849" d="M350 199q-31 0 -45 20l-22 35q-4 7 -15 19t-25.5 27.5t-21.5 23.5q-29 31 -55 79q-14 21 -78 136q-10 13 -20.5 35t-10.5 30q0 13 15.5 41.5t29.5 44.5q4 5 34 38t42 52q28 50 47 72q29 34 70 88q38 42 72 51q29 4 79 4q8 0 22.5 -8.5t14.5 -15.5q0 -12 -3.5 -21 t-10.5 -18t-8 -10q-48 -68 -105 -134q-14 -17 -33 -49.5t-20 -33.5q-7 -12 -28.5 -36.5t-38.5 -44t-17 -24.5q0 -8 27 -55q22 -36 28 -47q10 -28 37 -62q4 -8 47.5 -53t55.5 -64q7 -11 21 -30.5t20 -29.5t6 -15q0 -11 -44.5 -28t-66.5 -17zM670 199q-14 0 -44.5 37.5 t-52.5 78.5q-13 27 -86 119q-9 12 -27.5 33.5t-32 37.5t-15.5 19q-1 2 -11 16t-18 28t-8 20q0 20 18 43l66 94q8 13 31 39.5t34 42.5q8 12 25 44t29 50q5 6 13 17t14.5 19.5t12.5 14.5l7 7l8.5 8.5t9 8t11 8t11 5t11.5 2.5q30 0 59 -18q13 -8 27 -20.5t14 -16.5 q0 -14 -14 -31q-25 -25 -78 -102q-8 -10 -18.5 -31.5t-14.5 -28.5q-8 -12 -28 -36t-23 -27q-34 -45 -35 -47q-2 -3 -7 -10t-8 -12t-3 -9q0 -15 26 -41q1 -1 43 -55l43 -55q25 -31 31 -45q3 -6 49 -87q8 -13 22.5 -33t23 -33.5t8.5 -21.5q0 -3 -1 -5.5t-2.5 -4t-4 -3.5 t-4.5 -3t-5 -2t-4 -2q-24 -12 -102 -12z" />
<glyph unicode="&#xac;" horiz-adv-x="1169" d="M481 838q56 0 170.5 -15.5t130.5 -15.5q31 0 94 8t99 8q45 0 65 -10q13 -7 13 -86q0 -28 -3 -73.5t-3 -51.5q0 -22 5 -66t5 -67q0 -83 -15 -123q-4 -11 -34 -20t-50 -9q-33 0 -43 8t-10 35q0 24 4 72t4 72q0 22 -3 54t-3 60l1 10q0 9 0.5 18t-0.5 18t-3 10q-3 2 -23.5 0 t-48.5 -5t-42 -3q-55 0 -166 13t-140 13q-82 0 -194.5 -1t-124.5 -1q-10 0 -41 -3t-41 -3q-8 0 -15.5 23t-7.5 47q0 53 11 61q7 5 35.5 12t48.5 7q55 -2 325 4z" />
<glyph unicode="&#xad;" horiz-adv-x="788" d="M565 731q4 0 36.5 -1t58.5 -1t33.5 -8t7.5 -39q0 -14 -4 -41t-9 -35q-8 -8 -35 -8q-18 0 -47 3t-30 3q-14 0 -67.5 -6t-68.5 -6l-134 2q-26 0 -92 -7t-68 -7q-35 0 -41 6q-5 5 -11 25t-6 36q0 18 1 28t9.5 21t24.5 11q9 0 77 8q85 10 95 10l129 -2q13 0 74 4t67 4z" />
<glyph unicode="&#xae;" horiz-adv-x="1333" d="M639 1493q79 0 169 -29.5t167 -77.5q154 -98 217 -272q53 -140 53 -364q0 -87 -0.5 -130t-7.5 -116t-20 -127q-42 -155 -140 -283q-39 -51 -124 -82.5t-164.5 -41t-163.5 -9.5q-71 0 -185 43q-97 34 -125 55q-108 76 -155 213q-8 18 -14 41.5t-14 66t-9 48.5 q-35 191 -35 297q0 183 41 293q4 11 16 44.5t17.5 48.5t17.5 44.5t21.5 48t23 42t27.5 42.5q66 90 171.5 147.5t215.5 57.5zM649 1354q-85 0 -160.5 -43t-126.5 -115q-16 -21 -27.5 -46.5t-24 -61.5t-17.5 -48q-60 -140 -60 -311q0 -75 23 -213q22 -141 42 -197 q29 -81 85 -131q33 -30 123 -59q95 -31 133 -31q64 0 102 2.5t88 12t89 32.5t71 60q25 30 50.5 87.5t33.5 98.5q29 140 29 357q0 193 -53 329q-52 134 -162 201q-129 76 -238 76zM653 1198q33 0 77 -13.5t79 -37.5q41 -26 78 -72q53 -69 53 -153q0 -16 -4 -48 q-19 -126 -74 -161q-24 -16 -52 -27t-42 -16t-14 -8q0 -4 53 -91q55 -84 80 -147q3 -9 10 -28t12.5 -32.5t12.5 -25.5q14 -28 14 -47t-10 -27q-6 -5 -40.5 -12.5t-49.5 -7.5q-12 0 -36 33t-34 67q-25 82 -74 148l-41 69q-4 7 -15 29t-17 31.5t-11 9.5q-3 0 -4.5 -4t-2 -12 t-0.5 -15t0.5 -18t0.5 -17v-65q0 -28 -5 -86t-5 -86q0 -36 -12 -56q-7 -12 -39 -12q-88 0 -88 19q0 40 6 126.5t6 137.5q0 50 -4 157.5t-4 167.5q0 34 3.5 115.5t2.5 126.5q0 53 10 68q7 10 80 16q70 4 100 4zM606 1069q-6 -3 -6 -102q0 -15 1 -44t1 -44q0 -12 -1 -36.5 t-1.5 -36t0.5 -18.5q1 -2 51 -2q55 0 94 19q25 13 41.5 42.5t16.5 55.5q0 69 -37 111q-41 44 -96 53q-10 2 -35 2.5t-29 -0.5z" />
<glyph unicode="&#xaf;" horiz-adv-x="559" d="M313 1438q14 0 86 -8q28 -3 68.5 -23.5t40.5 -32.5q0 -19 -8 -40.5t-15 -26.5l-7 -7t-9.5 -7.5t-9.5 -2.5q-6 0 -60 11.5t-80 11.5q-35 0 -126 -9.5t-115 -9.5q-27 0 -27 82q0 18 19.5 27.5t54.5 17.5q60 13 188 17z" />
<glyph unicode="&#xb0;" horiz-adv-x="741" d="M336 1481q99 0 192 -49q51 -24 86 -77t35 -100q0 -68 -13 -106.5t-48 -73.5q-60 -62 -101 -82t-133 -20q-73 0 -136.5 26t-98.5 72q-27 40 -27 135q0 36 3 63t12 61t30 61t53 45q68 45 146 45zM350 1366q-67 0 -106 -29q-35 -27 -35 -135q0 -112 153 -112q46 0 99 34 q21 16 32.5 28t21 32.5t9.5 46.5q0 25 -13.5 55t-33.5 43q-72 37 -127 37z" />
<glyph unicode="&#xb1;" horiz-adv-x="876" d="M115 668q-33 6 -33 88q0 25 9 40t18 15q52 0 117.5 -6t68.5 -6l77 -1q-3 24 -3 44q0 24 6 126t6 119q0 10 11 17.5t24 7.5q24 0 64 -16t40 -34q0 -16 -2 -104.5t-2 -115.5q0 -20 5 -50q60 -6 91 -6q22 0 83 4.5t75 4.5q9 0 15 -40.5t6 -64.5t-17 -35q-18 -12 -160 -12 q-19 0 -82 7q2 -66 0 -103q0 -2 -2 -58.5t-6 -99.5t-10 -43q-35 0 -61 9q-2 1 -21 8t-29.5 15t-13.5 20q-2 18 -1.5 34t2 60.5t1.5 76.5q0 20 -4 88l-151 -2q-20 1 -60.5 6.5t-60.5 6.5zM774 233q9 0 15 -40t6 -64t-17 -35q-18 -12 -159 -12q-11 0 -83 7t-85 7 q-44 0 -92.5 -0.5t-81 -1t-37.5 -0.5q-20 1 -60.5 6t-60.5 6q-33 6 -33 88q0 25 9 40.5t18 15.5q52 0 117.5 -6t68.5 -6q34 0 85.5 -1.5t70.5 -1.5q23 0 78 -5t83 -5q22 0 83 4t75 4z" />
<glyph unicode="&#xb2;" horiz-adv-x="618" d="M309 1475q34 0 81.5 -22t76.5 -58q70 -86 70 -197q0 -28 -4 -53t-16 -48.5t-19.5 -39t-28.5 -38.5t-29 -32t-34 -33.5t-31 -29.5q-6 -5 -12.5 -15.5t-14 -24t-10.5 -18.5q-6 -9 -32.5 -39.5t-43.5 -58.5q-5 -9 -9.5 -30.5t-4.5 -28.5q0 -3 9 -3t23.5 1.5t20.5 1.5 q79 0 186 -29q54 -13 60 -25q10 -20 10 -37q0 -23 -8 -43q-4 -10 -14 -21t-19 -11q-26 0 -96 24q-51 15 -144 15q-23 0 -75.5 -14.5t-55.5 -14.5q-7 0 -18.5 9.5t-13.5 15.5q-11 44 -11 53q0 67 25 147q24 66 59 109l68 88q6 8 22 32t21 29q43 37 60.5 54t34 46t16.5 60 q0 38 -5 55q-27 97 -106 97q-52 0 -72 -25q-4 -5 -11 -14t-10 -12.5t-8 -9t-8.5 -8t-8 -4t-9.5 -1.5q-22 0 -50 27.5t-28 39.5q0 22 35 61t70 54q50 19 112 19z" />
<glyph unicode="&#xb3;" horiz-adv-x="589" d="M262 1464q75 0 129 -22q77 -33 107 -125q14 -41 14 -105q0 -26 -13 -52.5t-28 -43t-28 -29t-13 -14.5t22 -31t44 -75.5t22 -89.5q0 -136 -14 -181q-25 -84 -144 -123q-52 -18 -90 -18q-55 0 -80 14q-19 11 -49 36t-43 48q-16 29 -16 82q0 13 96 13q8 0 15 -5t11 -10 t10 -14.5t9 -13.5q15 -23 41 -23q77 0 107 41q7 8 10.5 21t5 30t1.5 30t-0.5 33.5t-0.5 28.5q0 26 -29 86q-17 30 -36 43q-6 4 -48 4q-5 0 -13 -0.5t-12 -0.5t-9 1.5t-9 6t-8 12.5q-14 22 -14 55q0 23 9.5 32.5t47.5 29.5q1 0 41 17t58 32t18 35q0 47 -13 74.5t-48 37.5 q-24 6 -58 6q-43 0 -65 -14q-27 -18 -43 -18q-9 0 -41.5 29.5t-32.5 39.5q0 20 20 37q62 53 160 53z" />
<glyph unicode="&#xb4;" horiz-adv-x="358" d="M213 1591q16 0 29 -7t14 -7q14 -3 32.5 -12.5t18.5 -22.5q0 -27 -24 -67q-4 -6 -17.5 -26t-23.5 -36t-17 -31q-4 -9 -21 -30t-22 -39q-6 -23 -20.5 -42.5t-24.5 -19.5q-7 0 -12.5 2t-12.5 6.5t-10 6.5q-13 6 -32 26t-19 29q0 17 8 37q3 8 52 96q6 10 32 47.5t41 63.5 q16 26 29 26z" />
<glyph unicode="&#xb6;" horiz-adv-x="1171" d="M985 1473q6 0 11.5 -7.5t9 -16t7.5 -20t5 -14.5q16 -39 18 -92q0 -11 6 -104q11 -118 11 -132q0 -51 -5 -143.5t-6 -130.5q-3 -28 -0.5 -141.5t2.5 -141.5q0 -61 -12 -131q-4 -39 -6.5 -108t-5.5 -98q-4 -35 -4 -203q0 -40 6 -95.5t6 -64.5q0 -54 -6 -84q-3 -13 -10 -20 q-11 -11 -56 -11q-64 0 -69 19q-4 14 -4 106q0 7 -5.5 55.5t-5.5 75.5q0 46 5.5 158t5.5 158q0 27 9 121t9 124q0 18 -1 54t-1 53q-4 160 6 268q4 53 4 162q0 85 -18 211q-9 35 -19 37q-4 1 -13.5 -1t-27 -4.5t-36.5 -2.5q-9 0 -30 1.5t-34 1.5t-16 -3q-10 -10 -10 -107 q0 -8 3 -40t3 -48q0 -91 -6 -158q-1 -8 -8 -64.5t-11 -110t-4 -113.5q0 -28 4 -66t4 -65q0 -5 -2 -108.5t-2 -158.5q0 -45 6 -147t6 -154q0 -42 11.5 -112.5t11.5 -114.5q0 -22 -64 -33q-30 -6 -55 -6q-29 0 -29 29q0 6 -8.5 95.5t-9.5 125.5q-1 41 -6.5 144.5t-5.5 185.5 q0 44 3 124.5t3 137.5q0 74 -12 90q-6 8 -105 8q-39 0 -115 9.5t-96 15.5q-21 7 -48 31t-40 51q-31 63 -31 208q0 125 19.5 259t58.5 157q82 46 234 64q130 18 237 18q30 0 76.5 -2t81.5 -2q17 0 89 10.5t87 10.5z" />
<glyph unicode="&#xb7;" horiz-adv-x="339" d="M180 715q28 0 40.5 -7.5t19.5 -23.5q18 -40 18 -70q0 -52 -17 -74t-65 -22q-51 0 -72.5 17t-21.5 73q0 28 10.5 58t34.5 39q27 10 53 10z" />
<glyph unicode="&#xb8;" horiz-adv-x="481" d="M303 -2q29 0 29 -10q0 -13 -11.5 -41t-21.5 -51t-8 -27q1 -2 24.5 -10.5t49.5 -21.5t34 -27q31 -53 31 -84q0 -59 -51 -107q-32 -31 -70.5 -40t-95.5 -9q-33 0 -97.5 33t-64.5 65q0 11 32 35.5t42 24.5q3 0 40 -21.5t60 -23.5q25 0 52.5 8.5t27.5 23.5q0 22 -24 38 t-50 22q-24 5 -50.5 19t-26.5 26q0 26 19.5 77.5t31.5 69.5q2 3 4.5 7.5t4 6.5t4 5t4.5 4.5t4.5 3t6 2t7.5 0.5q5 0 28.5 1t34.5 1z" />
<glyph unicode="&#xb9;" horiz-adv-x="575" d="M330 1466q67 0 67 -22q9 -47 6 -74q-12 -168 -12 -248q0 -17 -9 -115.5t-9 -125.5q0 -15 -1 -42.5t-1 -49t2 -39.5q5 -69 8 -70q4 -2 47 -2q28 0 36.5 -13.5t8.5 -58.5q0 -7 -5 -26.5t-9 -22.5q-9 -6 -72 -6h-113q-37 0 -57 4q-1 0 -14.5 2.5l-27 5t-25 7t-11.5 10.5 q0 25 4.5 63t8.5 45q6 2 18.5 1t31.5 -4t21 -3q5 0 11 5t6 7q2 4 2 26t-2 36q-2 18 -2 61q0 62 8 156l8 100l6 105q0 7 1.5 22t2.5 26t1 22.5t-1 17.5t-4 6q-4 0 -13.5 -6t-24 -16t-27.5 -17q-41 -23 -60 -23q-14 0 -33.5 36t-19.5 57q0 17 65 53q55 30 76 49q46 39 67 50 t40 11z" />
<glyph unicode="&#xba;" horiz-adv-x="686" d="M332 1483q81 0 133 -39q58 -42 78 -94q16 -41 33.5 -112t17.5 -120q0 -54 -10.5 -127t-20.5 -96q-32 -72 -90 -109.5t-164 -37.5q-76 0 -147 71q-37 36 -53.5 101.5t-16.5 130.5q0 93 6 157q7 79 25 131q23 66 81 105t128 39zM326 1358q-25 0 -48.5 -20t-31.5 -44 q-23 -70 -23 -268q0 -88 43 -133q18 -21 62 -21q56 0 80 21q44 41 51 127q6 44 6 88q0 43 -25 133q-11 43 -45 94q-11 16 -25.5 19.5t-43.5 3.5z" />
<glyph unicode="&#xbb;" horiz-adv-x="872" d="M180 985q14 0 43.5 -38t52.5 -79q12 -25 86 -118q9 -12 28 -33.5t32.5 -38t15.5 -19.5q1 -2 11 -15.5t18 -27.5t8 -20q0 -20 -18 -43l-66 -94q-8 -13 -31 -39.5t-34 -42.5q-8 -12 -25 -44t-29 -50q-4 -6 -12.5 -17.5t-15.5 -20t-13 -14.5q-1 -1 -6.5 -7t-8.5 -8.5t-9 -8 t-10.5 -8t-11 -4.5t-11.5 -2q-30 0 -59 18q-13 8 -27 20.5t-14 16.5q0 14 14 31q25 25 78 102q8 10 18.5 31.5t14.5 27.5q1 2 51 64q34 45 35 47q2 3 7 10t8 12t3 9q0 14 -27 41q-1 1 -43 55l-43 55q-22 28 -30 45q-6 14 -13.5 27t-18 30t-17.5 29q-8 13 -22.5 33t-23 33.5 t-8.5 21.5q0 10 21 21q24 12 102 12zM522 985q31 0 45 -20l23 -35q4 -7 14.5 -19t25 -27.5t21.5 -23.5q30 -32 56 -80q11 -17 77 -135q10 -13 20.5 -35t10.5 -30q0 -13 -15.5 -41.5t-29.5 -44.5q-3 -4 -33.5 -37.5t-42.5 -53.5q-27 -46 -47 -71q-21 -24 -69 -88 q-38 -42 -72 -51q-36 -5 -80 -5q-8 0 -22.5 9t-14.5 16q0 12 4 21.5t11 18t8 9.5q49 69 104 133q14 17 33 49.5t20 34.5q7 12 28.5 36.5t38.5 44t17 24.5q0 10 -26 55q-27 44 -29 47q-10 28 -37 62q-4 8 -47 52.5t-55 63.5q-7 10 -17 24.5t-15.5 22.5t-10 16.5t-4.5 12.5 q0 11 44 28t66 17z" />
<glyph unicode="&#xbc;" horiz-adv-x="1513" d="M1042 1505q4 0 8.5 -4t10.5 -11t10 -11q10 -8 23.5 -24.5t13.5 -22.5q0 -21 -14 -46q-7 -12 -22 -37t-25.5 -44.5t-18.5 -38.5q-2 -5 -43 -119q-11 -33 -38.5 -95.5t-39.5 -95.5q-54 -131 -104 -288q-8 -28 -30.5 -81.5t-27.5 -72.5q-3 -13 -15 -74.5t-21 -91.5l-21 -82 q-29 -143 -49 -200q-24 -65 -33 -74q-23 -23 -35 -23q-37 0 -65 11q-2 1 -12 3.5t-15.5 6t-5.5 8.5q0 11 43 162q3 7 17 65.5t16 69.5q14 47 67 293q4 20 26.5 71t29.5 70q11 32 29.5 87.5t35 101.5t33.5 86q6 14 23.5 53t25.5 61l39 90q3 9 15 47t20 58q27 74 80 145 q14 21 33 34t36 13zM350 1466q68 0 68 -22q9 -47 6 -74q-12 -168 -12 -248q0 -17 -9.5 -115.5t-9.5 -125.5q0 -15 -1 -42.5t-1 -49t2 -39.5q5 -69 8 -70q4 -2 48 -2q28 0 36.5 -13.5t8.5 -58.5q0 -7 -5.5 -26.5t-9.5 -22.5q-9 -6 -71 -6h-113q-37 0 -57 4q-1 0 -14.5 2.5 l-27 5t-25 7t-11.5 10.5q0 25 4 63t8 45q6 2 19 1t32 -4t21 -3q5 0 10.5 5t5.5 7q2 4 2 26t-2 36q-2 18 -2 61q0 62 8 156l8 100l7 105q0 7 1.5 22t2.5 26t1 22.5t-1 17.5t-4 6q-4 0 -13.5 -6t-24.5 -16.5t-28 -16.5q-41 -23 -59 -23q-14 0 -34 36t-20 57q0 17 66 53 q55 30 76 49q47 39 67 50t39 11zM1212 889q29 0 29 -84q0 -27 -28.5 -92.5t-57.5 -108.5q-15 -25 -22 -39q-6 -14 -21.5 -40.5t-21.5 -39.5q-23 -48 -37 -88q-3 -7 -9 -21.5t-10 -23.5t-4 -12q5 -3 15 -2t33 3.5t34 2.5l64 2q3 0 3.5 19.5t-0.5 48.5t-1 30v62q0 3 34.5 24 t42.5 21q22 0 30 -5t11 -20q6 -29 9 -61q3 -18 3.5 -31t-0.5 -27t-1 -20q0 -37 4 -39q8 -4 43 -4q42 0 51 -18q6 -12 6 -72q0 -20 -10 -33q-9 -12 -64 -6h-24q-2 -1 -2 -29q0 -24 2 -70t2 -69q0 -57 -8 -65q-3 -3 -19 -7t-28 -4q-42 0 -62 4q-5 1 -8 8t-4 21t-2 24.5 t-1.5 31t-0.5 28.5q-2 31 -2 96q0 23 -6 29q-4 4 -46 4q-6 0 -74 -4.5t-91 -3.5q-93 4 -93 20q0 17 10 64.5t17 66.5l37 93q45 114 78 168q24 33 45 77q32 53 39 74q4 12 6 30.5t2.5 35t1.5 20.5q1 8 47 19.5t59 11.5z" />
<glyph unicode="&#xbd;" horiz-adv-x="1519" d="M1036 1505q4 0 8.5 -4t10.5 -11t10 -11q10 -8 23.5 -24.5t13.5 -22.5q0 -19 -15 -46q-6 -10 -21.5 -36.5t-25.5 -45.5t-18 -38q-2 -5 -43 -119q-11 -33 -39 -95.5t-39 -95.5q-54 -131 -104 -288q-8 -28 -30.5 -81.5t-27.5 -72.5q-3 -12 -15.5 -74t-21.5 -92l-20 -82 q-29 -143 -49 -200q-24 -65 -33 -74q-23 -23 -35 -23q-37 0 -65 11q-2 1 -12 3.5t-15.5 6t-5.5 8.5q0 11 43 162q3 7 17 65.5t16 69.5q14 47 67 293q4 20 26.5 71t29.5 70q11 32 29.5 87.5t35 101.5t33.5 86q6 14 23.5 53t25.5 61l39 90q3 9 15 47t20 58q27 74 80 145 q14 21 33 34t36 13zM350 1466q68 0 68 -22q9 -47 6 -74q-12 -168 -12 -248q0 -17 -9.5 -115.5t-9.5 -125.5q0 -15 -1 -42.5t-1 -49t2 -39.5q5 -69 8 -70q4 -2 48 -2q28 0 36.5 -13.5t8.5 -58.5q0 -7 -5.5 -26.5t-9.5 -22.5q-9 -6 -71 -6h-113q-37 0 -57 4q-1 0 -14.5 2.5 l-27 5t-25 7t-11.5 10.5q0 25 4 63t8 45q6 2 19 1t32 -4t21 -3q5 0 10.5 5t5.5 7q2 4 2 26t-2 36q-2 18 -2 61q0 62 8 156l8 100l7 105q0 7 1.5 22t2.5 26t1 22.5t-1 17.5t-4 6q-4 0 -13.5 -6t-24.5 -16.5t-28 -16.5q-41 -23 -59 -23q-14 0 -34 36t-20 57q0 17 66 53 q55 30 76 49q47 39 67 50t39 11zM1169 889q34 0 81.5 -22t76.5 -58q70 -86 70 -197q0 -28 -4 -53t-16 -48.5t-19.5 -39t-28.5 -38.5t-29 -32t-34 -33.5t-31 -29.5q-6 -5 -12.5 -15t-14 -24t-10.5 -18q-6 -8 -32.5 -39.5t-43.5 -59.5q-5 -9 -9.5 -30.5t-4.5 -28.5q0 -3 9 -3 t23.5 1.5t20.5 1.5q80 0 187 -29q53 -13 59 -24q10 -20 10 -37q0 -23 -8 -43q-4 -10 -14 -21.5t-19 -11.5q-24 0 -96 25q-48 14 -143 14q-23 0 -75.5 -14.5t-55.5 -14.5q-7 0 -19 9.5t-14 15.5q-10 40 -10 53q0 71 24 148q22 62 60 108l67 88q6 8 22 32.5t21 29.5 q35 30 47 41t31.5 33.5t26 41.5t6.5 43q0 42 -4 56q-27 96 -107 96q-52 0 -72 -25q-4 -5 -11 -14t-10 -12.5t-8 -9t-8.5 -8t-8 -4t-9.5 -1.5q-22 0 -50 28t-28 40q0 22 35 60.5t70 53.5q50 19 112 19z" />
<glyph unicode="&#xbe;" horiz-adv-x="1531" d="M1061 1505q4 0 8.5 -4t10.5 -11t10 -11q10 -8 23 -24.5t13 -22.5q0 -21 -14 -46q-6 -10 -21.5 -36.5t-25.5 -45.5t-18 -38q-2 -5 -43 -119q-12 -33 -39.5 -95.5t-38.5 -95.5q-58 -141 -105 -288q-8 -28 -30 -81.5t-27 -72.5q-3 -12 -15.5 -74t-21.5 -92l-20 -82 q-28 -136 -50 -200q-25 -67 -32 -74q-23 -23 -35 -23q-38 0 -66 11q-2 1 -12 3.5t-15 6t-5 8.5q0 11 43 162q10 25 32 135q18 60 68 293q4 21 26.5 71.5t28.5 69.5q11 32 29.5 87.5t35 101.5t33.5 86q6 15 24 53.5t26 60.5l39 90q4 12 15 48.5t19 56.5q27 74 80 145 q14 20 33.5 33.5t36.5 13.5zM283 1464q75 0 129 -22q76 -33 106 -125q14 -41 14 -105q0 -26 -12.5 -52.5t-28 -43t-28 -29t-12.5 -14.5t22 -31t44 -75.5t22 -89.5q0 -133 -15 -181q-26 -85 -143 -123q-52 -18 -90 -18q-55 0 -80 14q-19 11 -49 36t-43 48q-7 12 -12 39.5 t-5 42.5q0 13 97 13q8 0 15 -5t11 -10t10 -14.5t9 -13.5q15 -23 41 -23q76 0 106 41q7 8 11 20.5t5 30.5t1.5 30t0 34t-0.5 28q0 26 -29 86q-16 29 -37 43q-6 4 -47 4q-5 0 -13 -0.5t-12 -0.5t-9 1.5t-9 6t-8 12.5q-15 24 -15 55q0 13 1.5 20t11 14.5t15.5 11t30 16.5l41 17 q40 17 57.5 32t17.5 35q0 47 -13 74.5t-48 37.5q-24 6 -57 6q-44 0 -66 -14q-27 -18 -43 -18q-9 0 -41.5 29.5t-32.5 39.5q0 20 21 37q62 53 160 53zM1231 889q29 0 29 -84q0 -27 -28.5 -92.5t-57.5 -108.5q-21 -35 -23 -39q-6 -14 -21.5 -40.5t-21.5 -39.5q-23 -48 -37 -88 q-22 -55 -22 -57q5 -3 15 -2t32.5 3.5t33.5 2.5l64 2q3 0 3.5 19.5t-0.5 48.5t-1 30v62q0 3 35 24t43 21q22 0 30 -5t11 -20q4 -19 8 -61q3 -18 3.5 -31t-0.5 -27t-1 -20q0 -37 4 -39q8 -4 43 -4q42 0 51 -18q7 -14 7 -72q0 -18 -11 -33q-9 -11 -63 -6h-25q-2 -1 -2 -29 q0 -24 2 -70t2 -69q0 -57 -8 -65q-3 -3 -19 -7t-28 -4q-41 0 -61 4q-3 1 -5.5 5t-4.5 11.5t-3 15t-1.5 19t-1 20t-1 22t-0.5 20.5q-2 31 -2 96q0 23 -6 29q-4 4 -45 4q-6 0 -74.5 -4.5t-91.5 -3.5q-92 4 -92 20q0 18 9.5 65.5t16.5 65.5l37 93q45 114 78 168q24 33 45 77 q32 53 39 74q4 12 6 30.5t2.5 35t1.5 20.5q1 8 47.5 19.5t59.5 11.5z" />
<glyph unicode="&#xbf;" horiz-adv-x="638" d="M373 942q-9 0 -15 1t-10 1.5t-9 4t-6.5 4.5t-8 8t-9.5 10q-28 31 -28 78q0 38 10 63q19 45 94 45q34 0 53 -20.5t19 -57.5q0 -57 -10 -86q-4 -12 -15 -24.5t-18 -16.5q-20 -10 -47 -10zM371 -369q-35 1 -77.5 11.5t-68.5 23.5q-33 16 -77 66t-62 114q-25 88 -25 203 q0 107 37 191q22 38 81.5 106.5t66.5 81.5q10 19 24.5 60.5t18.5 50.5q10 21 16.5 51t8.5 64t2.5 59t-0.5 53.5t-1 30.5q0 7 25 14.5t49 7.5q23 0 45.5 -11t22.5 -22q0 -1 1 -17.5t2 -40t1 -42.5q0 -54 -17.5 -124.5t-37.5 -108.5q-4 -9 -14 -33.5t-20.5 -47t-21.5 -38.5 q-11 -17 -48 -54t-48 -57q-18 -29 -31.5 -70t-13.5 -73q0 -176 39 -238q42 -67 117 -67q29 0 107 19.5t89 19.5q21 0 31 -4q20 -8 20 -91q0 -28 -18 -38q-30 -18 -139 -43q-32 -7 -84 -7z" />
<glyph unicode="&#xc0;" horiz-adv-x="856" d="M283 1937q12 0 28 -26q15 -26 41.5 -63.5t32.5 -47.5q46 -83 51 -96q8 -20 8 -37q0 -9 -19 -29t-32 -26q-3 -2 -10 -6.5t-12.5 -6.5t-12.5 -2q-10 0 -24.5 19.5t-20.5 42.5q-5 18 -22 39.5t-21 30.5q-6 12 -57 92q-25 42 -25 67q0 13 19 22.5t33 12.5q1 0 14 7t29 7z M422 1466q25 0 46.5 -6.5t27.5 -15.5q31 -47 51 -105q36 -100 61 -290q13 -116 35 -230q45 -236 100 -409q14 -42 31 -152q13 -93 21 -125q30 -100 30 -113q0 -11 -13 -16.5t-24 -5.5q-9 0 -31 2t-32 2q-31 0 -45 23q-15 25 -23 71q-32 182 -32 185q-3 23 -11.5 62t-11.5 40 q-10 4 -49 4q-30 -1 -77.5 -8.5t-65.5 -7.5q-16 0 -56.5 -2t-54.5 -2q-3 0 -19 -1t-28 -3.5t-14 -6.5l-19 -77q-4 -16 -10.5 -56.5t-13.5 -60.5q-12 -39 -15 -94q-6 -52 -20 -66q-12 -12 -54 -12q-26 0 -50.5 5t-24.5 13q0 6 1 17t2.5 26.5t2.5 24.5q1 12 1.5 28.5t1 25.5 t1.5 13q0 2 31 121q28 118 57 273q10 49 24.5 140t27.5 160t26 111q14 48 27.5 160t17.5 133q8 33 33 98.5t30 85.5q6 27 23 31q30 10 84 10zM420 1272q-2 0 -9.5 -10t-16 -30t-13.5 -40q-5 -23 -18 -153t-19 -165q-32 -137 -47 -223l-23 -133q0 -4 58 -4q11 0 39.5 -1 t42.5 -1q31 0 82 7t53 7q8 0 10 9q-8 39 -24.5 101.5t-22.5 90.5q-11 43 -23 136.5t-20 131.5q-5 21 -11 86.5t-9 87.5q-4 27 -9.5 51.5t-11 38t-8.5 13.5z" />
<glyph unicode="&#xc1;" horiz-adv-x="856" d="M537 1939q16 0 29 -7t14 -7q14 -3 32.5 -12.5t18.5 -22.5q0 -25 -25 -67q-51 -80 -57 -92q-4 -9 -21 -30.5t-22 -39.5q-6 -23 -20.5 -42.5t-24.5 -19.5q-7 0 -12.5 2t-12.5 6.5t-10 6.5q-13 6 -32 26t-19 29q0 17 8 37q5 13 51 96q6 10 32.5 47.5t41.5 63.5q16 26 29 26z M422 1466q25 0 46.5 -6.5t27.5 -15.5q31 -47 51 -105q36 -100 61 -290q13 -116 35 -230q45 -236 100 -409q14 -42 31 -152q13 -93 21 -125q30 -100 30 -113q0 -11 -13 -16.5t-24 -5.5q-9 0 -31 2t-32 2q-31 0 -45 23q-15 25 -23 71q-32 182 -32 185q-3 23 -11.5 62t-11.5 40 q-10 4 -49 4q-30 -1 -77.5 -8.5t-65.5 -7.5q-16 0 -56.5 -2t-54.5 -2q-3 0 -19 -1t-28 -3.5t-14 -6.5l-19 -77q-4 -16 -10.5 -56.5t-13.5 -60.5q-12 -39 -15 -94q-6 -52 -20 -66q-12 -12 -54 -12q-26 0 -50.5 5t-24.5 13q0 6 1 17t2.5 26.5t2.5 24.5q1 12 1.5 28.5t1 25.5 t1.5 13q0 2 31 121q28 118 57 273q10 49 24.5 140t27.5 160t26 111q14 48 27.5 160t17.5 133q8 33 33 98.5t30 85.5q6 27 23 31q30 10 84 10zM420 1272q-2 0 -9.5 -10t-16 -30t-13.5 -40q-5 -23 -18 -153t-19 -165q-32 -137 -47 -223l-23 -133q0 -4 58 -4q11 0 39.5 -1 t42.5 -1q31 0 82 7t53 7q8 0 10 9q-8 39 -24.5 101.5t-22.5 90.5q-11 43 -23 136.5t-20 131.5q-5 21 -11 86.5t-9 87.5q-4 27 -9.5 51.5t-11 38t-8.5 13.5z" />
<glyph unicode="&#xc2;" horiz-adv-x="856" d="M438 1915h29q28 0 49 -49q5 -23 33 -68l33 -55q51 -67 51 -109q0 -11 -32.5 -32t-43.5 -21q-14 0 -29.5 11t-19.5 24q-8 19 -36 64.5t-32 45.5q-13 0 -80 -108q-17 -29 -53 -29q-13 0 -43.5 31.5t-30.5 42.5q0 3 5 7.5t13.5 12.5t14.5 15q10 13 23 32t24.5 36.5 t14.5 21.5l69 90q26 37 41 37zM422 1466q25 0 46.5 -6.5t27.5 -15.5q31 -47 51 -105q36 -100 61 -290q13 -116 35 -230q45 -236 100 -409q14 -42 31 -152q13 -93 21 -125q30 -100 30 -113q0 -11 -13 -16.5t-24 -5.5q-9 0 -31 2t-32 2q-31 0 -45 23q-15 25 -23 71 q-32 182 -32 185q-3 23 -11.5 62t-11.5 40q-10 4 -49 4q-30 -1 -77.5 -8.5t-65.5 -7.5q-16 0 -56.5 -2t-54.5 -2q-3 0 -19 -1t-28 -3.5t-14 -6.5l-19 -77q-4 -16 -10.5 -56.5t-13.5 -60.5q-12 -39 -15 -94q-6 -52 -20 -66q-12 -12 -54 -12q-26 0 -50.5 5t-24.5 13q0 6 1 17 t2.5 26.5t2.5 24.5q1 12 1.5 28.5t1 25.5t1.5 13q0 2 31 121q28 118 57 273q10 49 24.5 140t27.5 160t26 111q14 48 27.5 160t17.5 133q8 33 33 98.5t30 85.5q6 27 23 31q30 10 84 10zM420 1272q-2 0 -9.5 -10t-16 -30t-13.5 -40q-5 -23 -18 -153t-19 -165 q-32 -137 -47 -223l-23 -133q0 -4 58 -4q11 0 39.5 -1t42.5 -1q31 0 82 7t53 7q8 0 10 9q-8 39 -24.5 101.5t-22.5 90.5q-11 43 -23 136.5t-20 131.5q-5 21 -11 86.5t-9 87.5q-4 27 -9.5 51.5t-11 38t-8.5 13.5z" />
<glyph unicode="&#xc3;" horiz-adv-x="856" d="M590 1843q21 0 48.5 -15t27.5 -24q0 -10 -7.5 -35.5t-15.5 -39.5q-34 -56 -59.5 -75.5t-59.5 -19.5q-97 0 -139 37q-2 1 -12.5 11t-18.5 16.5t-19 13t-18 6.5t-13 -4t-10 -9t-8 -13t-5.5 -13.5t-4 -13t-2.5 -8.5t-1.5 -6.5t-2.5 -6t-5 -3t-11 -3t-18 -0.5q-39 0 -66 21 q-8 6 -8 37q0 16 14.5 44.5t36.5 53.5q37 43 96 43q20 0 53 -14t58 -35q4 -3 11.5 -9.5t10.5 -9t10 -6.5t13 -5.5t15 -3t20 -1.5q24 0 47 68q3 7 5.5 10.5t12 7.5t25.5 4zM422 1466q25 0 46.5 -6.5t27.5 -15.5q31 -47 51 -105q36 -100 61 -290q13 -116 35 -230 q45 -236 100 -409q14 -42 31 -152q13 -93 21 -125q30 -100 30 -113q0 -11 -13 -16.5t-24 -5.5q-9 0 -31 2t-32 2q-31 0 -45 23q-15 25 -23 71q-32 182 -32 185q-3 23 -11.5 62t-11.5 40q-10 4 -49 4q-30 -1 -77.5 -8.5t-65.5 -7.5q-16 0 -56.5 -2t-54.5 -2q-3 0 -19 -1 t-28 -3.5t-14 -6.5l-19 -77q-4 -16 -10.5 -56.5t-13.5 -60.5q-12 -39 -15 -94q-6 -52 -20 -66q-12 -12 -54 -12q-26 0 -50.5 5t-24.5 13q0 6 1 17t2.5 26.5t2.5 24.5q1 12 1.5 28.5t1 25.5t1.5 13q0 2 31 121q28 118 57 273q10 49 24.5 140t27.5 160t26 111q14 48 27.5 160 t17.5 133q8 33 33 98.5t30 85.5q6 27 23 31q30 10 84 10zM420 1272q-2 0 -9.5 -10t-16 -30t-13.5 -40q-5 -23 -18 -153t-19 -165q-32 -137 -47 -223l-23 -133q0 -4 58 -4q11 0 39.5 -1t42.5 -1q31 0 82 7t53 7q8 0 10 9q-8 39 -24.5 101.5t-22.5 90.5q-11 43 -23 136.5 t-20 131.5q-5 21 -11 86.5t-9 87.5q-4 27 -9.5 51.5t-11 38t-8.5 13.5z" />
<glyph unicode="&#xc4;" horiz-adv-x="856" d="M293 1827q10 0 16.5 -1.5t8.5 -2t8.5 -5t9.5 -6.5q24 -17 24 -75q0 -36 -16.5 -63t-46.5 -27q-57 0 -70 20q-9 14 -16.5 38.5t-7.5 41.5q0 28 15.5 53t39.5 25q4 0 16 1t19 1zM598 1821q61 0 74 -19q16 -24 16 -80q0 -30 -13 -56t-38 -26q-48 0 -78 17q-24 17 -24 76 q0 35 16.5 61.5t46.5 26.5zM422 1466q25 0 46.5 -6.5t27.5 -15.5q31 -47 51 -105q36 -100 61 -290q13 -116 35 -230q45 -236 100 -409q14 -42 31 -152q13 -93 21 -125q30 -100 30 -113q0 -11 -13 -16.5t-24 -5.5q-9 0 -31 2t-32 2q-31 0 -45 23q-15 25 -23 71 q-32 182 -32 185q-3 23 -11.5 62t-11.5 40q-10 4 -49 4q-30 -1 -77.5 -8.5t-65.5 -7.5q-16 0 -56.5 -2t-54.5 -2q-3 0 -19 -1t-28 -3.5t-14 -6.5l-19 -77q-4 -16 -10.5 -56.5t-13.5 -60.5q-12 -39 -15 -94q-6 -52 -20 -66q-12 -12 -54 -12q-26 0 -50.5 5t-24.5 13q0 6 1 17 t2.5 26.5t2.5 24.5q1 12 1.5 28.5t1 25.5t1.5 13q0 2 31 121q28 118 57 273q10 49 24.5 140t27.5 160t26 111q14 48 27.5 160t17.5 133q8 33 33 98.5t30 85.5q6 27 23 31q30 10 84 10zM420 1272q-2 0 -9.5 -10t-16 -30t-13.5 -40q-5 -23 -18 -153t-19 -165 q-32 -137 -47 -223l-23 -133q0 -4 58 -4q11 0 39.5 -1t42.5 -1q31 0 82 7t53 7q8 0 10 9q-8 39 -24.5 101.5t-22.5 90.5q-11 43 -23 136.5t-20 131.5q-5 21 -11 86.5t-9 87.5q-4 27 -9.5 51.5t-11 38t-8.5 13.5z" />
<glyph unicode="&#xc5;" horiz-adv-x="856" d="M418 1901q83 0 135.5 -41t52.5 -127q0 -64 -43 -117q-44 -51 -135 -51q-82 0 -136 40t-54 111q0 92 50 138.5t130 46.5zM428 1802q-43 0 -63 -18q-19 -19 -19 -60q0 -23 17.5 -40t46.5 -17q94 0 94 59q0 32 -20.5 54t-55.5 22zM422 1466q25 0 46.5 -6.5t27.5 -15.5 q31 -47 51 -105q36 -100 61 -290q13 -116 35 -230q45 -236 100 -409q14 -42 31 -152q13 -93 21 -125q30 -100 30 -113q0 -11 -13 -16.5t-24 -5.5q-9 0 -31 2t-32 2q-31 0 -45 23q-15 25 -23 71q-32 182 -32 185q-3 23 -11.5 62t-11.5 40q-10 4 -49 4q-30 -1 -77.5 -8.5 t-65.5 -7.5q-16 0 -56.5 -2t-54.5 -2q-3 0 -19 -1t-28 -3.5t-14 -6.5l-19 -77q-4 -16 -10.5 -56.5t-13.5 -60.5q-12 -39 -15 -94q-6 -52 -20 -66q-12 -12 -54 -12q-26 0 -50.5 5t-24.5 13q0 6 1 17t2.5 26.5t2.5 24.5q1 12 1.5 28.5t1 25.5t1.5 13q0 2 31 121q28 118 57 273 q10 49 24.5 140t27.5 160t26 111q14 48 27.5 160t17.5 133q8 33 33 98.5t30 85.5q6 27 23 31q30 10 84 10zM420 1272q-2 0 -9.5 -10t-16 -30t-13.5 -40q-5 -23 -18 -153t-19 -165q-32 -137 -47 -223l-23 -133q0 -4 58 -4q11 0 39.5 -1t42.5 -1q31 0 82 7t53 7q8 0 10 9 q-8 39 -24.5 101.5t-22.5 90.5q-11 43 -23 136.5t-20 131.5q-5 21 -11 86.5t-9 87.5q-4 27 -9.5 51.5t-11 38t-8.5 13.5z" />
<glyph unicode="&#xc6;" horiz-adv-x="1191" d="M629 1452q75 0 157 -6q12 -1 47.5 -6.5t49.5 -5.5q35 0 81.5 4t47.5 4q8 0 45 -2t41 -2q13 0 20 -9.5t8.5 -22t1.5 -34.5q0 -34 -10 -47.5t-39 -17.5q-9 -1 -39 -7t-54.5 -9t-47.5 -3q-29 0 -127 12q-99 7 -106 -4q-3 -4 6 -102q8 -78 8 -125q0 -7 -3 -40.5t-3 -47.5 q0 -26 2 -48t5 -33.5t5 -12.5q19 -6 85.5 3t78.5 9q23 0 71 4t72 4q62 0 62 -28q0 -62 -11 -82q-3 -5 -6.5 -9t-6.5 -7t-8 -5.5t-8 -3.5t-9.5 -2.5t-8.5 -2t-9.5 -2t-8.5 -1.5q-14 -2 -135 -8q-9 -1 -50 -6t-67 -5q-35 0 -35 -10q0 -5 -8 -39.5t-8 -50.5q0 -32 -5 -98 t-5 -78q0 -11 8 -88.5t8 -116.5q0 -114 4 -119q6 -8 51 -8q8 0 54.5 7.5t82.5 7.5q17 0 50 2t49 2q85 0 100 -15q29 -29 29 -57q0 -19 -12 -50.5t-21 -31.5q-18 0 -70 4t-69 4q-9 0 -107 -10q-49 -6 -147 -6q-37 0 -78 8.5t-47 20.5q-19 43 -19 110q0 15 3.5 65.5t3.5 71.5 q0 15 -5 59.5t-8 47.5t-133 -8q-160 0 -178 -9q-17 -9 -39 -92q-7 -26 -24 -89t-29 -108t-12 -53q0 -22 -62 -22q-47 0 -62.5 7t-15.5 32q0 52 13 82q5 12 22 79.5t27 98.5q17 52 41 151t37 142q68 235 90 295q10 28 25 62t25 55t30.5 62.5t27.5 55.5q10 22 24 65.5t19 57.5 q12 57 64 162q14 28 34 35q42 14 97 14h43zM557 1274q-2 0 -14 -36t-29.5 -86.5t-28.5 -76.5q-8 -18 -29 -57.5t-30 -61.5q-8 -20 -34 -82.5t-36 -91.5q-20 -66 -44 -166t-21 -106q11 -3 32 -3t59.5 2.5t45.5 2.5q16 0 74 5.5t61 8.5t6.5 44t3.5 73q0 1 -3 129.5t-3 198.5 q0 17 3 54t3 44q0 47 -3 97t-7 79t-6 29z" />
<glyph unicode="&#xc7;" horiz-adv-x="813" d="M707 383q35 0 45 -21q8 -19 8 -61q0 -103 -15 -145q-5 -14 -13.5 -28.5t-19.5 -32t-16 -27.5q-42 -73 -212 -80q-24 -53 -21 -58q1 -2 24.5 -10.5t49.5 -21.5t34 -27q31 -53 31 -84q0 -59 -51 -107q-32 -31 -70.5 -40t-95.5 -9q-33 0 -97.5 33.5t-64.5 65.5q0 11 32 35 t42 24q3 0 40 -21.5t60 -23.5q25 0 52.5 9t27.5 24q0 22 -24 37.5t-50 21.5q-24 5 -50.5 19t-26.5 26q0 40 34 114q-34 6 -65 23q-28 15 -50 36.5t-39 51.5t-27 51.5t-25 59.5q-60 153 -60 277q0 18 1 46t1 35q0 11 -7 104.5t-7 139.5q0 45 24 232q10 76 38.5 173.5 t56.5 135.5q30 41 112 78t152 37q48 0 102 -23q72 -34 117 -84q12 -13 21 -30t17.5 -37.5t12.5 -28.5q25 -63 25 -109q0 -19 -17 -30q-14 -9 -46.5 -23t-39.5 -14q-20 0 -32 37q-6 16 -18 58t-23 66q-15 34 -46.5 54t-68.5 20q-32 0 -74.5 -14t-62.5 -37q-5 -5 -9 -10.5 t-7.5 -11.5t-6 -10.5t-6 -12t-5 -10.5t-4 -12t-3.5 -11.5t-4 -13t-4 -12.5q-56 -171 -56 -408q0 -34 4.5 -102t4.5 -95q0 -171 51 -299q26 -66 47 -100q29 -43 147 -43q90 0 107 31q4 8 10 18.5t9.5 17t7.5 15.5t6 18q5 6 1 53.5t-4 53.5q0 18 29 32.5t60 14.5z" />
<glyph unicode="&#xc8;" horiz-adv-x="716" d="M272 1937q13 0 29 -26q15 -26 41.5 -63.5t32.5 -47.5q46 -83 51 -96q8 -20 8 -37q0 -9 -19 -29t-32 -26q-3 -2 -10 -6.5t-12.5 -6.5t-12.5 -2q-10 0 -24.5 19.5t-20.5 42.5q-5 18 -22 39.5t-21 30.5q-6 12 -57 92q-25 42 -25 67q0 13 18.5 22.5t32.5 12.5q1 0 14 7t29 7z M426 1462q18 0 65.5 -3t65.5 -3q46 0 74 -8q6 -1 15 -19.5t9 -29.5q0 -13 -5 -39.5t-11 -34.5q-11 -14 -78 -14q-17 0 -65.5 4t-73.5 4q-2 0 -32.5 -2t-57.5 -2q-70 0 -72 -2q-4 -4 -4 -21q0 -16 4 -71.5t4 -79.5q0 -23 -3 -72t-3 -74q0 -21 3 -64t3 -65q0 -10 39 -10 q4 0 46.5 6t56.5 6q9 0 40 -3.5t56 -4.5q22 -1 48 0.5t43.5 3t22.5 0.5q33 -5 33 -92q0 -20 -10 -35q-3 -4 -64 -14q-16 -4 -86 -4q-24 0 -49 3t-30 3q-8 0 -58 -5t-76 -5q-12 0 -20 -17q-8 -16 -8 -77q0 -16 3 -93.5t3 -121.5q0 -22 -8 -87.5t-8 -91.5q0 -32 5.5 -54.5 t14.5 -22.5q14 0 48 3t40 3q22 0 91.5 -6.5t74.5 -6.5q13 0 48 7.5t46 7.5q10 0 35 -37q14 -20 14 -80q0 -17 -68 -31t-106 -14q-28 0 -79.5 7t-59.5 7q-20 0 -99 -8t-98 -8q-21 0 -36 127q-7 68 -7 121q0 39 4.5 99t4.5 62q0 25 -3.5 76t-3.5 84q0 127 13 201q6 35 6 67 q0 29 -5 88t-5 89q0 23 2 70t2 67q0 23 -2 70.5t-2 72.5q0 42 10 94t22 56q7 2 54 7t63 5q10 0 75 6t89 6z" />
<glyph unicode="&#xc9;" horiz-adv-x="716" d="M526 1939q16 0 29 -7t14 -7q14 -3 33 -12.5t19 -22.5q0 -25 -25 -67q-51 -80 -57 -92q-4 -9 -21 -30.5t-22 -39.5q-6 -23 -20.5 -42.5t-24.5 -19.5q-7 0 -12.5 2t-12.5 6.5t-10 6.5q-13 6 -32 26t-19 29q0 17 8 37q5 13 51 96q6 10 32.5 47.5t41.5 63.5q16 26 28 26z M426 1462q18 0 65.5 -3t65.5 -3q46 0 74 -8q6 -1 15 -19.5t9 -29.5q0 -13 -5 -39.5t-11 -34.5q-11 -14 -78 -14q-17 0 -65.5 4t-73.5 4q-2 0 -32.5 -2t-57.5 -2q-70 0 -72 -2q-4 -4 -4 -21q0 -16 4 -71.5t4 -79.5q0 -23 -3 -72t-3 -74q0 -21 3 -64t3 -65q0 -10 39 -10 q4 0 46.5 6t56.5 6q9 0 40 -3.5t56 -4.5q22 -1 48 0.5t43.5 3t22.5 0.5q33 -5 33 -92q0 -20 -10 -35q-3 -4 -64 -14q-16 -4 -86 -4q-24 0 -49 3t-30 3q-8 0 -58 -5t-76 -5q-12 0 -20 -17q-8 -16 -8 -77q0 -16 3 -93.5t3 -121.5q0 -22 -8 -87.5t-8 -91.5q0 -32 5.5 -54.5 t14.5 -22.5q14 0 48 3t40 3q22 0 91.5 -6.5t74.5 -6.5q13 0 48 7.5t46 7.5q10 0 35 -37q14 -20 14 -80q0 -17 -68 -31t-106 -14q-28 0 -79.5 7t-59.5 7q-20 0 -99 -8t-98 -8q-21 0 -36 127q-7 68 -7 121q0 39 4.5 99t4.5 62q0 25 -3.5 76t-3.5 84q0 127 13 201q6 35 6 67 q0 29 -5 88t-5 89q0 23 2 70t2 67q0 23 -2 70.5t-2 72.5q0 42 10 94t22 56q7 2 54 7t63 5q10 0 75 6t89 6z" />
<glyph unicode="&#xca;" horiz-adv-x="716" d="M428 1915h29q28 0 49 -49q5 -23 33 -68q3 -5 14 -25.5t18 -29.5q52 -69 52 -109q0 -11 -32.5 -32t-43.5 -21q-14 0 -29.5 11t-19.5 24q-8 19 -36 64.5t-32 45.5q-13 0 -80 -108q-17 -29 -53 -29q-13 0 -43.5 31.5t-30.5 42.5q0 3 5 7.5t13.5 12.5t14.5 15q14 17 37 53 t24 37l70 90q26 37 41 37zM426 1462q18 0 65.5 -3t65.5 -3q46 0 74 -8q6 -1 15 -19.5t9 -29.5q0 -13 -5 -39.5t-11 -34.5q-11 -14 -78 -14q-17 0 -65.5 4t-73.5 4q-2 0 -32.5 -2t-57.5 -2q-70 0 -72 -2q-4 -4 -4 -21q0 -16 4 -71.5t4 -79.5q0 -23 -3 -72t-3 -74q0 -21 3 -64 t3 -65q0 -10 39 -10q4 0 46.5 6t56.5 6q9 0 40 -3.5t56 -4.5q22 -1 48 0.5t43.5 3t22.5 0.5q33 -5 33 -92q0 -20 -10 -35q-3 -4 -64 -14q-16 -4 -86 -4q-24 0 -49 3t-30 3q-8 0 -58 -5t-76 -5q-12 0 -20 -17q-8 -16 -8 -77q0 -16 3 -93.5t3 -121.5q0 -22 -8 -87.5t-8 -91.5 q0 -32 5.5 -54.5t14.5 -22.5q14 0 48 3t40 3q22 0 91.5 -6.5t74.5 -6.5q13 0 48 7.5t46 7.5q10 0 35 -37q14 -20 14 -80q0 -17 -68 -31t-106 -14q-28 0 -79.5 7t-59.5 7q-20 0 -99 -8t-98 -8q-21 0 -36 127q-7 68 -7 121q0 39 4.5 99t4.5 62q0 25 -3.5 76t-3.5 84 q0 127 13 201q6 35 6 67q0 29 -5 88t-5 89q0 23 2 70t2 67q0 23 -2 70.5t-2 72.5q0 42 10 94t22 56q7 2 54 7t63 5q10 0 75 6t89 6z" />
<glyph unicode="&#xcb;" horiz-adv-x="716" d="M283 1827q10 0 16.5 -1.5t8.5 -2t8.5 -5t9.5 -6.5q24 -17 24 -75q0 -36 -16.5 -63t-46.5 -27q-57 0 -70 20q-9 14 -16.5 38.5t-7.5 41.5q0 28 15.5 53t39.5 25q4 0 16 1t19 1zM588 1821q61 0 74 -19q16 -24 16 -80q0 -30 -13 -56t-38 -26q-48 0 -78 17q-25 17 -25 76 q0 35 17 61.5t47 26.5zM426 1462q18 0 65.5 -3t65.5 -3q46 0 74 -8q6 -1 15 -19.5t9 -29.5q0 -13 -5 -39.5t-11 -34.5q-11 -14 -78 -14q-17 0 -65.5 4t-73.5 4q-2 0 -32.5 -2t-57.5 -2q-70 0 -72 -2q-4 -4 -4 -21q0 -16 4 -71.5t4 -79.5q0 -23 -3 -72t-3 -74q0 -21 3 -64 t3 -65q0 -10 39 -10q4 0 46.5 6t56.5 6q9 0 40 -3.5t56 -4.5q22 -1 48 0.5t43.5 3t22.5 0.5q33 -5 33 -92q0 -20 -10 -35q-3 -4 -64 -14q-16 -4 -86 -4q-24 0 -49 3t-30 3q-8 0 -58 -5t-76 -5q-12 0 -20 -17q-8 -16 -8 -77q0 -16 3 -93.5t3 -121.5q0 -22 -8 -87.5t-8 -91.5 q0 -32 5.5 -54.5t14.5 -22.5q14 0 48 3t40 3q22 0 91.5 -6.5t74.5 -6.5q13 0 48 7.5t46 7.5q10 0 35 -37q14 -20 14 -80q0 -17 -68 -31t-106 -14q-28 0 -79.5 7t-59.5 7q-20 0 -99 -8t-98 -8q-21 0 -36 127q-7 68 -7 121q0 39 4.5 99t4.5 62q0 25 -3.5 76t-3.5 84 q0 127 13 201q6 35 6 67q0 29 -5 88t-5 89q0 23 2 70t2 67q0 23 -2 70.5t-2 72.5q0 42 10 94t22 56q7 2 54 7t63 5q10 0 75 6t89 6z" />
<glyph unicode="&#xcc;" horiz-adv-x="417" d="M166 1939q8 0 16.5 -12t41.5 -71q6 -11 10 -17.5t10 -17.5t12 -21q17 -30 39 -94q10 -25 10 -43q0 -9 -11.5 -23t-23.5 -20q-3 -2 -13.5 -8.5t-19.5 -10.5t-16 -4q-10 0 -24.5 19.5t-20.5 42.5q-4 14 -8.5 24.5t-11.5 22.5t-11 20q-3 7 -19.5 43.5t-25.5 51.5 q-24 40 -24 67q0 13 14 22.5t25 12.5l10 5t18.5 7.5t22.5 3.5zM254 1442q35 0 35 -29q0 -10 -12.5 -95.5t-12.5 -127.5l-2 -221q0 -49 3 -100.5t9.5 -124.5t8.5 -101q2 -26 6 -69t6 -72.5t2 -59.5l-2 -161q0 -14 2 -53t2 -62t-5.5 -78.5t-8.5 -64.5q-9 -27 -88 -27 q-40 0 -50 16q-4 6 -4 37q0 16 4.5 52.5t4.5 60.5q0 14 -1 72t-1 106q2 37 2 111q0 47 -10.5 138.5t-12.5 135.5q-10 240 -10 279q0 25 4 92.5t4 103.5q0 38 12 123t23 102q4 7 36.5 12t55.5 5z" />
<glyph unicode="&#xcd;" horiz-adv-x="417" d="M328 1939q12 0 22.5 -3.5t18.5 -7.5l10 -5q11 -3 25 -12.5t14 -22.5q0 -25 -25 -67q-9 -15 -25.5 -51.5t-19.5 -43.5q-4 -8 -11 -20t-11.5 -22.5t-8.5 -24.5q-6 -23 -20.5 -42.5t-24.5 -19.5q-7 0 -16 4t-19.5 10.5t-13.5 8.5q-12 6 -23.5 20t-11.5 23q0 16 11 43 q22 64 39 94q71 125 78 132q6 7 12 7zM254 1442q35 0 35 -29q0 -10 -12.5 -95.5t-12.5 -127.5l-2 -221q0 -49 3 -100.5t9.5 -124.5t8.5 -101q2 -26 6 -69t6 -72.5t2 -59.5l-2 -161q0 -14 2 -53t2 -62t-5.5 -78.5t-8.5 -64.5q-9 -27 -88 -27q-40 0 -50 16q-4 6 -4 37 q0 16 4.5 52.5t4.5 60.5q0 14 -1 72t-1 106q2 37 2 111q0 47 -10.5 138.5t-12.5 135.5q-10 240 -10 279q0 25 4 92.5t4 103.5q0 38 12 123t23 102q4 7 36.5 12t55.5 5z" />
<glyph unicode="&#xce;" horiz-adv-x="417" d="M229 1919l43 -2q10 0 22.5 -13t22.5 -38q13 -36 23 -51q8 -11 17.5 -31.5t13.5 -26.5q19 -28 37 -74t18 -69q0 -10 -32 -18.5t-48 -8.5q-12 0 -26.5 11t-18.5 26q-6 18 -32 67.5t-29 49.5q-8 0 -34.5 -43t-39.5 -72q-16 -31 -51 -31q-14 0 -42 24.5t-28 35.5t29 55l59 94 q42 57 55 76q20 39 41 39zM254 1442q35 0 35 -29q0 -10 -12.5 -95.5t-12.5 -127.5l-2 -221q0 -49 3 -100.5t9.5 -124.5t8.5 -101q2 -26 6 -69t6 -72.5t2 -59.5l-2 -161q0 -14 2 -53t2 -62t-5.5 -78.5t-8.5 -64.5q-9 -27 -88 -27q-40 0 -50 16q-4 6 -4 37q0 16 4.5 52.5 t4.5 60.5q0 14 -1 72t-1 106q2 37 2 111q0 47 -10.5 138.5t-12.5 135.5q-10 240 -10 279q0 25 4 92.5t4 103.5q0 38 12 123t23 102q4 7 36.5 12t55.5 5z" />
<glyph unicode="&#xcf;" horiz-adv-x="417" d="M119 1825q10 0 16.5 -1.5t8.5 -2t8.5 -5t9.5 -6.5q24 -17 24 -75q0 -36 -16.5 -63t-46.5 -27q-49 0 -62 20q-9 14 -16.5 38.5t-7.5 41.5q0 33 18 57q14 23 64 23zM338 1819q55 0 68 -19q16 -24 16 -80q0 -30 -13 -56t-38 -26q-42 0 -72 17q-25 17 -25 76q0 35 17 61.5 t47 26.5zM254 1442q35 0 35 -29q0 -10 -12.5 -95.5t-12.5 -127.5l-2 -221q0 -49 3 -100.5t9.5 -124.5t8.5 -101q2 -26 6 -69t6 -72.5t2 -59.5l-2 -161q0 -14 2 -53t2 -62t-5.5 -78.5t-8.5 -64.5q-9 -27 -88 -27q-40 0 -50 16q-4 6 -4 37q0 16 4.5 52.5t4.5 60.5q0 14 -1 72 t-1 106q2 37 2 111q0 47 -10.5 138.5t-12.5 135.5q-10 240 -10 279q0 25 4 92.5t4 103.5q0 38 12 123t23 102q4 7 36.5 12t55.5 5z" />
<glyph unicode="&#xd0;" horiz-adv-x="860" d="M762 1092q16 -122 16 -234q0 -306 -29 -467q-11 -69 -53.5 -160.5t-89.5 -138.5q-58 -55 -125 -69q-30 -6 -138.5 -16.5t-166.5 -10.5q-37 0 -50.5 8t-17.5 37q-6 42 -6 178q0 23 5 80.5t5 93.5q0 43 12.5 149t12.5 146v16q-62 -8 -66 -8q-31 0 -36 6q-4 5 -9.5 25.5 t-5.5 36.5q0 59 32 59q7 0 67 8l4 1q-2 26 -2 40q0 13 -2 44t-2 47q0 24 2 51.5t4.5 54t3.5 35.5q4 47 4 244q0 25 7.5 53t17.5 35q32 24 190 24q30 0 57.5 -4.5t58 -16.5t46.5 -19t53.5 -26.5t48.5 -25.5q62 -32 102 -112.5t50 -163.5zM608 418q25 137 25 418 q0 125 -11 198q-15 101 -42 151t-85 79q-34 19 -54.5 28.5t-57 18t-76.5 8.5q-29 0 -31 -12q-3 -37 -8 -199q-1 -10 -4.5 -46t-3.5 -56q0 -69 10 -166h45q11 0 65 4t60 4q3 0 31.5 -1t51.5 -1t29.5 -8t6.5 -39q0 -57 -11 -76q-6 -8 -31 -8q-15 0 -40.5 3t-26.5 3 q-12 0 -59.5 -6t-60.5 -6h-50v-7q0 -54 -6 -112q-2 -24 -11 -86.5t-9 -97.5q0 -19 -2 -58.5t-2 -54.5q0 -2 -1 -27t-1 -43q0 -21 0.5 -31.5t1.5 -24t4.5 -19t9.5 -5.5q106 0 145 9q4 1 20.5 5.5t22.5 6.5t18.5 7t21 11.5t16.5 14.5q27 30 59.5 103t40.5 118z" />
<glyph unicode="&#xd1;" horiz-adv-x="985" d="M670 1802q21 0 48 -15t27 -24q0 -11 -7 -36t-15 -39q-34 -56 -59.5 -75.5t-59.5 -19.5q-97 0 -139 37q-2 1 -12.5 11t-18.5 16.5t-19 13t-18 6.5t-13 -4t-10 -9t-8 -13t-5.5 -13.5t-4 -13t-2.5 -8.5q-1 -2 -1.5 -5t-1 -4t-2 -3.5t-4 -3t-6.5 -1.5t-10 -1.5t-14 -0.5 q-38 0 -65 21q-8 6 -8 37q0 16 14.5 44.5t36.5 53.5q37 43 96 43q20 0 53 -14t58 -35q4 -3 11.5 -9.5t10.5 -9t10 -6.5t13 -5.5t15 -3t20 -1.5q24 0 47 68q3 7 5.5 10.5t12 7.5t25.5 4zM205 1456q81 0 106 -14q18 -11 23 -25q18 -38 36 -85t29 -80t30.5 -94t29.5 -91 q13 -39 22.5 -113t18.5 -106q39 -126 110 -244q12 -18 39.5 -85.5t50.5 -125t25 -57.5q2 17 0.5 57t-5.5 121.5t-5 110.5q-1 35 -7 111.5t-6 117.5q0 36 3.5 110t3.5 115q0 24 -2 50.5t-5 61.5t-4 56q-8 90 -8 152q0 39 8.5 47t44.5 8q91 0 93 -22q1 -8 2 -39.5t2 -71.5 t2 -57q2 -51 10 -148q6 -93 6 -98q0 -21 -5 -70t-5 -78q0 -48 9 -143.5t9 -144.5q0 -59 -1 -178.5t-1 -178.5q0 -17 -14 -93.5t-14 -108.5q0 -29 -74 -29q-62 0 -72 31q-19 58 -24 98q-2 15 -19.5 53.5t-45 92t-40.5 83.5q-6 15 -28.5 71.5t-49.5 114.5t-67 134 q-26 49 -55 181.5t-53 234.5t-44 102q0 -19 6 -121.5t6 -122.5q0 -36 4.5 -107.5t4.5 -107.5q-3 -105 -13 -252q-8 -155 -10 -223q-2 -57 -2 -172l2 -68q0 -18 -72 -18q-60 0 -65 12q-4 10 -4 49q0 31 -1 100.5t-1 110.5q0 50 3.5 106t9.5 128t9 110q2 35 2 103q0 45 -5 140 t-5 149q0 57 6 172t6 174q0 104 60 104z" />
<glyph unicode="&#xd2;" d="M344 1937q13 0 29 -26q15 -26 41 -63.5t32 -47.5q49 -88 52 -96q8 -20 8 -37q0 -9 -19 -29t-32 -26q-3 -2 -10 -6.5t-12.5 -6.5t-12.5 -2q-10 0 -24.5 19.5t-20.5 42.5q-5 18 -22 39.5t-21 30.5q-7 15 -17.5 31t-23.5 35t-17 26q-24 40 -24 67q0 13 18.5 22.5t32.5 12.5 q1 0 14 7t29 7zM483 1483q23 0 40 -2.5t24.5 -5.5t21 -9.5t21.5 -9.5q80 -30 127.5 -88.5t79.5 -148.5q37 -110 45 -164q2 -19 1.5 -42.5t-2 -59t-1.5 -42.5q0 -33 3 -103t3 -118q0 -46 -5 -93.5t-14.5 -106t-13.5 -93.5q-17 -144 -72 -237q-5 -8 -16.5 -28.5t-18 -31 t-18 -26.5t-24 -28t-27.5 -23q-77 -50 -186 -50q-110 0 -158 21q-90 55 -160 186q-25 48 -38 158t-13 219q0 70 4 149.5t10.5 177.5t9.5 150q3 47 13 107.5t18 87.5q4 15 12 28.5t21.5 32t19.5 27.5q2 3 11.5 21.5t19.5 33t23 27.5q30 30 92.5 57t146.5 27zM498 1343 q-90 0 -138 -38q-9 -7 -18.5 -19t-15 -22t-13.5 -27t-12 -23q-26 -43 -35 -77q-14 -54 -24 -199q-15 -199 -15 -324q0 -159 9 -249q13 -139 98 -224q26 -26 127 -26q55 0 99 33t71 85q6 11 10.5 25t9 33.5t7 32t7.5 39t7 36.5q35 206 35 287q0 36 -4.5 111t-4.5 112 q0 148 -14 203q-21 79 -76.5 155t-109.5 76z" />
<glyph unicode="&#xd3;" d="M598 1939q16 0 29 -7t14 -7q14 -3 32.5 -12.5t18.5 -22.5q0 -27 -24 -67q-4 -7 -17 -26t-23.5 -35t-17.5 -31q-4 -9 -21 -30.5t-22 -39.5q-6 -23 -20.5 -42.5t-24.5 -19.5q-7 0 -12.5 2t-12.5 6.5t-10 6.5q-13 6 -32 26t-19 29q0 17 8 37q3 8 52 96q6 10 32 47.5t41 63.5 q16 26 29 26zM483 1483q23 0 40 -2.5t24.5 -5.5t21 -9.5t21.5 -9.5q80 -30 127.5 -88.5t79.5 -148.5q37 -110 45 -164q2 -19 1.5 -42.5t-2 -59t-1.5 -42.5q0 -33 3 -103t3 -118q0 -46 -5 -93.5t-14.5 -106t-13.5 -93.5q-17 -144 -72 -237q-5 -8 -16.5 -28.5t-18 -31 t-18 -26.5t-24 -28t-27.5 -23q-77 -50 -186 -50q-110 0 -158 21q-90 55 -160 186q-25 48 -38 158t-13 219q0 70 4 149.5t10.5 177.5t9.5 150q3 47 13 107.5t18 87.5q4 15 12 28.5t21.5 32t19.5 27.5q2 3 11.5 21.5t19.5 33t23 27.5q30 30 92.5 57t146.5 27zM498 1343 q-90 0 -138 -38q-9 -7 -18.5 -19t-15 -22t-13.5 -27t-12 -23q-26 -43 -35 -77q-14 -54 -24 -199q-15 -199 -15 -324q0 -159 9 -249q13 -139 98 -224q26 -26 127 -26q55 0 99 33t71 85q6 11 10.5 25t9 33.5t7 32t7.5 39t7 36.5q35 206 35 287q0 36 -4.5 111t-4.5 112 q0 148 -14 203q-21 79 -76.5 155t-109.5 76z" />
<glyph unicode="&#xd4;" d="M500 1915h28q29 0 50 -49q6 -25 32 -68q4 -7 10.5 -18.5t12 -20.5t10.5 -16q51 -67 51 -109q0 -11 -32.5 -32t-43.5 -21q-14 0 -29.5 11t-19.5 24q-8 19 -35.5 64.5t-31.5 45.5q-13 0 -80 -108q-17 -29 -53 -29q-13 0 -43.5 31.5t-30.5 42.5q0 3 5 7.5t13.5 12.5t14.5 15 q14 17 37 53t24 37l70 90q26 37 41 37zM483 1483q23 0 40 -2.5t24.5 -5.5t21 -9.5t21.5 -9.5q80 -30 127.5 -88.5t79.5 -148.5q37 -110 45 -164q2 -19 1.5 -42.5t-2 -59t-1.5 -42.5q0 -33 3 -103t3 -118q0 -46 -5 -93.5t-14.5 -106t-13.5 -93.5q-17 -144 -72 -237 q-5 -8 -16.5 -28.5t-18 -31t-18 -26.5t-24 -28t-27.5 -23q-77 -50 -186 -50q-110 0 -158 21q-90 55 -160 186q-25 48 -38 158t-13 219q0 70 4 149.5t10.5 177.5t9.5 150q3 47 13 107.5t18 87.5q4 15 12 28.5t21.5 32t19.5 27.5q2 3 11.5 21.5t19.5 33t23 27.5q30 30 92.5 57 t146.5 27zM498 1343q-90 0 -138 -38q-9 -7 -18.5 -19t-15 -22t-13.5 -27t-12 -23q-26 -43 -35 -77q-14 -54 -24 -199q-15 -199 -15 -324q0 -159 9 -249q13 -139 98 -224q26 -26 127 -26q55 0 99 33t71 85q6 11 10.5 25t9 33.5t7 32t7.5 39t7 36.5q35 206 35 287 q0 36 -4.5 111t-4.5 112q0 148 -14 203q-21 79 -76.5 155t-109.5 76z" />
<glyph unicode="&#xd5;" d="M651 1843q21 0 48.5 -15t27.5 -24q0 -11 -7 -36t-15 -39q-34 -56 -59.5 -75.5t-59.5 -19.5q-98 0 -140 37q-2 2 -12.5 11.5t-18.5 16t-18.5 13t-17.5 6.5t-13 -4t-10 -9t-8 -13t-5.5 -13.5t-4 -13t-2.5 -8.5q-1 -2 -1.5 -5t-1 -4t-2 -3.5t-4 -3t-6.5 -1.5t-10 -1.5 t-14 -0.5q-39 0 -66 21q-8 6 -8 37q0 16 14.5 44.5t36.5 53.5q37 43 97 43q20 0 52.5 -14t57.5 -35q4 -3 11.5 -9.5t10.5 -9t10 -6.5t13 -5.5t15 -3t20 -1.5q24 0 47 68q3 7 5.5 10.5t12 7.5t25.5 4zM483 1483q23 0 40 -2.5t24.5 -5.5t21 -9.5t21.5 -9.5q80 -30 127.5 -88.5 t79.5 -148.5q37 -110 45 -164q2 -19 1.5 -42.5t-2 -59t-1.5 -42.5q0 -33 3 -103t3 -118q0 -46 -5 -93.5t-14.5 -106t-13.5 -93.5q-17 -144 -72 -237q-5 -8 -16.5 -28.5t-18 -31t-18 -26.5t-24 -28t-27.5 -23q-77 -50 -186 -50q-110 0 -158 21q-90 55 -160 186 q-25 48 -38 158t-13 219q0 70 4 149.5t10.5 177.5t9.5 150q3 47 13 107.5t18 87.5q4 15 12 28.5t21.5 32t19.5 27.5q2 3 11.5 21.5t19.5 33t23 27.5q30 30 92.5 57t146.5 27zM498 1343q-90 0 -138 -38q-9 -7 -18.5 -19t-15 -22t-13.5 -27t-12 -23q-26 -43 -35 -77 q-14 -54 -24 -199q-15 -199 -15 -324q0 -159 9 -249q13 -139 98 -224q26 -26 127 -26q55 0 99 33t71 85q6 11 10.5 25t9 33.5t7 32t7.5 39t7 36.5q35 206 35 287q0 36 -4.5 111t-4.5 112q0 148 -14 203q-21 79 -76.5 155t-109.5 76z" />
<glyph unicode="&#xd6;" d="M354 1827q10 0 16.5 -1.5t8.5 -2t8.5 -5t9.5 -6.5q25 -17 25 -75q0 -36 -17 -63t-47 -27q-56 0 -69 20q-9 14 -17 38.5t-8 41.5q0 28 15.5 53t39.5 25q3 0 16 1t19 1zM659 1821q61 0 74 -19q17 -26 17 -80q0 -30 -13.5 -56t-38.5 -26q-47 0 -77 17q-25 17 -25 76 q0 35 16.5 61.5t46.5 26.5zM483 1483q23 0 40 -2.5t24.5 -5.5t21 -9.5t21.5 -9.5q80 -30 127.5 -88.5t79.5 -148.5q37 -110 45 -164q2 -19 1.5 -42.5t-2 -59t-1.5 -42.5q0 -33 3 -103t3 -118q0 -46 -5 -93.5t-14.5 -106t-13.5 -93.5q-17 -144 -72 -237q-5 -8 -16.5 -28.5 t-18 -31t-18 -26.5t-24 -28t-27.5 -23q-77 -50 -186 -50q-110 0 -158 21q-90 55 -160 186q-25 48 -38 158t-13 219q0 70 4 149.5t10.5 177.5t9.5 150q3 47 13 107.5t18 87.5q4 15 12 28.5t21.5 32t19.5 27.5q2 3 11.5 21.5t19.5 33t23 27.5q30 30 92.5 57t146.5 27z M498 1343q-90 0 -138 -38q-9 -7 -18.5 -19t-15 -22t-13.5 -27t-12 -23q-26 -43 -35 -77q-14 -54 -24 -199q-15 -199 -15 -324q0 -159 9 -249q13 -139 98 -224q26 -26 127 -26q55 0 99 33t71 85q6 11 10.5 25t9 33.5t7 32t7.5 39t7 36.5q35 206 35 287q0 36 -4.5 111 t-4.5 112q0 148 -14 203q-21 79 -76.5 155t-109.5 76z" />
<glyph unicode="&#xd7;" horiz-adv-x="946" d="M688 885q-64 -96 -96 -131q-17 -20 -38 -62l48 -65q32 -40 53 -70q1 -1 38.5 -54.5t49.5 -80.5q6 -14 39 -65.5t33 -71.5q0 -31 -65 -35q-28 -4 -43 -4q-8 0 -22 11.5t-21 25.5q-12 23 -65.5 103t-57.5 87q-3 4 -71 98l-58 -61l-93 -102q-16 -19 -39 -60.5t-39.5 -71.5 t-23.5 -30q-36 0 -75.5 15.5t-39.5 33.5q0 24 41.5 100.5t65.5 104.5q16 18 47 51t45 49q44 50 77 97l-16 22q-2 4 -15 30.5t-31 61t-33 59.5q-16 25 -56 72.5t-59 79.5q-3 5 -16.5 27t-21.5 36t-16 35.5t-8 38.5q0 18 37 21q32 4 52 4q32 0 45 -8l84 -136q12 -19 40 -49 t35 -39q19 -23 41.5 -74t26.5 -58q62 79 96 136q5 10 29 67t33 71l75 82q10 8 52 8q28 0 49.5 -8.5t21.5 -20.5q0 -37 -4 -45q-6 -12 -67 -90q-11 -13 -33.5 -68t-30.5 -67z" />
<glyph unicode="&#xd8;" horiz-adv-x="919" d="M840 911q0 -33 3 -103t3 -118q0 -46 -5 -93.5t-14.5 -106t-13.5 -93.5q-17 -144 -72 -237q-3 -5 -20 -35t-24 -40.5t-24 -30t-36 -32.5q-76 -49 -186 -49l-46 1q-11 -55 -14 -90q-3 -34 -3 -68q0 -27 -61 -27q-58 0 -58 16q0 60 4 106q3 35 14 87q-85 53 -154 182 q-25 48 -38 158t-13 219q0 70 4 149.5t10.5 177.5t9.5 150q3 47 13 107.5t18 87.5q4 15 12 28.5t21.5 32t19.5 27.5q2 3 11.5 21.5t19.5 33t23 27.5q30 30 92.5 57t146.5 27q27 0 43 -3q10 81 22 99q7 10 14.5 50t9.5 42q12 14 59 16q24 1 42 -3.5t18 -11.5q0 -16 -4.5 -51 t-10.5 -47q-2 -4 -18 -98q-3 -16 -11 -48q96 -60 150 -209q37 -110 45 -164q2 -19 1.5 -42.5t-2 -59t-1.5 -42.5zM236 364q13 -126 83 -207q9 45 11 59q39 288 57 394q4 23 29.5 133.5t29.5 133.5q8 43 28 289q5 45 30 177h-6q-90 0 -138 -38q-9 -7 -18.5 -19t-15 -22 t-13.5 -27t-12 -23q-26 -43 -35 -77q-14 -54 -24 -199q-15 -199 -15 -324q0 -160 9 -250zM672 399q35 206 35 287q0 36 -4.5 111t-4.5 112q0 148 -14 203q-19 74 -73 149q-10 -42 -16 -94q-2 -21 -11.5 -130.5t-21.5 -181.5q-8 -49 -33 -158t-29 -134q-52 -381 -57 -403 l-10 -45h28q55 0 99 33t71 85q6 11 10.5 25t9 33.5t7 32t7.5 39t7 36.5z" />
<glyph unicode="&#xd9;" d="M322 1898q12 0 28 -26q15 -26 41.5 -63.5t32.5 -47.5q46 -83 51 -96q8 -20 8 -37q0 -9 -19 -29t-32 -26q-3 -1 -10 -5.5t-12.5 -6.5t-12.5 -2q-10 0 -24.5 19t-20.5 42q-5 18 -22 39.5t-21 30.5q-6 12 -57 92q-25 42 -25 67q0 13 19 22.5t33 12.5q1 0 14 7t29 7z M203 1462q36 0 45 -10t14 -51q12 -99 12 -182t-14 -251t-14 -243q0 -223 16 -301q5 -25 7 -86t7 -88q5 -41 28.5 -76t62.5 -43q62 -12 94 -12q9 0 25.5 -1t30 -1t26.5 2q8 1 16.5 8t17 19t14.5 22.5t14 25.5t11 21q19 34 33 108t19 148q14 280 14 426q0 18 -7 85.5t-7 117.5 q0 151 4 233q0 77 4 101t61 24q25 0 62 -14q16 -6 16 -123q0 -53 -5 -118.5t-5 -84.5q0 -32 10 -111t10 -102q0 -22 -1.5 -81.5t-3.5 -136.5t-3 -105q-11 -319 -94 -473q-28 -50 -73.5 -92t-90.5 -42q-128 0 -189 6.5t-110 32.5q-42 22 -74 70t-45 98t-16.5 136.5t-5.5 97.5 q-17 104 -17 194q0 264 7 373q2 32 12 116.5t10 127.5q0 31 -9 114t-9 89q0 32 90 32z" />
<glyph unicode="&#xda;" d="M575 1901q16 0 29 -7.5t14 -7.5q14 -3 33 -12.5t19 -22.5q0 -25 -25 -67q-51 -80 -57 -92q-4 -9 -21 -30.5t-22 -39.5q-6 -23 -20.5 -42t-24.5 -19q-7 0 -12.5 2t-12.5 6.5t-10 5.5q-13 6 -32 26t-19 29q0 17 8 37q5 13 51 96q6 10 32.5 47.5t41.5 63.5q16 27 28 27z M203 1462q36 0 45 -10t14 -51q12 -99 12 -182t-14 -251t-14 -243q0 -223 16 -301q5 -25 7 -86t7 -88q5 -41 28.5 -76t62.5 -43q62 -12 94 -12q9 0 25.5 -1t30 -1t26.5 2q8 1 16.5 8t17 19t14.5 22.5t14 25.5t11 21q19 34 33 108t19 148q14 280 14 426q0 18 -7 85.5t-7 117.5 q0 151 4 233q0 77 4 101t61 24q25 0 62 -14q16 -6 16 -123q0 -53 -5 -118.5t-5 -84.5q0 -32 10 -111t10 -102q0 -22 -1.5 -81.5t-3.5 -136.5t-3 -105q-11 -319 -94 -473q-28 -50 -73.5 -92t-90.5 -42q-128 0 -189 6.5t-110 32.5q-42 22 -74 70t-45 98t-16.5 136.5t-5.5 97.5 q-17 104 -17 194q0 264 7 373q2 32 12 116.5t10 127.5q0 31 -9 114t-9 89q0 32 90 32z" />
<glyph unicode="&#xdb;" d="M477 1876h29q28 0 49 -49q5 -23 33 -68l33 -55q51 -67 51 -109q0 -11 -32.5 -32t-43.5 -21q-14 0 -29.5 11t-19.5 24q-8 19 -36 65t-32 46q-12 0 -80 -109q-17 -29 -53 -29q-13 0 -43.5 31.5t-30.5 42.5q0 3 5 7.5t13.5 12.5t14.5 15q10 13 23 32t24.5 36.5t14.5 21.5 l69 90q26 37 41 37zM203 1462q36 0 45 -10t14 -51q12 -99 12 -182t-14 -251t-14 -243q0 -223 16 -301q5 -25 7 -86t7 -88q5 -41 28.5 -76t62.5 -43q62 -12 94 -12q9 0 25.5 -1t30 -1t26.5 2q8 1 16.5 8t17 19t14.5 22.5t14 25.5t11 21q19 34 33 108t19 148q14 280 14 426 q0 18 -7 85.5t-7 117.5q0 151 4 233q0 77 4 101t61 24q25 0 62 -14q16 -6 16 -123q0 -53 -5 -118.5t-5 -84.5q0 -32 10 -111t10 -102q0 -22 -1.5 -81.5t-3.5 -136.5t-3 -105q-11 -319 -94 -473q-28 -50 -73.5 -92t-90.5 -42q-128 0 -189 6.5t-110 32.5q-42 22 -74 70t-45 98 t-16.5 136.5t-5.5 97.5q-17 104 -17 194q0 264 7 373q2 32 12 116.5t10 127.5q0 31 -9 114t-9 89q0 32 90 32z" />
<glyph unicode="&#xdc;" d="M332 1788q8 0 13 -0.5t9.5 -2l6 -2t6.5 -4t8 -5.5q24 -17 24 -76q0 -36 -16.5 -63t-46.5 -27q-57 0 -70 20q-9 14 -16.5 38.5t-7.5 41.5q0 28 15.5 53t39.5 25q3 0 16 1t19 1zM637 1782q61 0 74 -19q16 -24 16 -80q0 -30 -13 -55.5t-38 -25.5q-49 0 -78 16q-25 17 -25 76 q0 35 17 61.5t47 26.5zM203 1462q36 0 45 -10t14 -51q12 -99 12 -182t-14 -251t-14 -243q0 -223 16 -301q5 -25 7 -86t7 -88q5 -41 28.5 -76t62.5 -43q62 -12 94 -12q9 0 25.5 -1t30 -1t26.5 2q8 1 16.5 8t17 19t14.5 22.5t14 25.5t11 21q19 34 33 108t19 148q14 280 14 426 q0 18 -7 85.5t-7 117.5q0 151 4 233q0 77 4 101t61 24q25 0 62 -14q16 -6 16 -123q0 -53 -5 -118.5t-5 -84.5q0 -32 10 -111t10 -102q0 -22 -1.5 -81.5t-3.5 -136.5t-3 -105q-11 -319 -94 -473q-28 -50 -73.5 -92t-90.5 -42q-128 0 -189 6.5t-110 32.5q-42 22 -74 70t-45 98 t-16.5 136.5t-5.5 97.5q-17 104 -17 194q0 264 7 373q2 32 12 116.5t10 127.5q0 31 -9 114t-9 89q0 32 90 32z" />
<glyph unicode="&#xdd;" horiz-adv-x="763" d="M537 1894q16 0 29 -7t14 -7q14 -3 32.5 -12.5t18.5 -22.5q0 -25 -25 -67q-51 -80 -57 -92q-4 -9 -21 -30.5t-22 -39.5q-6 -23 -20.5 -42.5t-24.5 -19.5q-7 0 -12.5 2t-12.5 6.5t-10 6.5q-13 6 -32 26t-19 29q0 17 8 37q5 13 51 96q6 10 32.5 47.5t41.5 63.5q16 26 29 26z M692 1462q62 0 62 -24q0 -13 -8.5 -59t-16.5 -72q-13 -49 -76 -197q-28 -68 -63 -197q-11 -35 -29 -83.5t-30.5 -80t-12.5 -36.5l-6 -172q-2 -27 -12.5 -100t-10.5 -99q0 -14 4.5 -43.5t4.5 -36.5q0 -34 -2 -104t-2 -78q0 -61 -9 -68q-7 -5 -27 -10.5t-36 -5.5q-38 0 -66 14 q-3 2 -5.5 7t-3.5 14t-1.5 17.5t-1 20.5t-0.5 19q0 32 5 85.5t5 84.5q0 8 -3 40t-3 48q0 91 6 158q1 7 10 79.5t11 129.5q-4 18 -34 65.5t-71.5 108t-56.5 86.5q-63 106 -127 270q-6 18 -26.5 58t-30.5 53q-19 27 -19 78q0 11 25 19.5t53 8.5q35 0 48 -8.5t16 -28.5 q2 -11 18 -42t37.5 -71t30.5 -61q42 -108 75 -172q17 -35 44 -78t48 -70.5t25 -27.5t10 17t14 43.5t13 39.5q5 11 21.5 70.5t35.5 104.5q56 131 90 254q8 32 78 32z" />
<glyph unicode="&#xde;" horiz-adv-x="739" d="M158 1487q24 0 64 -14t40 -31q0 -24 -8 -97t-8 -96q0 -113 10 -123q3 -3 14.5 -4.5t27.5 -2t21 -1.5q9 -1 58.5 -3.5t91 -7t59.5 -11.5q29 -11 69 -57t50 -74q31 -90 31 -183q0 -160 -60 -241q-19 -25 -52 -50.5t-58 -37.5q-21 -10 -96.5 -31t-94.5 -23q-6 -1 -22 -1.5 t-28 -1.5t-13 -3q-2 -4 -2 -47q0 -12 5 -74t5 -100q0 -31 -6.5 -100t-15.5 -72q-30 -10 -62 -10q-65 0 -65 22q0 4 2 29.5t4 63t2 69.5q0 33 -7.5 92.5t-7.5 79.5q0 39 5.5 107.5t5.5 107.5q0 16 -5.5 88t-5.5 113q0 35 4.5 121t4.5 108q0 28 -6.5 138t-6.5 118q0 27 6.5 94 t6.5 74q6 43 16 55q2 2 5.5 6.5t4.5 5.5t4 3t5.5 2h7.5zM262 979q-1 -3 -4 -40.5t-5.5 -90t-2.5 -86.5q0 -39 4 -125.5t6 -89.5q4 -3 22 -2.5t29 2.5q7 1 30 2t35 2.5t33 9t40 21.5q42 22 64 76t22 118q0 65 -19 113t-43 65q-12 9 -66 16.5t-95.5 9t-49.5 -0.5z" />
<glyph unicode="&#xdf;" horiz-adv-x="876" d="M434 1456q89 0 158 -31q65 -30 107 -119t42 -165q0 -170 -55 -322q-6 -18 -23.5 -42t-17.5 -29t8.5 -16t21.5 -25t17 -19q37 -50 53 -90q21 -54 33.5 -117.5t12.5 -101.5q0 -8 -2 -38.5t-3 -44t-3.5 -38t-7 -43.5t-11.5 -37q-24 -68 -80 -131q-27 -30 -79.5 -47.5 t-106.5 -17.5t-90 20q-61 38 -91 76q-14 24 -14 37q0 15 16 28q33 33 89 33q6 -1 32 -29t41 -28q20 0 53 8t39 14q74 41 74 230q0 120 -41 192q-2 3 -8.5 14.5t-10.5 17.5t-10.5 15t-12.5 15.5t-13 11.5l-10 7.5t-9.5 7t-8 5t-9.5 3.5t-12 2q-7 0 -28 -3.5t-28 -3.5 q-18 0 -44.5 29.5t-26.5 48.5q0 13 35 36t57 32q90 31 119 160q12 61 12 161q0 90 -41.5 142.5t-128.5 52.5q-37 0 -79 -7.5t-54 -19.5q-16 -16 -33 -223q0 -31 2 -92t2 -80q0 -18 -5 -50t-5 -46q0 -30 5 -106.5t5 -104.5q0 -46 -4 -138.5t-4 -121.5q0 -56 -2 -116.5 t-2 -66.5q0 -17 -5 -63t-5 -62q0 -12 -16 -20t-46 -8q-62 0 -69 10q-15 20 -15 66q0 12 6.5 42t6.5 42q0 10 3 59t3 100q0 39 2 126t2 151q0 22 -1 59t-2.5 87.5t-2.5 78.5q0 19 6 47.5t6 32.5q0 25 -3 71t-3 68q0 121 18 221q24 109 49 136q19 21 101 44t145 23z" />
<glyph unicode="&#xe0;" horiz-adv-x="827" d="M291 1589q12 0 28 -26q15 -26 41.5 -63.5t32.5 -47.5q46 -83 51 -96q9 -23 9 -37q0 -9 -19.5 -29t-32.5 -26q-4 -2 -10 -6.5t-11.5 -6.5t-12.5 -2q-10 0 -24.5 19.5t-20.5 42.5q-5 18 -22 39t-21 30q-7 15 -17 31t-23.5 36t-17.5 26q-24 40 -24 67q0 13 18.5 22.5 t32.5 12.5q1 0 14 7t29 7zM643 1171q26 0 40.5 -27t16.5 -59q5 -45 5 -65q0 -47 -11.5 -131t-11.5 -131q0 -18 6 -98t6 -101t-2 -52.5t-2 -43.5q0 -30 2.5 -54.5t3.5 -48.5q4 -110 4 -155q0 -20 6 -50.5t11 -33.5q4 -3 31 -7.5t30 -7.5q8 -8 8 -55q0 -41 -24 -55 q-20 -10 -80 -10q-30 0 -47.5 6t-23.5 12t-15 21q-2 4 -8 14t-10 16t-7 6q-5 0 -22.5 -15t-40.5 -33.5t-39 -24.5q-43 -15 -80 -15q-79 0 -153.5 43t-102.5 105q-20 39 -38.5 101t-22.5 112q-11 121 -11 209q0 127 5 215q0 81 43 188q43 102 151 139l31.5 10.5t31 10.5t26 7 t26.5 3q41 0 78 -12t59.5 -24.5t28.5 -12.5q4 0 6 5.5t2 11.5v6q1 4 1.5 19.5t2 27t4.5 14.5q5 4 42 12t44 8zM383 967q-28 0 -63.5 -12t-49.5 -33q-19 -22 -31 -59t-15 -57t-6 -76.5t-3 -61.5q-6 -52 -6 -101q0 -73 12 -213q2 -22 20.5 -86.5t28.5 -77.5q15 -25 52 -44 t69 -19q35 0 79.5 37.5t66.5 68.5q3 7 5 17t3.5 24t2.5 26.5t1.5 32.5t1 33.5t0.5 38.5v38v41v40q0 34 -12 115q-7 51 -7 90q0 21 9 109q0 44 -11 55q-32 28 -73.5 51t-73.5 23z" />
<glyph unicode="&#xe1;" horiz-adv-x="827" d="M545 1591q16 0 29 -7t14 -7q14 -3 32.5 -12.5t18.5 -22.5q0 -25 -25 -67q-49 -77 -57 -93q-4 -9 -21 -30t-22 -39q-6 -23 -20.5 -42.5t-24.5 -19.5q-7 0 -12.5 2t-12.5 6.5t-10 6.5q-13 6 -32 26t-19 29q0 17 8 37q5 13 51 96q6 10 32.5 47.5t41.5 63.5q16 26 29 26z M643 1171q26 0 40.5 -27t16.5 -59q5 -45 5 -65q0 -47 -11.5 -131t-11.5 -131q0 -18 6 -98t6 -101t-2 -52.5t-2 -43.5q0 -30 2.5 -54.5t3.5 -48.5q4 -110 4 -155q0 -20 6 -50.5t11 -33.5q4 -3 31 -7.5t30 -7.5q8 -8 8 -55q0 -41 -24 -55q-20 -10 -80 -10q-30 0 -47.5 6 t-23.5 12t-15 21q-2 4 -8 14t-10 16t-7 6q-5 0 -22.5 -15t-40.5 -33.5t-39 -24.5q-43 -15 -80 -15q-79 0 -153.5 43t-102.5 105q-20 39 -38.5 101t-22.5 112q-11 121 -11 209q0 127 5 215q0 81 43 188q43 102 151 139l31.5 10.5t31 10.5t26 7t26.5 3q41 0 78 -12t59.5 -24.5 t28.5 -12.5q4 0 6 5.5t2 11.5v6q1 4 1.5 19.5t2 27t4.5 14.5q5 4 42 12t44 8zM383 967q-28 0 -63.5 -12t-49.5 -33q-19 -22 -31 -59t-15 -57t-6 -76.5t-3 -61.5q-6 -52 -6 -101q0 -73 12 -213q2 -22 20.5 -86.5t28.5 -77.5q15 -25 52 -44t69 -19q35 0 79.5 37.5t66.5 68.5 q3 7 5 17t3.5 24t2.5 26.5t1.5 32.5t1 33.5t0.5 38.5v38v41v40q0 34 -12 115q-7 51 -7 90q0 21 9 109q0 44 -11 55q-32 28 -73.5 51t-73.5 23z" />
<glyph unicode="&#xe2;" horiz-adv-x="827" d="M446 1567h29q28 0 49 -49q5 -23 33 -68q4 -7 10.5 -18.5t12 -20.5t10.5 -16q51 -67 51 -109q0 -11 -32.5 -32t-43.5 -21q-14 0 -29.5 11t-19.5 24q-8 19 -35.5 64.5t-31.5 45.5q-13 0 -80 -108q-17 -29 -54 -29q-13 0 -43 31.5t-30 42.5q0 3 5 7.5t13 12.5t14 15 q10 13 23 32t24.5 36.5t14.5 21.5l70 90q26 37 40 37zM643 1171q26 0 40.5 -27t16.5 -59q5 -45 5 -65q0 -47 -11.5 -131t-11.5 -131q0 -18 6 -98t6 -101t-2 -52.5t-2 -43.5q0 -30 2.5 -54.5t3.5 -48.5q4 -110 4 -155q0 -20 6 -50.5t11 -33.5q4 -3 31 -7.5t30 -7.5 q8 -8 8 -55q0 -41 -24 -55q-20 -10 -80 -10q-30 0 -47.5 6t-23.5 12t-15 21q-2 4 -8 14t-10 16t-7 6q-5 0 -22.5 -15t-40.5 -33.5t-39 -24.5q-43 -15 -80 -15q-79 0 -153.5 43t-102.5 105q-20 39 -38.5 101t-22.5 112q-11 121 -11 209q0 127 5 215q0 81 43 188 q43 102 151 139l31.5 10.5t31 10.5t26 7t26.5 3q41 0 78 -12t59.5 -24.5t28.5 -12.5q4 0 6 5.5t2 11.5v6q1 4 1.5 19.5t2 27t4.5 14.5q5 4 42 12t44 8zM383 967q-28 0 -63.5 -12t-49.5 -33q-19 -22 -31 -59t-15 -57t-6 -76.5t-3 -61.5q-6 -52 -6 -101q0 -73 12 -213 q2 -22 20.5 -86.5t28.5 -77.5q15 -25 52 -44t69 -19q35 0 79.5 37.5t66.5 68.5q3 7 5 17t3.5 24t2.5 26.5t1.5 32.5t1 33.5t0.5 38.5v38v41v40q0 34 -12 115q-7 51 -7 90q0 21 9 109q0 44 -11 55q-32 28 -73.5 51t-73.5 23z" />
<glyph unicode="&#xe3;" horiz-adv-x="827" d="M598 1495q21 0 48.5 -15t27.5 -24q0 -10 -7.5 -36t-15.5 -40q-34 -56 -59.5 -75t-59.5 -19q-97 0 -139 37q-2 2 -12.5 11.5t-18.5 16t-18.5 13t-17.5 6.5t-13 -4t-10 -9t-8 -13t-5.5 -13.5t-4 -13t-2.5 -8.5q-1 -2 -1.5 -5t-1 -4t-2 -3.5t-4 -3t-6.5 -1.5t-10 -1.5 t-14 -0.5q-39 0 -66 21q-8 6 -8 37q0 16 14.5 44.5t36.5 53.5q37 43 96 43q20 0 53 -14t58 -35q4 -3 11.5 -9.5t10.5 -9t10 -6.5t13 -5.5t15 -3t20 -1.5q24 0 47 68q3 7 5.5 10.5t12 7.5t25.5 4zM643 1171q26 0 40.5 -27t16.5 -59q5 -45 5 -65q0 -47 -11.5 -131t-11.5 -131 q0 -18 6 -98t6 -101t-2 -52.5t-2 -43.5q0 -30 2.5 -54.5t3.5 -48.5q4 -110 4 -155q0 -20 6 -50.5t11 -33.5q4 -3 31 -7.5t30 -7.5q8 -8 8 -55q0 -41 -24 -55q-20 -10 -80 -10q-30 0 -47.5 6t-23.5 12t-15 21q-2 4 -8 14t-10 16t-7 6q-5 0 -22.5 -15t-40.5 -33.5t-39 -24.5 q-43 -15 -80 -15q-79 0 -153.5 43t-102.5 105q-20 39 -38.5 101t-22.5 112q-11 121 -11 209q0 127 5 215q0 81 43 188q43 102 151 139l31.5 10.5t31 10.5t26 7t26.5 3q41 0 78 -12t59.5 -24.5t28.5 -12.5q4 0 6 5.5t2 11.5v6q1 4 1.5 19.5t2 27t4.5 14.5q5 4 42 12t44 8z M383 967q-28 0 -63.5 -12t-49.5 -33q-19 -22 -31 -59t-15 -57t-6 -76.5t-3 -61.5q-6 -52 -6 -101q0 -73 12 -213q2 -22 20.5 -86.5t28.5 -77.5q15 -25 52 -44t69 -19q35 0 79.5 37.5t66.5 68.5q3 7 5 17t3.5 24t2.5 26.5t1.5 32.5t1 33.5t0.5 38.5v38v41v40q0 34 -12 115 q-7 51 -7 90q0 21 9 109q0 44 -11 55q-32 28 -73.5 51t-73.5 23z" />
<glyph unicode="&#xe4;" horiz-adv-x="827" d="M301 1479q10 0 16.5 -1.5t8.5 -2t8.5 -5t9.5 -6.5q25 -17 25 -75q0 -36 -17 -63.5t-47 -27.5q-55 0 -69 21q-9 14 -17 38.5t-8 41.5q0 28 15.5 53t39.5 25q4 0 16 1t19 1zM606 1473q61 0 74 -19q16 -24 16 -80q0 -30 -13 -56t-38 -26q-48 0 -78 17q-24 17 -24 75 q0 36 16.5 62.5t46.5 26.5zM643 1171q26 0 40.5 -27t16.5 -59q5 -45 5 -65q0 -47 -11.5 -131t-11.5 -131q0 -18 6 -98t6 -101t-2 -52.5t-2 -43.5q0 -30 2.5 -54.5t3.5 -48.5q4 -110 4 -155q0 -20 6 -50.5t11 -33.5q4 -3 31 -7.5t30 -7.5q8 -8 8 -55q0 -41 -24 -55 q-20 -10 -80 -10q-30 0 -47.5 6t-23.5 12t-15 21q-2 4 -8 14t-10 16t-7 6q-5 0 -22.5 -15t-40.5 -33.5t-39 -24.5q-43 -15 -80 -15q-79 0 -153.5 43t-102.5 105q-20 39 -38.5 101t-22.5 112q-11 121 -11 209q0 127 5 215q0 81 43 188q43 102 151 139l31.5 10.5t31 10.5t26 7 t26.5 3q41 0 78 -12t59.5 -24.5t28.5 -12.5q4 0 6 5.5t2 11.5v6q1 4 1.5 19.5t2 27t4.5 14.5q5 4 42 12t44 8zM383 967q-28 0 -63.5 -12t-49.5 -33q-19 -22 -31 -59t-15 -57t-6 -76.5t-3 -61.5q-6 -52 -6 -101q0 -73 12 -213q2 -22 20.5 -86.5t28.5 -77.5q15 -25 52 -44 t69 -19q35 0 79.5 37.5t66.5 68.5q3 7 5 17t3.5 24t2.5 26.5t1.5 32.5t1 33.5t0.5 38.5v38v41v40q0 34 -12 115q-7 51 -7 90q0 21 9 109q0 44 -11 55q-32 28 -73.5 51t-73.5 23z" />
<glyph unicode="&#xe5;" horiz-adv-x="827" d="M426 1552q83 0 135.5 -41t52.5 -127q0 -63 -43 -116q-44 -51 -135 -51q-82 0 -136 40t-54 111q0 92 50 138t130 46zM436 1454q-43 0 -63 -18q-19 -19 -19 -60q0 -23 17.5 -40t46.5 -17q94 0 94 59q0 32 -20.5 54t-55.5 22zM643 1171q26 0 40.5 -27t16.5 -59q5 -45 5 -65 q0 -47 -11.5 -131t-11.5 -131q0 -18 6 -98t6 -101t-2 -52.5t-2 -43.5q0 -30 2.5 -54.5t3.5 -48.5q4 -110 4 -155q0 -20 6 -50.5t11 -33.5q4 -3 31 -7.5t30 -7.5q8 -8 8 -55q0 -41 -24 -55q-20 -10 -80 -10q-30 0 -47.5 6t-23.5 12t-15 21q-2 4 -8 14t-10 16t-7 6 q-5 0 -22.5 -15t-40.5 -33.5t-39 -24.5q-43 -15 -80 -15q-79 0 -153.5 43t-102.5 105q-20 39 -38.5 101t-22.5 112q-11 121 -11 209q0 127 5 215q0 81 43 188q43 102 151 139l31.5 10.5t31 10.5t26 7t26.5 3q41 0 78 -12t59.5 -24.5t28.5 -12.5q4 0 6 5.5t2 11.5v6 q1 4 1.5 19.5t2 27t4.5 14.5q5 4 42 12t44 8zM383 967q-28 0 -63.5 -12t-49.5 -33q-19 -22 -31 -59t-15 -57t-6 -76.5t-3 -61.5q-6 -52 -6 -101q0 -73 12 -213q2 -22 20.5 -86.5t28.5 -77.5q15 -25 52 -44t69 -19q35 0 79.5 37.5t66.5 68.5q3 7 5 17t3.5 24t2.5 26.5 t1.5 32.5t1 33.5t0.5 38.5v38v41v40q0 34 -12 115q-7 51 -7 90q0 21 9 109q0 44 -11 55q-32 28 -73.5 51t-73.5 23z" />
<glyph unicode="&#xe6;" horiz-adv-x="1155" d="M326 1128q85 0 143 -34q20 -11 43.5 -37t38.5 -46t16 -20l10 13q10 14 29 33t46 38.5t69.5 33t91.5 13.5q37 0 56.5 -5.5t58.5 -22.5q72 -34 111 -109.5t51 -167.5q14 -98 14 -174q0 -33 -13.5 -81t-23.5 -56q-3 -3 -13.5 -4.5t-25 -2t-26.5 -0.5t-26.5 0.5t-17.5 0.5 q-20 0 -80 2t-71 2q-35 0 -102.5 -6t-71.5 -15q-7 -17 29 -180q9 -51 32 -92q18 -35 45 -55q18 -16 36 -23t27.5 -7.5t35.5 -0.5q28 0 44.5 17.5t37.5 56.5q4 7 20 80q11 45 29 45q33 0 69 -9q12 -2 27.5 -11.5t15.5 -22.5q0 -17 -9.5 -64t-16.5 -65q-12 -27 -50 -74.5 t-79 -67.5q-57 -28 -121 -28q-102 0 -203 104l-29 31q-1 0 -16.5 -19.5t-42.5 -45t-53 -38.5q-76 -39 -154 -39q-153 0 -207 76q-14 17 -36 71l-1 3q-22 47 -22 147q0 82 31 164q32 85 209 148q21 7 44.5 12t55 10t47.5 8l43 7v49q0 2 6 71q7 60 -6 97q-27 84 -59 120 q-27 27 -88 27q-27 0 -59.5 -22t-43.5 -58q-20 -61 -26 -69q-12 -15 -58 -15q-44 0 -61 8.5t-17 32.5q0 18 3.5 35t6.5 26t10 26t9 22q30 78 80 110q73 47 158 47zM827 981q-38 0 -65 -8q-31 -9 -51.5 -34t-36 -63.5t-17.5 -41.5q-3 -5 -12.5 -18.5t-13.5 -22t-8.5 -28 t-4.5 -44.5q0 -80 11 -84q22 -7 164 8q22 3 64 1.5t65 -3t34 1.5q9 7 5 51q-1 9 -4 44.5t-5.5 53.5t-9 47t-17 52t-26.5 43q-4 4 -10.5 12t-8.5 10.5t-7.5 7.5t-9 6.5t-9 4t-12 3.5t-15.5 1zM479 481q-2 1 -10.5 0t-18.5 -2.5t-12 -1.5q-53 -9 -107 -25.5t-77 -31.5 q-4 -3 -14.5 -9.5t-15 -9t-12 -9t-11 -11.5t-7.5 -12.5t-6 -16.5q-4 -27 -4 -82q0 -72 25.5 -112.5t91.5 -40.5q115 0 160 96q1 2 6.5 19.5t9 30.5t8 34t7 44.5t2.5 47.5q0 12 -6 51.5t-9 40.5z" />
<glyph unicode="&#xe7;" horiz-adv-x="698" d="M614 315q12 -2 27.5 -11.5t15.5 -22.5q0 -17 -9.5 -64t-16.5 -65q-12 -27 -50 -74.5t-79 -67.5q-47 -23 -79 -30q-20 -44 -17 -50q1 -2 24.5 -10.5t49.5 -21.5t34 -27q31 -53 31 -84q0 -58 -51 -106q-32 -31 -71 -40.5t-95 -9.5q-33 0 -97.5 33.5t-64.5 65.5q0 11 32 35 t42 24q3 0 40 -21.5t60 -23.5q25 0 52.5 9t27.5 24q0 22 -24 37.5t-50 21.5q-25 5 -51.5 19t-26.5 26q0 33 27 97q-56 9 -98 35.5t-65 64.5t-34.5 75.5t-15.5 79.5q-6 67 -6 148q0 15 -1 41t-1 39q0 49 -6.5 159t-6.5 121q0 74 35 176t97 164q58 58 182 58q139 0 215 -107 q57 -86 57 -125q0 -13 -47 -41q-40 -24 -41 -24q-8 0 -25.5 15.5t-25.5 33.5q-29 56 -61 79t-78 23q-71 0 -93 -49q-67 -128 -67 -205q0 -26 8 -132.5t8 -160.5q0 -152 11 -204q11 -57 37 -88t87 -31q28 0 82 29q44 23 54 47q4 7 20 80q11 45 29 45q33 0 69 -9z" />
<glyph unicode="&#xe8;" horiz-adv-x="737" d="M219 1589q13 0 29 -26q15 -26 41.5 -63.5t32.5 -47.5q46 -83 51 -96q8 -20 8 -37q0 -9 -19 -29t-32 -26q-3 -2 -10 -6.5t-12.5 -6.5t-12.5 -2q-10 0 -24.5 19.5t-20.5 42.5q-5 18 -22 39t-21 30q-8 16 -57 93q-25 42 -25 67q0 13 18.5 22.5t32.5 12.5q1 0 14 7t29 7z M381 1135q122 0 205 -95q51 -60 70.5 -119.5t19.5 -166.5v-74q0 -23 -9 -74.5t-20 -64.5q-20 -25 -115 -25q-14 0 -139 11.5t-139 11.5q-35 0 -35 -15q0 -65 2 -92q1 -4 5.5 -36.5t8.5 -61.5t10 -60.5t11 -42.5q11 -31 54 -69.5t85 -38.5q39 0 54.5 10t42.5 45 q14 19 18.5 39t4 36t1.5 21q7 19 49 19q28 0 64 -8q19 -4 24.5 -22t5.5 -58q0 -16 -13.5 -49t-37.5 -62q-35 -43 -49.5 -58t-40 -32t-53.5 -20.5t-76 -3.5q-41 0 -84 12q-50 20 -96 62t-70 83q-10 17 -16.5 38t-9 33.5t-8 45t-7.5 45.5q-37 177 -37 348q0 55 17.5 164 t32.5 147q30 67 96 117q76 60 174 60zM377 989q-37 0 -77.5 -29t-59.5 -67q-9 -20 -19 -75t-10 -93q0 -17 6 -23q2 -2 9 -3t21.5 -3t26.5 -4q143 -26 177 -26q14 0 40.5 5t32.5 9q11 8 11 53q0 92 -17 144q-9 32 -22.5 50.5t-40.5 35.5q-44 26 -78 26z" />
<glyph unicode="&#xe9;" horiz-adv-x="737" d="M473 1591q16 0 29 -7t14 -7q14 -3 32.5 -12.5t18.5 -22.5q0 -27 -24 -67q-4 -6 -17.5 -26t-23.5 -36t-17 -31q-4 -9 -21 -30t-22 -39q-6 -23 -20.5 -42.5t-24.5 -19.5q-7 0 -12.5 2t-12.5 6.5t-10 6.5q-13 6 -32 26t-19 29q0 17 8 37q3 8 52 96q6 10 32 47.5t41 63.5 q16 26 29 26zM381 1135q122 0 205 -95q51 -60 70.5 -119.5t19.5 -166.5v-74q0 -23 -9 -74.5t-20 -64.5q-20 -25 -115 -25q-14 0 -139 11.5t-139 11.5q-35 0 -35 -15q0 -65 2 -92q1 -4 5.5 -36.5t8.5 -61.5t10 -60.5t11 -42.5q11 -31 54 -69.5t85 -38.5q39 0 54.5 10t42.5 45 q14 19 18.5 39t4 36t1.5 21q7 19 49 19q28 0 64 -8q19 -4 24.5 -22t5.5 -58q0 -16 -13.5 -49t-37.5 -62q-35 -43 -49.5 -58t-40 -32t-53.5 -20.5t-76 -3.5q-41 0 -84 12q-50 20 -96 62t-70 83q-10 17 -16.5 38t-9 33.5t-8 45t-7.5 45.5q-37 177 -37 348q0 55 17.5 164 t32.5 147q30 67 96 117q76 60 174 60zM377 989q-37 0 -77.5 -29t-59.5 -67q-9 -20 -19 -75t-10 -93q0 -17 6 -23q2 -2 9 -3t21.5 -3t26.5 -4q143 -26 177 -26q14 0 40.5 5t32.5 9q11 8 11 53q0 92 -17 144q-9 32 -22.5 50.5t-40.5 35.5q-44 26 -78 26z" />
<glyph unicode="&#xea;" horiz-adv-x="737" d="M375 1567h28q29 0 50 -49q6 -25 32 -68q4 -7 10.5 -18.5t12 -20.5t10.5 -16q51 -67 51 -109q0 -11 -32 -32t-43 -21q-14 0 -30 11t-20 24q-8 19 -35.5 64.5t-31.5 45.5q-13 0 -80 -108q-17 -29 -53 -29q-13 0 -43.5 31.5t-30.5 42.5q0 3 5 7.5t13.5 12.5t14.5 15 q14 17 37 53t24 37l70 90q26 37 41 37zM381 1135q122 0 205 -95q51 -60 70.5 -119.5t19.5 -166.5v-74q0 -23 -9 -74.5t-20 -64.5q-20 -25 -115 -25q-14 0 -139 11.5t-139 11.5q-35 0 -35 -15q0 -65 2 -92q1 -4 5.5 -36.5t8.5 -61.5t10 -60.5t11 -42.5q11 -31 54 -69.5 t85 -38.5q39 0 54.5 10t42.5 45q14 19 18.5 39t4 36t1.5 21q7 19 49 19q28 0 64 -8q19 -4 24.5 -22t5.5 -58q0 -16 -13.5 -49t-37.5 -62q-35 -43 -49.5 -58t-40 -32t-53.5 -20.5t-76 -3.5q-41 0 -84 12q-50 20 -96 62t-70 83q-10 17 -16.5 38t-9 33.5t-8 45t-7.5 45.5 q-37 177 -37 348q0 55 17.5 164t32.5 147q30 67 96 117q76 60 174 60zM377 989q-37 0 -77.5 -29t-59.5 -67q-9 -20 -19 -75t-10 -93q0 -17 6 -23q2 -2 9 -3t21.5 -3t26.5 -4q143 -26 177 -26q14 0 40.5 5t32.5 9q11 8 11 53q0 92 -17 144q-9 32 -22.5 50.5t-40.5 35.5 q-44 26 -78 26z" />
<glyph unicode="&#xeb;" horiz-adv-x="737" d="M229 1479q10 0 16.5 -1.5t8.5 -2t8.5 -5t9.5 -6.5q25 -17 25 -75q0 -36 -17 -63.5t-47 -27.5q-55 0 -69 21q-9 14 -17 38.5t-8 41.5q0 28 16 53t40 25q3 0 15 1t19 1zM535 1473q60 0 73 -19q17 -26 17 -80q0 -30 -13.5 -56t-38.5 -26q-47 0 -77 17q-25 17 -25 75 q0 35 17 62t47 27zM381 1135q122 0 205 -95q51 -60 70.5 -119.5t19.5 -166.5v-74q0 -23 -9 -74.5t-20 -64.5q-20 -25 -115 -25q-14 0 -139 11.5t-139 11.5q-35 0 -35 -15q0 -65 2 -92q1 -4 5.5 -36.5t8.5 -61.5t10 -60.5t11 -42.5q11 -31 54 -69.5t85 -38.5q39 0 54.5 10 t42.5 45q14 19 18.5 39t4 36t1.5 21q7 19 49 19q28 0 64 -8q19 -4 24.5 -22t5.5 -58q0 -16 -13.5 -49t-37.5 -62q-35 -43 -49.5 -58t-40 -32t-53.5 -20.5t-76 -3.5q-41 0 -84 12q-50 20 -96 62t-70 83q-10 17 -16.5 38t-9 33.5t-8 45t-7.5 45.5q-37 177 -37 348 q0 55 17.5 164t32.5 147q30 67 96 117q76 60 174 60zM377 989q-37 0 -77.5 -29t-59.5 -67q-9 -20 -19 -75t-10 -93q0 -17 6 -23q2 -2 9 -3t21.5 -3t26.5 -4q143 -26 177 -26q14 0 40.5 5t32.5 9q11 8 11 53q0 92 -17 144q-9 32 -22.5 50.5t-40.5 35.5q-44 26 -78 26z" />
<glyph unicode="&#xec;" horiz-adv-x="358" d="M113 1591q8 0 16.5 -12t41.5 -71q6 -11 10 -17.5t10 -17.5t12 -21q17 -30 39 -94q10 -25 10 -43q0 -9 -11.5 -23t-23.5 -20q-3 -2 -13.5 -8.5t-19.5 -10.5t-16 -4q-10 0 -24.5 19.5t-20.5 42.5q-4 14 -8.5 24.5t-11.5 22.5t-11 20q-3 7 -19.5 43.5t-25.5 51.5 q-24 40 -24 67q0 13 14 22.5t24 12.5l10 5t19 7.5t23 3.5zM152 1100q32 0 49 -3t22 -5.5t17 -12.5q20 -16 20 -92q0 -82 -8 -184q-10 -85 -10 -139q0 -34 7 -105t7 -110q0 -96 -10 -209q-4 -68 -4 -209q0 -21 -1 -29t-7.5 -14t-20.5 -6q-80 0 -92 8l-3 3q-4 3 -7 6t-6 7.5 t-5 9.5t-2 11q0 83 4 227q1 24 5 98t4 117q0 24 -5.5 74t-5.5 78q0 46 6 130.5t7 137.5q0 41 -4.5 96t-4.5 76v10v8.5t0.5 6t2.5 6t5.5 4t9 3t13 1t17.5 0.5z" />
<glyph unicode="&#xed;" horiz-adv-x="358" d="M274 1591q12 0 23 -3.5t19 -7.5l10 -5q11 -3 25 -12.5t14 -22.5q0 -25 -25 -67q-9 -15 -25.5 -51.5t-19.5 -43.5q-4 -8 -11 -20t-11.5 -22.5t-8.5 -24.5q-6 -23 -20.5 -42.5t-24.5 -19.5q-7 0 -16 4t-19.5 10.5t-13.5 8.5q-12 6 -23.5 20t-11.5 23q0 18 10 43 q22 64 39 94q71 125 78 132q6 7 12 7zM152 1100q32 0 49 -3t22 -5.5t17 -12.5q20 -16 20 -92q0 -82 -8 -184q-10 -85 -10 -139q0 -34 7 -105t7 -110q0 -96 -10 -209q-4 -68 -4 -209q0 -21 -1 -29t-7.5 -14t-20.5 -6q-80 0 -92 8l-3 3q-4 3 -7 6t-6 7.5t-5 9.5t-2 11 q0 83 4 227q1 24 5 98t4 117q0 24 -5.5 74t-5.5 78q0 46 6 130.5t7 137.5q0 41 -4.5 96t-4.5 76v10v8.5t0.5 6t2.5 6t5.5 4t9 3t13 1t17.5 0.5z" />
<glyph unicode="&#xee;" horiz-adv-x="358" d="M176 1571l43 -2q10 0 22.5 -13t22.5 -38q13 -38 23 -52q8 -11 17 -31t13 -26q19 -29 37.5 -74.5t18.5 -68.5q0 -10 -32 -18.5t-48 -8.5q-12 0 -26.5 11t-18.5 26q-6 18 -32.5 67.5t-29.5 49.5q-8 0 -34 -43t-39 -72q-16 -31 -52 -31q-14 0 -41.5 24.5t-27.5 35.5 q0 13 28 55l60 94q42 57 55 76q20 39 41 39zM152 1100q32 0 49 -3t22 -5.5t17 -12.5q20 -16 20 -92q0 -82 -8 -184q-10 -85 -10 -139q0 -34 7 -105t7 -110q0 -96 -10 -209q-4 -68 -4 -209q0 -21 -1 -29t-7.5 -14t-20.5 -6q-80 0 -92 8l-3 3q-4 3 -7 6t-6 7.5t-5 9.5t-2 11 q0 83 4 227q1 24 5 98t4 117q0 24 -5.5 74t-5.5 78q0 46 6 130.5t7 137.5q0 41 -4.5 96t-4.5 76v10v8.5t0.5 6t2.5 6t5.5 4t9 3t13 1t17.5 0.5z" />
<glyph unicode="&#xef;" horiz-adv-x="358" d="M66 1477q10 0 16.5 -1.5t8.5 -2t8.5 -5t9.5 -6.5q24 -17 24 -76q0 -36 -16.5 -63t-46.5 -27q-48 0 -62 21q-9 14 -16.5 38.5t-7.5 41.5q0 33 18 57q14 23 64 23zM285 1470q55 0 67 -18q17 -26 17 -80q0 -30 -13.5 -56t-38.5 -26q-41 0 -71 17q-25 17 -25 75q0 35 17 61.5 t47 26.5zM152 1100q32 0 49 -3t22 -5.5t17 -12.5q20 -16 20 -92q0 -82 -8 -184q-10 -85 -10 -139q0 -34 7 -105t7 -110q0 -96 -10 -209q-4 -68 -4 -209q0 -21 -1 -29t-7.5 -14t-20.5 -6q-80 0 -92 8l-3 3q-4 3 -7 6t-6 7.5t-5 9.5t-2 11q0 83 4 227q1 24 5 98t4 117 q0 24 -5.5 74t-5.5 78q0 46 6 130.5t7 137.5q0 41 -4.5 96t-4.5 76v10v8.5t0.5 6t2.5 6t5.5 4t9 3t13 1t17.5 0.5z" />
<glyph unicode="&#xf0;" horiz-adv-x="833" d="M496 1546q16 0 49 -21t33 -38q0 -5 -6.5 -18.5t-17 -31.5t-13.5 -24l-17 -35q0 -5 11 -16q6 -7 19.5 -22t22 -25t19 -23.5t16.5 -25.5q74 -135 88 -213q9 -42 33 -201q19 -120 19 -227q0 -38 -8.5 -106t-10.5 -95q-8 -165 -31 -227q-23 -63 -49 -106t-69 -68 q-69 -41 -164 -41q-45 0 -115 8q-66 13 -116.5 64t-75.5 120q-52 172 -52 236q0 92 2 139l15 160q12 131 43 194q37 76 115 137q80 54 124 54q63 0 132 -21q42 -14 49 -14q3 2 1 12.5t-5 22.5q-4 20 -33 73q-41 76 -47 76q-7 0 -25 -37q-6 -12 -18.5 -26.5t-16.5 -14.5 q-18 0 -28 4q-7 2 -18 7.5l-15 7.5l-9 4.5t-11.5 6t-8.5 8t-4 11.5q0 16 19.5 63.5t19.5 49.5q-16 4 -76 14q-9 1 -32 3.5t-37.5 4.5t-18.5 5q-6 4 -8.5 6.5t-4 12.5t-1.5 30q0 53 22 67q15 9 35 9q10 1 21.5 1t24 -0.5t18.5 -0.5q35 -2 96 -17q24 -6 29 -6q12 17 14 21 q10 19 22 34q15 20 24.5 27.5t25.5 7.5zM375 950q-23 0 -64 -35q-36 -31 -57 -88q-30 -80 -35 -184q0 -3 -7.5 -103.5t-6.5 -127.5q2 -19 16 -82.5t21 -85.5q21 -61 65 -94q40 -27 109 -27q36 0 76 14q19 10 30 23q39 76 51 125q17 70 17 127q0 51 8 137q0 17 3.5 56.5 t2.5 60.5l-6 92q-11 96 -18 114q-3 8 -66 41q-23 12 -64 24.5t-75 12.5z" />
<glyph unicode="&#xf1;" horiz-adv-x="800" d="M594 1495q21 0 48.5 -15t27.5 -24q0 -10 -7.5 -36t-15.5 -40q-34 -56 -59.5 -75t-59.5 -19q-97 0 -139 37q-2 2 -12.5 11.5t-18.5 16t-18.5 13t-17.5 6.5t-13 -4t-10 -9t-8 -13t-5.5 -13.5t-4 -13t-2.5 -8.5q-1 -2 -1.5 -5t-1 -4t-2 -3.5t-4 -3t-6.5 -1.5t-10 -1.5 t-14 -0.5q-39 0 -66 21q-8 6 -8 37q0 16 14.5 44.5t36.5 53.5q37 43 96 43q20 0 53 -14t58 -35q4 -3 11.5 -9.5t10.5 -9t10 -6.5t13 -5.5t15 -3t20 -1.5q24 0 47 68q3 7 5.5 10.5t12 7.5t25.5 4zM154 1130q72 0 86 -12q6 -4 8 -26.5t3 -42t3 -19.5q58 42 130.5 68t137.5 26 q43 0 87.5 -28.5t68.5 -73.5q13 -23 23 -88t10 -127q0 -156 -6 -264q-1 -18 -9 -72.5t-8 -83.5q0 -54 5 -155.5t5 -106.5q0 -6 3.5 -43.5t3.5 -42.5q0 -18 -9 -27q-28 -22 -88 -22q-14 0 -27.5 18t-17.5 33q-10 45 -10 102q0 91 -4 136q-1 12 -4.5 51.5t-3.5 60.5 q0 49 12 162.5t12 159.5q0 196 -10 217q-9 19 -33.5 34t-50.5 15q-46 0 -114.5 -44.5t-75.5 -70.5q-9 -46 -9 -272q0 -40 -10.5 -115.5t-11.5 -109.5l-4 -119q-3 -30 -4 -80t-1 -86.5t-1 -40.5q-4 -29 -21.5 -37t-50.5 -8q-47 0 -64 20q-6 21 -6 41q0 8 1 24t1 23v58 q3 35 5.5 122.5t9.5 135.5q14 114 14 149q0 68 -4 210t-4 218q0 14 -5 57.5t-5 49.5q0 17 9 21.5t34 4.5z" />
<glyph unicode="&#xf2;" horiz-adv-x="768" d="M266 1589q13 0 29 -26q15 -26 41.5 -63.5t32.5 -47.5q46 -83 51 -96q8 -20 8 -37q0 -9 -19 -29t-32 -26q-3 -2 -10 -6.5t-12.5 -6.5t-12.5 -2q-10 0 -24.5 19.5t-20.5 42.5q-5 18 -22 39t-21 30q-8 16 -57 93q-25 42 -25 67q0 13 18.5 22.5t32.5 12.5q1 0 14 7t29 7z M352 1133q30 0 82.5 -8t79.5 -19q53 -24 92 -74t57.5 -102.5t26.5 -110.5q17 -143 17 -258q0 -173 -29 -323q-9 -43 -33.5 -101t-44.5 -82q-22 -27 -96.5 -54.5t-138.5 -27.5q-136 0 -224 133q-43 65 -61.5 241.5t-18.5 273.5q0 49 20 155.5t54 173.5q91 183 217 183z M360 987q-26 0 -49 -27.5t-51 -85.5q-28 -57 -42.5 -130t-14.5 -121q0 -82 14.5 -236.5t42.5 -191.5q61 -78 105 -78q27 0 75.5 16.5t63.5 40.5q9 16 22 68.5t17 81.5q2 11 7 42t7.5 51t5 57t2.5 77q0 119 -30 307q-10 60 -60 94.5t-115 34.5z" />
<glyph unicode="&#xf3;" horiz-adv-x="768" d="M520 1591q16 0 29 -7t14 -7q14 -3 32.5 -12.5t18.5 -22.5q0 -27 -24 -67q-4 -6 -17.5 -26t-23.5 -36t-17 -31q-4 -9 -21 -30t-22 -39q-6 -23 -20.5 -42.5t-24.5 -19.5q-7 0 -12.5 2t-11.5 6.5t-10 6.5q-13 6 -32.5 26t-19.5 29q0 15 9 37q5 13 51 96q6 10 32.5 47.5 t41.5 63.5q16 26 28 26zM352 1133q30 0 82.5 -8t79.5 -19q53 -24 92 -74t57.5 -102.5t26.5 -110.5q17 -143 17 -258q0 -173 -29 -323q-9 -43 -33.5 -101t-44.5 -82q-22 -27 -96.5 -54.5t-138.5 -27.5q-136 0 -224 133q-43 65 -61.5 241.5t-18.5 273.5q0 49 20 155.5 t54 173.5q91 183 217 183zM360 987q-26 0 -49 -27.5t-51 -85.5q-28 -57 -42.5 -130t-14.5 -121q0 -82 14.5 -236.5t42.5 -191.5q61 -78 105 -78q27 0 75.5 16.5t63.5 40.5q9 16 22 68.5t17 81.5q2 11 7 42t7.5 51t5 57t2.5 77q0 119 -30 307q-10 60 -60 94.5t-115 34.5z" />
<glyph unicode="&#xf4;" horiz-adv-x="768" d="M422 1567h29q28 0 49 -49q6 -25 32 -68q4 -7 10.5 -18.5t12 -20.5t10.5 -16q51 -67 51 -109q0 -11 -32 -32t-43 -21q-14 0 -29.5 11t-19.5 24q-8 19 -36 64.5t-32 45.5q-13 0 -80 -108q-17 -29 -53 -29q-13 0 -43.5 31.5t-30.5 42.5q0 3 5 7.5t13.5 12.5t14.5 15 q14 17 37 53t24 37l70 90q26 37 41 37zM352 1133q30 0 82.5 -8t79.5 -19q53 -24 92 -74t57.5 -102.5t26.5 -110.5q17 -143 17 -258q0 -173 -29 -323q-9 -43 -33.5 -101t-44.5 -82q-22 -27 -96.5 -54.5t-138.5 -27.5q-136 0 -224 133q-43 65 -61.5 241.5t-18.5 273.5 q0 49 20 155.5t54 173.5q91 183 217 183zM360 987q-26 0 -49 -27.5t-51 -85.5q-28 -57 -42.5 -130t-14.5 -121q0 -82 14.5 -236.5t42.5 -191.5q61 -78 105 -78q27 0 75.5 16.5t63.5 40.5q9 16 22 68.5t17 81.5q2 11 7 42t7.5 51t5 57t2.5 77q0 119 -30 307q-10 60 -60 94.5 t-115 34.5z" />
<glyph unicode="&#xf5;" horiz-adv-x="768" d="M573 1495q21 0 48.5 -15t27.5 -24q0 -11 -7 -36.5t-15 -39.5q-34 -56 -59.5 -75t-59.5 -19q-97 0 -139 37q-2 1 -12.5 11t-18.5 16.5t-19 13t-18 6.5t-13 -4t-10 -9t-8 -13t-5.5 -13.5t-4 -13t-2.5 -8.5q-1 -2 -1.5 -5t-1 -4t-2 -3.5t-4 -3t-6.5 -1.5t-10 -1.5t-14 -0.5 q-38 0 -65 21q-9 7 -9 37q0 16 15 44.5t37 53.5q37 43 96 43q20 0 52.5 -14t57.5 -35q4 -3 11.5 -9.5t10.5 -9t10 -6.5t13 -5.5t15 -3t20 -1.5q24 0 47 68q3 7 5.5 10.5t12 7.5t25.5 4zM352 1133q30 0 82.5 -8t79.5 -19q53 -24 92 -74t57.5 -102.5t26.5 -110.5 q17 -143 17 -258q0 -173 -29 -323q-9 -43 -33.5 -101t-44.5 -82q-22 -27 -96.5 -54.5t-138.5 -27.5q-136 0 -224 133q-43 65 -61.5 241.5t-18.5 273.5q0 49 20 155.5t54 173.5q91 183 217 183zM360 987q-26 0 -49 -27.5t-51 -85.5q-28 -57 -42.5 -130t-14.5 -121 q0 -82 14.5 -236.5t42.5 -191.5q61 -78 105 -78q27 0 75.5 16.5t63.5 40.5q9 16 22 68.5t17 81.5q2 11 7 42t7.5 51t5 57t2.5 77q0 119 -30 307q-10 60 -60 94.5t-115 34.5z" />
<glyph unicode="&#xf6;" horiz-adv-x="768" d="M276 1479q10 0 16.5 -1.5t8.5 -2t8.5 -5t9.5 -6.5q25 -17 25 -75q0 -36 -16.5 -63.5t-46.5 -27.5q-56 0 -70 21q-9 14 -17 38.5t-8 41.5q0 28 16 53t40 25q4 0 16 1t18 1zM582 1473q60 0 73 -19q17 -26 17 -80q0 -30 -13 -56t-38 -26q-48 0 -78 17q-25 17 -25 75 q0 35 17 62t47 27zM352 1133q30 0 82.5 -8t79.5 -19q53 -24 92 -74t57.5 -102.5t26.5 -110.5q17 -143 17 -258q0 -173 -29 -323q-9 -43 -33.5 -101t-44.5 -82q-22 -27 -96.5 -54.5t-138.5 -27.5q-136 0 -224 133q-43 65 -61.5 241.5t-18.5 273.5q0 49 20 155.5t54 173.5 q91 183 217 183zM360 987q-26 0 -49 -27.5t-51 -85.5q-28 -57 -42.5 -130t-14.5 -121q0 -82 14.5 -236.5t42.5 -191.5q61 -78 105 -78q27 0 75.5 16.5t63.5 40.5q9 16 22 68.5t17 81.5q2 11 7 42t7.5 51t5 57t2.5 77q0 119 -30 307q-10 60 -60 94.5t-115 34.5z" />
<glyph unicode="&#xf7;" horiz-adv-x="831" d="M430 1178q28 0 40 -7.5t19 -23.5q19 -43 19 -70q0 -52 -17 -74t-65 -22q-51 0 -72.5 17t-21.5 73q0 28 10.5 57.5t34.5 38.5q29 11 53 11zM88 795q52 0 117.5 -6.5t68.5 -6.5q34 0 85.5 -1t70.5 -1q22 0 78 -5t84 -5q22 0 83 4t75 4q9 0 14.5 -39.5t5.5 -64.5 q0 -24 -16 -35q-18 -12 -160 -12q-11 0 -83 7t-85 7q-44 0 -92.5 -0.5t-81 -1t-37.5 -0.5q-21 1 -61 6t-60 6q-33 6 -33 88q0 25 9 40.5t18 15.5zM416 492q55 0 73 -23q19 -24 19 -55q0 -95 -19 -107q-26 -16 -69 -16q-33 0 -55 22q-17 17 -17 54l-2 51q0 33 12 49 q19 25 58 25z" />
<glyph unicode="&#xf8;" horiz-adv-x="768" d="M690 819q17 -143 17 -258q0 -173 -29 -323q-9 -43 -33.5 -101t-44.5 -82q-22 -27 -96.5 -54.5t-138.5 -27.5q-14 0 -42 4l-6 -20q-13 -47 -36 -47q-24 0 -63.5 27t-39.5 40q0 35 11 71q-29 29 -48 58q-43 65 -61.5 241.5t-18.5 273.5q0 49 20 155.5t54 173.5 q91 183 217 183q41 0 101 -11q33 82 41 82q3 0 19 3t32 3t40.5 -17.5t24.5 -27.5q0 -13 -32 -102q91 -84 112 -244zM260 874q-28 -57 -42.5 -130t-14.5 -121q0 -68 11 -203t32 -197l16 60q15 104 31 174q6 28 15 74t18.5 100t13.5 74q17 90 25 161q2 22 36 117q-26 4 -41 4 q-26 0 -49 -27.5t-51 -85.5zM543 324q2 11 7 42t7.5 51t5 57t2.5 77q0 119 -30 307q-2 17 -13 38q-37 -123 -45 -206q-27 -200 -61 -321q-5 -24 -12.5 -77t-12.5 -77q-7 -34 -29 -98h3q27 0 75.5 16.5t63.5 40.5q9 16 22 68.5t17 81.5z" />
<glyph unicode="&#xf9;" horiz-adv-x="770" d="M268 1589q13 0 29 -26q15 -26 41.5 -63.5t32.5 -47.5q46 -83 51 -96q8 -20 8 -37q0 -9 -19 -29t-32 -26q-3 -2 -10 -6.5t-12.5 -6.5t-12.5 -2q-10 0 -24.5 19.5t-20.5 42.5q-5 18 -22 39t-21 30q-8 16 -57 93q-25 42 -25 67q0 13 18.5 22.5t32.5 12.5q1 0 14 7t29 7z M125 1116q29 0 59 -6q21 -4 38.5 -16t17.5 -21q0 -17 -7.5 -61t-7.5 -62q0 -15 6.5 -86t6.5 -100q0 -19 -6.5 -101.5t-6.5 -130.5q0 -66 6.5 -168t16.5 -155q10 -46 42.5 -70t67.5 -24q43 0 89 12t59 29q13 16 23 77.5t10 110.5q0 39 -1 115t-1 96q0 54 -7.5 165t-7.5 167 q0 22 4 68.5t4 58.5q0 51 5 63q14 33 77 33q27 0 48.5 -6.5t21.5 -18.5q0 -27 -8 -76.5t-8 -74.5q0 -133 12 -359q1 -19 2.5 -51.5t2.5 -60t1 -51.5q0 -140 -25 -248q-19 -78 -59 -121q-20 -23 -80.5 -46.5t-118.5 -23.5q-71 0 -133 15q-44 10 -69.5 31t-55.5 65 q-9 15 -16.5 34.5t-11 33.5t-7 42.5t-4 37l-2.5 42.5t-2 35q-14 187 -14 238q0 22 4 100.5t4 122.5q0 6 -2 30.5t-4 76.5t-2 127q0 37 13 74.5t26 37.5z" />
<glyph unicode="&#xfa;" horiz-adv-x="770" d="M522 1591q16 0 29 -7t14 -7q14 -3 32.5 -12.5t18.5 -22.5q0 -27 -24 -67q-49 -77 -57 -93q-4 -9 -21 -30t-22 -39q-6 -23 -21 -42.5t-25 -19.5q-7 0 -12.5 2t-11.5 6.5t-10 6.5q-13 6 -32.5 26t-19.5 29q0 15 9 37q5 13 51 96q6 10 32.5 47.5t41.5 63.5q16 26 28 26z M125 1116q29 0 59 -6q21 -4 38.5 -16t17.5 -21q0 -17 -7.5 -61t-7.5 -62q0 -15 6.5 -86t6.5 -100q0 -19 -6.5 -101.5t-6.5 -130.5q0 -66 6.5 -168t16.5 -155q10 -46 42.5 -70t67.5 -24q43 0 89 12t59 29q13 16 23 77.5t10 110.5q0 39 -1 115t-1 96q0 54 -7.5 165t-7.5 167 q0 22 4 68.5t4 58.5q0 51 5 63q14 33 77 33q27 0 48.5 -6.5t21.5 -18.5q0 -27 -8 -76.5t-8 -74.5q0 -133 12 -359q1 -19 2.5 -51.5t2.5 -60t1 -51.5q0 -140 -25 -248q-19 -78 -59 -121q-20 -23 -80.5 -46.5t-118.5 -23.5q-71 0 -133 15q-44 10 -69.5 31t-55.5 65 q-9 15 -16.5 34.5t-11 33.5t-7 42.5t-4 37l-2.5 42.5t-2 35q-14 187 -14 238q0 22 4 100.5t4 122.5q0 6 -2 30.5t-4 76.5t-2 127q0 37 13 74.5t26 37.5z" />
<glyph unicode="&#xfb;" horiz-adv-x="770" d="M424 1567h29q28 0 49 -49q5 -23 33 -68q3 -5 14 -25.5t18 -29.5q51 -67 51 -109q0 -11 -32 -32t-43 -21q-14 0 -29.5 11t-19.5 24q-8 19 -36 64.5t-32 45.5q-13 0 -80 -108q-17 -29 -53 -29q-13 0 -43.5 31.5t-30.5 42.5q0 3 5 7.5t13.5 12.5t14.5 15q14 17 37 53t24 37 l70 90q26 37 41 37zM125 1116q29 0 59 -6q21 -4 38.5 -16t17.5 -21q0 -17 -7.5 -61t-7.5 -62q0 -15 6.5 -86t6.5 -100q0 -19 -6.5 -101.5t-6.5 -130.5q0 -66 6.5 -168t16.5 -155q10 -46 42.5 -70t67.5 -24q43 0 89 12t59 29q13 16 23 77.5t10 110.5q0 39 -1 115t-1 96 q0 54 -7.5 165t-7.5 167q0 22 4 68.5t4 58.5q0 51 5 63q14 33 77 33q27 0 48.5 -6.5t21.5 -18.5q0 -27 -8 -76.5t-8 -74.5q0 -133 12 -359q1 -19 2.5 -51.5t2.5 -60t1 -51.5q0 -140 -25 -248q-19 -78 -59 -121q-20 -23 -80.5 -46.5t-118.5 -23.5q-71 0 -133 15 q-44 10 -69.5 31t-55.5 65q-9 15 -16.5 34.5t-11 33.5t-7 42.5t-4 37l-2.5 42.5t-2 35q-14 187 -14 238q0 22 4 100.5t4 122.5q0 6 -2 30.5t-4 76.5t-2 127q0 37 13 74.5t26 37.5z" />
<glyph unicode="&#xfc;" horiz-adv-x="770" d="M279 1479q10 0 16.5 -1.5t8.5 -2t8.5 -5t9.5 -6.5q24 -17 24 -75q0 -36 -16.5 -63.5t-46.5 -27.5q-56 0 -70 21q-9 14 -17 38.5t-8 41.5q0 28 16 53t40 25q4 0 16 1t19 1zM584 1473q60 0 73 -19q17 -26 17 -80q0 -30 -13 -56t-38 -26q-48 0 -78 17q-25 17 -25 75 q0 35 17 62t47 27zM125 1116q29 0 59 -6q21 -4 38.5 -16t17.5 -21q0 -17 -7.5 -61t-7.5 -62q0 -15 6.5 -86t6.5 -100q0 -19 -6.5 -101.5t-6.5 -130.5q0 -66 6.5 -168t16.5 -155q10 -46 42.5 -70t67.5 -24q43 0 89 12t59 29q13 16 23 77.5t10 110.5q0 39 -1 115t-1 96 q0 54 -7.5 165t-7.5 167q0 22 4 68.5t4 58.5q0 51 5 63q14 33 77 33q27 0 48.5 -6.5t21.5 -18.5q0 -27 -8 -76.5t-8 -74.5q0 -133 12 -359q1 -19 2.5 -51.5t2.5 -60t1 -51.5q0 -140 -25 -248q-19 -78 -59 -121q-20 -23 -80.5 -46.5t-118.5 -23.5q-71 0 -133 15 q-44 10 -69.5 31t-55.5 65q-9 15 -16.5 34.5t-11 33.5t-7 42.5t-4 37l-2.5 42.5t-2 35q-14 187 -14 238q0 22 4 100.5t4 122.5q0 6 -2 30.5t-4 76.5t-2 127q0 37 13 74.5t26 37.5z" />
<glyph unicode="&#xfd;" horiz-adv-x="823" d="M526 1591q16 0 29 -7t14 -7q14 -3 33 -12.5t19 -22.5q0 -25 -25 -67q-49 -77 -57 -93q-4 -9 -21 -30t-22 -39q-6 -23 -20.5 -42.5t-24.5 -19.5q-7 0 -12.5 2t-12.5 6.5t-10 6.5q-13 6 -32 26t-19 29q0 17 8 37q5 13 51 96q6 10 32.5 47.5t41.5 63.5q16 26 28 26z M623 1090q30 0 66 -8t36 -23q0 -26 -5.5 -77.5t-6.5 -59.5q-2 -25 -2 -154q0 -64 4 -192t4 -191q0 -25 -4 -99.5t-4 -95.5q0 -26 1 -76t1 -75q0 -110 -26 -211.5t-54 -134.5q-26 -30 -86.5 -52t-128.5 -22q-121 0 -193 55q-22 19 -22 39q0 15 10 35q1 2 6.5 20t13 30 t17.5 12q8 0 28 -12t27 -15q57 -23 107 -23q87 0 112 27q17 18 31 91t14 128q0 56 -10 66q-2 0 -33.5 -24t-76 -48.5t-78.5 -24.5q-71 0 -142 39.5t-94 108.5q-26 71 -26 219q0 16 1 43.5t1 40.5q-1 42 -6 146.5t-5 160.5q0 18 -7 107t-7 121q0 89 12 114q6 15 115 15 q18 0 18 -164q0 -19 -1 -46.5t-1 -33.5q0 -22 8 -63.5t9 -61.5q2 -20 3 -42.5t1.5 -50t1.5 -42.5q2 -88 2 -277q0 -137 39 -170q24 -20 61 -20q13 0 50.5 16.5t54.5 30.5q4 4 30 25.5t45 39t23 25.5q7 10 12.5 112.5t5.5 180.5q0 38 -6 115.5t-6 115.5q0 17 1 36t2.5 42.5 t2.5 36.5q4 97 13 152q5 26 12 34.5t29 8.5z" />
<glyph unicode="&#xfe;" horiz-adv-x="765" d="M188 1452q52 0 60 -20q12 -32 12 -78q1 -12 5.5 -43.5t4.5 -48.5q0 -8 -1 -25t-1 -25q0 -16 3.5 -38t7 -36.5t4.5 -17.5q2 -3 39 2q54 6 81 6q57 0 113 -24q50 -21 78 -66q41 -71 63 -147q48 -163 48 -250q0 -70 -5 -121q-6 -58 -10 -178q-3 -54 -16 -119l-15 -55 q-10 -57 -44.5 -107t-88.5 -69q-62 -17 -153 -17q-31 0 -60 4.5t-43.5 7.5t-17.5 1q-6 -4 -6 -164q0 -139 -2 -146q-5 -18 -70 -18q-45 0 -55 10q-5 5 -7.5 12.5t-3 11.5t0 14t0.5 11v127q0 42 -5.5 126t-5.5 126v232q0 63 31 385q14 196 14 254q0 72 -8 129q-1 15 -6.5 54 t-5.5 60q0 55 -4 101.5t-4 54.5q0 61 12 68q27 16 61 16zM385 985q-27 0 -63 -8q-2 -1 -10 -2.5t-14.5 -3.5t-8.5 -4q-6 -6 -6 -101q-2 -52 -10 -150t-9 -120q-1 -15 -13.5 -115.5t-12.5 -144.5q0 -34 2 -93.5t2 -92.5q0 -10 46 -21.5t81 -11.5q37 0 67 6q13 3 24.5 7.5 t20 13t15 14.5t12.5 19.5t9 19.5t7 23t5 21.5t4.5 23.5t3.5 22q4 19 6 43t3.5 55t2.5 47l8 135q4 17 1 57.5t-5 56.5t-8 56t-8 56q-5 22 -12.5 44t-20 52.5t-17.5 42.5q-20 40 -34 45q-18 8 -68 8z" />
<glyph unicode="&#xff;" horiz-adv-x="823" d="M283 1479q10 0 16.5 -1.5t8.5 -2t8.5 -5t9.5 -6.5q24 -17 24 -75q0 -36 -16.5 -63.5t-46.5 -27.5q-56 0 -70 21q-9 14 -16.5 38.5t-7.5 41.5q0 28 15.5 53t39.5 25q4 0 16 1t19 1zM588 1473q61 0 74 -19q16 -24 16 -80q0 -30 -13 -56t-38 -26q-48 0 -78 17q-25 17 -25 75 q0 35 17 62t47 27zM623 1090q30 0 66 -8t36 -23q0 -26 -5.5 -77.5t-6.5 -59.5q-2 -25 -2 -154q0 -64 4 -192t4 -191q0 -25 -4 -99.5t-4 -95.5q0 -26 1 -76t1 -75q0 -110 -26 -211.5t-54 -134.5q-26 -30 -86.5 -52t-128.5 -22q-121 0 -193 55q-22 19 -22 39q0 15 10 35 q1 2 6.5 20t13 30t17.5 12q8 0 28 -12t27 -15q57 -23 107 -23q87 0 112 27q17 18 31 91t14 128q0 56 -10 66q-2 0 -33.5 -24t-76 -48.5t-78.5 -24.5q-71 0 -142 39.5t-94 108.5q-26 71 -26 219q0 16 1 43.5t1 40.5q-1 42 -6 146.5t-5 160.5q0 18 -7 107t-7 121q0 89 12 114 q6 15 115 15q18 0 18 -164q0 -19 -1 -46.5t-1 -33.5q0 -22 8 -63.5t9 -61.5q2 -20 3 -42.5t1.5 -50t1.5 -42.5q2 -88 2 -277q0 -137 39 -170q24 -20 61 -20q13 0 50.5 16.5t54.5 30.5q4 4 30 25.5t45 39t23 25.5q7 10 12.5 112.5t5.5 180.5q0 38 -6 115.5t-6 115.5 q0 17 1 36t2.5 42.5t2.5 36.5q4 97 13 152q5 26 12 34.5t29 8.5z" />
<glyph unicode="&#x100;" horiz-adv-x="856" d="M459 1786q14 0 86 -8q28 -3 68 -23.5t40 -32.5q0 -19 -7.5 -40.5t-14.5 -26.5l-5.5 -5.5t-6.5 -5.5t-7 -4t-8 -2q-6 0 -59.5 11.5t-79.5 11.5q-35 0 -126.5 -9.5t-115.5 -9.5q-26 0 -26 82q0 18 19.5 27.5t53.5 17.5q60 13 189 17zM422 1466q25 0 46.5 -6.5t27.5 -15.5 q31 -47 51 -105q36 -100 61 -290q13 -116 35 -230q45 -236 100 -409q14 -42 31 -152q13 -93 21 -125q30 -100 30 -113q0 -11 -13 -16.5t-24 -5.5q-9 0 -31 2t-32 2q-31 0 -45 23q-15 25 -23 71q-32 182 -32 185q-3 23 -11.5 62t-11.5 40q-10 4 -49 4q-30 -1 -77.5 -8.5 t-65.5 -7.5q-16 0 -56.5 -2t-54.5 -2q-3 0 -19 -1t-28 -3.5t-14 -6.5l-19 -77q-4 -16 -10.5 -56.5t-13.5 -60.5q-12 -39 -15 -94q-6 -52 -20 -66q-12 -12 -54 -12q-26 0 -50.5 5t-24.5 13q0 6 1 17t2.5 26.5t2.5 24.5q1 12 1.5 28.5t1 25.5t1.5 13q0 2 31 121q28 118 57 273 q10 49 24.5 140t27.5 160t26 111q14 48 27.5 160t17.5 133q8 33 33 98.5t30 85.5q6 27 23 31q30 10 84 10zM420 1272q-2 0 -9.5 -10t-16 -30t-13.5 -40q-5 -23 -18 -153t-19 -165q-32 -137 -47 -223l-23 -133q0 -4 58 -4q11 0 39.5 -1t42.5 -1q31 0 82 7t53 7q8 0 10 9 q-8 39 -24.5 101.5t-22.5 90.5q-11 43 -23 136.5t-20 131.5q-5 21 -11 86.5t-9 87.5q-4 27 -9.5 51.5t-11 38t-8.5 13.5z" />
<glyph unicode="&#x101;" horiz-adv-x="827" d="M467 1438q14 0 86 -8q28 -3 68.5 -23.5t40.5 -32.5q0 -19 -8 -40.5t-15 -26.5l-5.5 -5.5t-6.5 -5.5t-7 -4t-8 -2q-6 0 -59.5 11.5t-79.5 11.5q-35 0 -126.5 -9.5t-115.5 -9.5q-26 0 -26 82q0 18 19.5 27.5t54.5 17.5q60 13 188 17zM643 1171q26 0 40.5 -27t16.5 -59 q5 -45 5 -65q0 -47 -11.5 -131t-11.5 -131q0 -18 6 -98t6 -101t-2 -52.5t-2 -43.5q0 -30 2.5 -54.5t3.5 -48.5q4 -110 4 -155q0 -20 6 -50.5t11 -33.5q4 -3 31 -7.5t30 -7.5q8 -8 8 -55q0 -41 -24 -55q-20 -10 -80 -10q-30 0 -47.5 6t-23.5 12t-15 21q-2 4 -8 14t-10 16 t-7 6q-5 0 -22.5 -15t-40.5 -33.5t-39 -24.5q-43 -15 -80 -15q-79 0 -153.5 43t-102.5 105q-20 39 -38.5 101t-22.5 112q-11 121 -11 209q0 127 5 215q0 81 43 188q43 102 151 139l31.5 10.5t31 10.5t26 7t26.5 3q41 0 78 -12t59.5 -24.5t28.5 -12.5q4 0 6 5.5t2 11.5v6 q1 4 1.5 19.5t2 27t4.5 14.5q5 4 42 12t44 8zM383 967q-28 0 -63.5 -12t-49.5 -33q-19 -22 -31 -59t-15 -57t-6 -76.5t-3 -61.5q-6 -52 -6 -101q0 -73 12 -213q2 -22 20.5 -86.5t28.5 -77.5q15 -25 52 -44t69 -19q35 0 79.5 37.5t66.5 68.5q3 7 5 17t3.5 24t2.5 26.5 t1.5 32.5t1 33.5t0.5 38.5v38v41v40q0 34 -12 115q-7 51 -7 90q0 21 9 109q0 44 -11 55q-32 28 -73.5 51t-73.5 23z" />
<glyph unicode="&#x102;" horiz-adv-x="856" d="M299 1884q24 0 37.5 -10t15.5 -21q15 -90 23 -118q3 -9 22.5 -19t34.5 -10t25.5 4t15.5 8t16 15q11 14 21 69q1 5 2 11.5t1.5 10t1 8.5t1 7.5t1.5 5.5t1.5 5t2 4t2.5 3.5t3 2.5l4 2q4 2 14 7.5t18.5 9t15.5 3.5q20 0 30 -10q21 -21 21 -43q0 -29 -7 -71t-14 -54 q-2 -3 -10 -15.5t-10.5 -16t-10.5 -14.5t-12.5 -15.5t-14 -13t-17.5 -12.5t-20 -9.5t-24 -8t-28 -4.5t-33 -2q-24 0 -66.5 13.5t-56.5 27.5q-27 28 -45 83.5t-18 101.5q0 47 4 55q5 10 53 10zM422 1466q25 0 46.5 -6.5t27.5 -15.5q31 -47 51 -105q36 -100 61 -290 q13 -116 35 -230q45 -236 100 -409q14 -42 31 -152q13 -93 21 -125q30 -100 30 -113q0 -11 -13 -16.5t-24 -5.5q-9 0 -31 2t-32 2q-31 0 -45 23q-15 25 -23 71q-32 182 -32 185q-3 23 -11.5 62t-11.5 40q-10 4 -49 4q-30 -1 -77.5 -8.5t-65.5 -7.5q-16 0 -56.5 -2t-54.5 -2 q-3 0 -19 -1t-28 -3.5t-14 -6.5l-19 -77q-4 -16 -10.5 -56.5t-13.5 -60.5q-12 -39 -15 -94q-6 -52 -20 -66q-12 -12 -54 -12q-26 0 -50.5 5t-24.5 13q0 6 1 17t2.5 26.5t2.5 24.5q1 12 1.5 28.5t1 25.5t1.5 13q0 2 31 121q28 118 57 273q10 49 24.5 140t27.5 160t26 111 q14 48 27.5 160t17.5 133q8 33 33 98.5t30 85.5q6 27 23 31q30 10 84 10zM420 1272q-2 0 -9.5 -10t-16 -30t-13.5 -40q-5 -23 -18 -153t-19 -165q-32 -137 -47 -223l-23 -133q0 -4 58 -4q11 0 39.5 -1t42.5 -1q31 0 82 7t53 7q8 0 10 9q-8 39 -24.5 101.5t-22.5 90.5 q-11 43 -23 136.5t-20 131.5q-5 21 -11 86.5t-9 87.5q-4 27 -9.5 51.5t-11 38t-8.5 13.5z" />
<glyph unicode="&#x103;" horiz-adv-x="827" d="M307 1536q24 0 37.5 -10t15.5 -21q15 -92 23 -119q3 -9 22.5 -18.5t34.5 -9.5q32 0 58 26q10 12 20 70q7 47 14 54q3 3 7 5q5 2 14 7.5t17.5 9.5t15.5 4q20 0 30 -10q21 -21 21 -43q0 -29 -7 -71t-14 -54q-2 -3 -10 -15.5t-10.5 -16t-10.5 -14.5t-12.5 -15.5t-14 -13 t-17.5 -12.5t-20 -9.5t-24 -8t-28 -4.5t-33 -2q-24 0 -66.5 13.5t-56.5 27.5q-27 28 -45 83t-18 101q0 48 4 56q5 10 53 10zM643 1171q26 0 40.5 -27t16.5 -59q5 -45 5 -65q0 -47 -11.5 -131t-11.5 -131q0 -18 6 -98t6 -101t-2 -52.5t-2 -43.5q0 -30 2.5 -54.5t3.5 -48.5 q4 -110 4 -155q0 -20 6 -50.5t11 -33.5q4 -3 31 -7.5t30 -7.5q8 -8 8 -55q0 -41 -24 -55q-20 -10 -80 -10q-30 0 -47.5 6t-23.5 12t-15 21q-2 4 -8 14t-10 16t-7 6q-5 0 -22.5 -15t-40.5 -33.5t-39 -24.5q-43 -15 -80 -15q-79 0 -153.5 43t-102.5 105q-20 39 -38.5 101 t-22.5 112q-11 121 -11 209q0 127 5 215q0 81 43 188q43 102 151 139l31.5 10.5t31 10.5t26 7t26.5 3q41 0 78 -12t59.5 -24.5t28.5 -12.5q4 0 6 5.5t2 11.5v6q1 4 1.5 19.5t2 27t4.5 14.5q5 4 42 12t44 8zM383 967q-28 0 -63.5 -12t-49.5 -33q-19 -22 -31 -59t-15 -57 t-6 -76.5t-3 -61.5q-6 -52 -6 -101q0 -73 12 -213q2 -22 20.5 -86.5t28.5 -77.5q15 -25 52 -44t69 -19q35 0 79.5 37.5t66.5 68.5q3 7 5 17t3.5 24t2.5 26.5t1.5 32.5t1 33.5t0.5 38.5v38v41v40q0 34 -12 115q-7 51 -7 90q0 21 9 109q0 44 -11 55q-32 28 -73.5 51t-73.5 23z " />
<glyph unicode="&#x104;" horiz-adv-x="856" d="M795 133q30 -100 30 -112q0 -11 -13 -17t-24 -6l-27 2q-14 -15 -35.5 -33t-46.5 -37.5t-30 -23.5q-39 -30 -43 -43q-6 -18 -6 -53q0 -13 9.5 -22t25.5 -9q7 0 28 4t23 4q12 0 38 -28.5t26 -51.5q0 -15 -41 -32t-80 -17q-68 0 -107 38t-39 107q0 61 11 93q13 37 51 73 q42 40 76.5 62t47.5 22q-9 25 -12 43q-32 182 -32 185q-3 23 -11.5 62t-11.5 40q-10 4 -49 4q-30 -1 -77.5 -8.5t-65.5 -7.5q-16 0 -56.5 -2t-54.5 -2q-3 0 -19 -1t-28 -3.5t-14 -6.5l-19 -77q-4 -16 -10.5 -56.5t-13.5 -60.5q-12 -39 -15 -94q-6 -52 -20 -66 q-12 -12 -54 -12q-26 0 -50.5 5t-24.5 13q0 6 1 17t2.5 26.5t2.5 24.5q1 12 1.5 28.5t1 25.5t1.5 13q0 2 31 121q28 118 57 273q10 49 24.5 140t27.5 160t26 111q14 48 27.5 160t17.5 133q8 33 33 98.5t30 85.5q6 27 23 31q30 10 84 10q25 0 46.5 -6.5t27.5 -15.5 q31 -47 51 -105q36 -100 61 -290q13 -116 35 -230q45 -236 100 -409q14 -42 31 -152q13 -93 21 -125zM549 526q8 0 10 9q-8 39 -24.5 101.5t-22.5 90.5q-11 43 -23 136.5t-20 131.5q-5 21 -11 86.5t-9 87.5q-4 27 -9.5 51.5t-11 38t-8.5 13.5q-2 0 -9.5 -10t-16 -30 t-13.5 -40q-5 -23 -18 -152.5t-19 -164.5q-32 -135 -47 -224l-23 -133q0 -4 58 -4q11 0 39.5 -1t42.5 -1q31 0 82 7t53 7z" />
<glyph unicode="&#x105;" horiz-adv-x="827" d="M778 106q8 -8 8 -55q0 -41 -24 -55q-7 -4 -46 -8q-15 -15 -35 -32t-43 -34.5t-28 -21.5q-39 -30 -43 -43q-6 -18 -6 -54q0 -13 9 -21.5t26 -8.5q7 0 28 4t23 4q12 0 38 -28.5t26 -51.5q0 -15 -41 -32t-80 -17q-68 0 -107 38t-39 107q0 60 11 92q14 39 51 74q48 46 86 69 q-16 29 -21 29t-22.5 -15t-40.5 -33.5t-39 -24.5q-43 -15 -80 -15q-79 0 -153.5 43t-102.5 105q-20 39 -38.5 101t-22.5 112q-11 121 -11 209q0 127 5 215q0 81 43 188q43 102 151 139l31.5 10.5t31 10.5t26 7t26.5 3q41 0 78 -12t59.5 -24.5t28.5 -12.5q4 0 6 5.5t2 11.5v6 q1 4 1.5 19.5t2 27t4.5 14.5q5 4 42 12t44 8q26 0 40.5 -27t16.5 -59q5 -45 5 -65q0 -47 -11.5 -131t-11.5 -131q0 -18 6 -98t6 -101t-2 -52.5t-2 -43.5q0 -30 2.5 -54.5t3.5 -48.5q4 -110 4 -155q0 -20 6 -50.5t11 -33.5q4 -3 31 -7.5t30 -7.5zM537 233q3 7 5 17t3.5 24 t2.5 26.5t1.5 32.5t1 33.5t0.5 38.5v38v41v40q0 34 -12 115q-7 51 -7 90q0 21 9 109q0 44 -11 55q-32 28 -73.5 51t-73.5 23q-28 0 -63.5 -12t-49.5 -33q-19 -22 -31 -59t-15 -57t-6 -76.5t-3 -61.5q-6 -52 -6 -101q0 -73 12 -213q2 -22 20.5 -86.5t28.5 -77.5 q15 -25 52 -44t69 -19q35 0 79.5 37.5t66.5 68.5z" />
<glyph unicode="&#x106;" horiz-adv-x="813" d="M600 1939q16 0 29 -7t14 -7q14 -3 32.5 -12.5t18.5 -22.5q0 -27 -24 -67q-4 -7 -17 -26t-23.5 -35t-17.5 -31q-4 -9 -21 -30.5t-22 -39.5q-6 -23 -20.5 -42.5t-24.5 -19.5q-7 0 -12.5 2t-12.5 6.5t-10 6.5q-13 6 -32 26t-19 29q0 17 8 37q3 8 52 96q6 10 32 47.5t41 63.5 q16 26 29 26zM465 1475q48 0 102 -23q72 -34 117 -84q12 -13 21 -30t17.5 -37.5t12.5 -28.5q25 -63 25 -109q0 -19 -17 -30q-14 -9 -46.5 -23t-39.5 -14q-20 0 -32 37q-6 16 -18 58t-23 66q-15 34 -46.5 54t-68.5 20q-32 0 -74.5 -14t-62.5 -37q-5 -5 -9 -10.5t-7.5 -11.5 t-6 -10.5t-6 -12t-5 -10.5t-4 -12t-3.5 -11.5t-4 -13t-4 -12.5q-56 -171 -56 -408q0 -34 4.5 -102t4.5 -95q0 -171 51 -299q26 -66 47 -100q29 -43 147 -43q90 0 107 31q4 8 10 18.5t9.5 17t7.5 15.5t6 18q5 6 1 53.5t-4 53.5q0 18 29 32.5t60 14.5q35 0 45 -21q8 -19 8 -61 q0 -103 -15 -145q-5 -14 -13.5 -28.5t-19.5 -32t-16 -27.5q-27 -46 -98.5 -63t-144.5 -17q-105 0 -158 30q-28 15 -50 36.5t-39 51.5t-27 51.5t-25 59.5q-60 153 -60 277q0 18 1 46t1 35q0 11 -7 104.5t-7 139.5q0 45 24 232q10 76 38.5 173.5t56.5 135.5q30 41 112 78 t152 37z" />
<glyph unicode="&#x107;" horiz-adv-x="698" d="M522 1591q16 0 29 -7t14 -7q14 -3 32.5 -12.5t18.5 -22.5q0 -27 -24 -67q-49 -77 -57 -93q-4 -9 -21 -30t-22 -39q-6 -23 -21 -42.5t-25 -19.5q-7 0 -12.5 2t-11.5 6.5t-10 6.5q-13 6 -32.5 26t-19.5 29q0 15 9 37q5 13 51 96q6 10 32.5 47.5t41.5 63.5q16 26 28 26z M375 1139q139 0 215 -107q57 -86 57 -125q0 -13 -47 -41q-40 -24 -41 -24q-8 0 -25.5 15.5t-25.5 33.5q-29 56 -61 79t-78 23q-71 0 -93 -49q-67 -128 -67 -205q0 -26 8 -132.5t8 -160.5q0 -152 11 -204q11 -57 37 -88t87 -31q28 0 82 29q44 23 54 47q4 7 20 80q11 45 29 45 q33 0 69 -9q12 -2 27.5 -11.5t15.5 -22.5q0 -17 -9.5 -64t-16.5 -65q-12 -27 -50 -74.5t-79 -67.5q-75 -37 -146 -37q-74 0 -128 24t-83.5 64.5t-44 82t-18.5 89.5q-6 67 -6 148q0 15 -1 41t-1 39q0 49 -6.5 159t-6.5 121q0 74 35 176t97 164q58 58 182 58z" />
<glyph unicode="&#x108;" horiz-adv-x="813" d="M502 1915h28q29 0 50 -49q6 -25 32 -68l33 -55q51 -67 51 -109q0 -11 -32 -32t-43 -21q-14 0 -30 11t-20 24q-8 19 -35.5 64.5t-31.5 45.5q-13 0 -80 -108q-17 -29 -53 -29q-13 0 -43.5 31.5t-30.5 42.5q0 3 5 7.5t13.5 12.5t14.5 15q14 17 37 53t24 37l70 90 q26 37 41 37zM465 1475q48 0 102 -23q72 -34 117 -84q12 -13 21 -30t17.5 -37.5t12.5 -28.5q25 -63 25 -109q0 -19 -17 -30q-14 -9 -46.5 -23t-39.5 -14q-20 0 -32 37q-6 16 -18 58t-23 66q-15 34 -46.5 54t-68.5 20q-32 0 -74.5 -14t-62.5 -37q-5 -5 -9 -10.5t-7.5 -11.5 t-6 -10.5t-6 -12t-5 -10.5t-4 -12t-3.5 -11.5t-4 -13t-4 -12.5q-56 -171 -56 -408q0 -34 4.5 -102t4.5 -95q0 -171 51 -299q26 -66 47 -100q29 -43 147 -43q90 0 107 31q4 8 10 18.5t9.5 17t7.5 15.5t6 18q5 6 1 53.5t-4 53.5q0 18 29 32.5t60 14.5q35 0 45 -21q8 -19 8 -61 q0 -103 -15 -145q-5 -14 -13.5 -28.5t-19.5 -32t-16 -27.5q-27 -46 -98.5 -63t-144.5 -17q-105 0 -158 30q-28 15 -50 36.5t-39 51.5t-27 51.5t-25 59.5q-60 153 -60 277q0 18 1 46t1 35q0 11 -7 104.5t-7 139.5q0 45 24 232q10 76 38.5 173.5t56.5 135.5q30 41 112 78 t152 37z" />
<glyph unicode="&#x109;" horiz-adv-x="698" d="M424 1567h29q28 0 49 -49q5 -23 33 -68q3 -5 14 -25.5t18 -29.5q51 -67 51 -109q0 -11 -32 -32t-43 -21q-14 0 -29.5 11t-19.5 24q-8 19 -36 64.5t-32 45.5q-13 0 -80 -108q-17 -29 -53 -29q-13 0 -43.5 31.5t-30.5 42.5q0 3 5 7.5t13.5 12.5t14.5 15q14 17 37 53t24 37 l70 90q26 37 41 37zM375 1139q139 0 215 -107q57 -86 57 -125q0 -13 -47 -41q-40 -24 -41 -24q-8 0 -25.5 15.5t-25.5 33.5q-29 56 -61 79t-78 23q-71 0 -93 -49q-67 -128 -67 -205q0 -26 8 -132.5t8 -160.5q0 -152 11 -204q11 -57 37 -88t87 -31q28 0 82 29q44 23 54 47 q4 7 20 80q11 45 29 45q33 0 69 -9q12 -2 27.5 -11.5t15.5 -22.5q0 -17 -9.5 -64t-16.5 -65q-12 -27 -50 -74.5t-79 -67.5q-75 -37 -146 -37q-74 0 -128 24t-83.5 64.5t-44 82t-18.5 89.5q-6 67 -6 148q0 15 -1 41t-1 39q0 49 -6.5 159t-6.5 121q0 74 35 176t97 164 q58 58 182 58z" />
<glyph unicode="&#x10a;" horiz-adv-x="813" d="M472 1794q57 0 74 -22q18 -23 18 -56q0 -95 -18 -106q-27 -17 -70 -17q-32 0 -55 23q-17 17 -17 53l-2 51q0 32 13 49q19 25 57 25zM465 1475q48 0 102 -23q72 -34 117 -84q12 -13 21 -30t17.5 -37.5t12.5 -28.5q25 -63 25 -109q0 -19 -17 -30q-14 -9 -46.5 -23 t-39.5 -14q-20 0 -32 37q-6 16 -18 58t-23 66q-15 34 -46.5 54t-68.5 20q-32 0 -74.5 -14t-62.5 -37q-5 -5 -9 -10.5t-7.5 -11.5t-6 -10.5t-6 -12t-5 -10.5t-4 -12t-3.5 -11.5t-4 -13t-4 -12.5q-56 -171 -56 -408q0 -34 4.5 -102t4.5 -95q0 -171 51 -299q26 -66 47 -100 q29 -43 147 -43q90 0 107 31q4 8 10 18.5t9.5 17t7.5 15.5t6 18q5 6 1 53.5t-4 53.5q0 18 29 32.5t60 14.5q35 0 45 -21q8 -19 8 -61q0 -103 -15 -145q-5 -14 -13.5 -28.5t-19.5 -32t-16 -27.5q-27 -46 -98.5 -63t-144.5 -17q-105 0 -158 30q-28 15 -50 36.5t-39 51.5 t-27 51.5t-25 59.5q-60 153 -60 277q0 18 1 46t1 35q0 11 -7 104.5t-7 139.5q0 45 24 232q10 76 38.5 173.5t56.5 135.5q30 41 112 78t152 37z" />
<glyph unicode="&#x10b;" horiz-adv-x="698" d="M410 1473q34 0 54.5 -16.5t20.5 -47.5q0 -101 -18 -113q-30 -20 -68 -20q-29 0 -53 17t-24 48q0 3 -1.5 16t-1.5 19q0 48 15 72q17 25 76 25zM375 1139q139 0 215 -107q57 -86 57 -125q0 -13 -47 -41q-40 -24 -41 -24q-8 0 -25.5 15.5t-25.5 33.5q-29 56 -61 79t-78 23 q-71 0 -93 -49q-67 -128 -67 -205q0 -26 8 -132.5t8 -160.5q0 -152 11 -204q11 -57 37 -88t87 -31q28 0 82 29q44 23 54 47q4 7 20 80q11 45 29 45q33 0 69 -9q12 -2 27.5 -11.5t15.5 -22.5q0 -17 -9.5 -64t-16.5 -65q-12 -27 -50 -74.5t-79 -67.5q-75 -37 -146 -37 q-74 0 -128 24t-83.5 64.5t-44 82t-18.5 89.5q-6 67 -6 148q0 15 -1 41t-1 39q0 49 -6.5 159t-6.5 121q0 74 35 176t97 164q58 58 182 58z" />
<glyph unicode="&#x10c;" horiz-adv-x="813" d="M326 1882q9 0 27.5 -7t29.5 -15q6 -4 15 -15t21.5 -27.5t16.5 -21.5q41 -53 47 -53q4 0 11.5 6t18.5 17t15 14l72 63q9 9 33.5 22t36.5 13q7 0 22.5 -9t24.5 -18q12 -12 12 -32t-3 -26t-17 -15q-9 -6 -28 -23.5t-44 -40.5t-37 -33q-89 -82 -117 -82q-41 0 -100 68 q-12 14 -24 30.5t-22.5 32.5t-12.5 19q-4 4 -11.5 9.5t-17.5 11.5t-14 8q-19 19 -19 34q0 7 3 15t10 20.5t8 14.5q10 20 43 20zM465 1475q48 0 102 -23q72 -34 117 -84q12 -13 21 -30t17.5 -37.5t12.5 -28.5q25 -63 25 -109q0 -19 -17 -30q-14 -9 -46.5 -23t-39.5 -14 q-20 0 -32 37q-6 16 -18 58t-23 66q-15 34 -46.5 54t-68.5 20q-32 0 -74.5 -14t-62.5 -37q-5 -5 -9 -10.5t-7.5 -11.5t-6 -10.5t-6 -12t-5 -10.5t-4 -12t-3.5 -11.5t-4 -13t-4 -12.5q-56 -171 -56 -408q0 -34 4.5 -102t4.5 -95q0 -171 51 -299q26 -66 47 -100 q29 -43 147 -43q90 0 107 31q4 8 10 18.5t9.5 17t7.5 15.5t6 18q5 6 1 53.5t-4 53.5q0 18 29 32.5t60 14.5q35 0 45 -21q8 -19 8 -61q0 -103 -15 -145q-5 -14 -13.5 -28.5t-19.5 -32t-16 -27.5q-27 -46 -98.5 -63t-144.5 -17q-105 0 -158 30q-28 15 -50 36.5t-39 51.5 t-27 51.5t-25 59.5q-60 153 -60 277q0 18 1 46t1 35q0 11 -7 104.5t-7 139.5q0 45 24 232q10 76 38.5 173.5t56.5 135.5q30 41 112 78t152 37z" />
<glyph unicode="&#x10d;" horiz-adv-x="698" d="M248 1534q9 0 27.5 -7.5t29.5 -15.5q6 -4 53 -63q41 -53 48 -53q4 0 11.5 6t18.5 17t15 14l71 63q9 9 33.5 22t36.5 13q7 0 22.5 -9t24.5 -18q12 -12 12 -33q0 -20 -3 -25.5t-17 -14.5q-9 -6 -28 -23.5t-44 -40.5t-37 -33q-2 -2 -10 -9.5t-12 -11t-13 -11.5t-14.5 -12.5 t-14 -11t-15 -10.5t-13.5 -8t-13 -6t-11 -2q-42 0 -101 68q-12 14 -24 30.5t-22.5 32.5t-12.5 19q-4 4 -11.5 9.5t-17.5 11.5t-14 8q-19 19 -19 34q0 7 3 15t9.5 19.5t8.5 14.5q11 21 43 21zM375 1139q139 0 215 -107q57 -86 57 -125q0 -13 -47 -41q-40 -24 -41 -24 q-8 0 -25.5 15.5t-25.5 33.5q-29 56 -61 79t-78 23q-71 0 -93 -49q-67 -128 -67 -205q0 -26 8 -132.5t8 -160.5q0 -152 11 -204q11 -57 37 -88t87 -31q28 0 82 29q44 23 54 47q4 7 20 80q11 45 29 45q33 0 69 -9q12 -2 27.5 -11.5t15.5 -22.5q0 -17 -9.5 -64t-16.5 -65 q-12 -27 -50 -74.5t-79 -67.5q-75 -37 -146 -37q-74 0 -128 24t-83.5 64.5t-44 82t-18.5 89.5q-6 67 -6 148q0 15 -1 41t-1 39q0 49 -6.5 159t-6.5 121q0 74 35 176t97 164q58 58 182 58z" />
<glyph unicode="&#x10e;" horiz-adv-x="860" d="M238 1882q9 0 27.5 -7t29.5 -15q6 -4 15 -15t21.5 -27.5t16.5 -21.5q41 -53 47 -53q4 0 11.5 6t18.5 17t15 14l72 63q9 9 33.5 22t36.5 13q7 0 22.5 -9t24.5 -18q12 -12 12 -32t-3 -26t-17 -15q-9 -6 -28 -23.5t-44 -40.5t-37 -33q-89 -82 -117 -82q-41 0 -100 68 q-12 14 -24 30.5t-22.5 32.5t-12.5 19q-4 4 -11.5 9.5t-17.5 11.5t-14 8q-19 19 -19 34q0 7 3 15t10 20.5t8 14.5q10 20 43 20zM346 1460q30 0 57.5 -4.5t58 -16.5t46.5 -19t53.5 -26.5t48.5 -25.5q62 -32 102 -112.5t50 -163.5q16 -122 16 -234q0 -311 -28 -467 q-11 -68 -54 -160t-90 -139q-58 -55 -125 -69q-30 -6 -138.5 -16.5t-166.5 -10.5q-37 0 -50 7.5t-17 37.5q-7 49 -7 178q0 23 5.5 80.5t5.5 93.5q0 43 12 149t12 146q0 47 -8 102t-8 82q0 13 -2 44t-2 47q0 24 2 51.5t4.5 54t3.5 35.5q4 47 4 244q0 25 7.5 53t17.5 35 q32 24 190 24zM307 1319q-29 0 -31 -12q-3 -37 -8 -199q-1 -10 -4.5 -46t-3.5 -56q0 -72 16 -224q5 -68 5 -80q0 -44 -7 -112q-2 -24 -11 -86.5t-9 -97.5q0 -19 -2 -58.5t-2 -54.5q0 -2 -1 -27t-1 -43q0 -21 0.5 -31.5t1.5 -24t4.5 -19t9.5 -5.5q107 0 146 9q3 1 20 5.5 t22.5 6.5t18 7t21 11.5t16.5 14.5q27 30 59.5 103t40.5 118q25 137 25 418q0 132 -10 198q-15 101 -42 151t-85 79q-34 18 -55 28t-57.5 18.5t-76.5 8.5z" />
<glyph unicode="&#x10f;" horiz-adv-x="811" d="M852 1559q49 0 61 -19q15 -24 15 -45q0 -39 -8 -125q-6 -50 -29.5 -112t-50.5 -62q-23 0 -50.5 23.5t-27.5 42.5q0 6 6 27.5t14 49.5t11 45q1 8 5 32t5 33t0 32q-4 20 -4 47q1 14 17 22.5t36 8.5zM635 1485q40 0 48.5 -9.5t8.5 -58.5q0 -176 -10 -241q-10 -76 -10 -234 q0 -123 20 -266q4 -27 12.5 -106.5t8.5 -100.5q0 -60 -1.5 -160.5t-3 -177t-1.5 -78.5q0 -32 -15 -47q-12 -12 -43 -12q-4 0 -24 -4t-31 -4t-23 18q-2 3 -4 19.5t-3.5 31.5t-2.5 15q-6 0 -15.5 -9.5t-21 -23.5t-18.5 -19q-64 -47 -139 -47q-131 0 -193 66q-32 32 -72 184 q-41 157 -41 277q0 253 35 399q16 74 109 172q33 34 63 47.5t84 13.5q26 0 115 -24q13 -3 31 -13t22 -10q3 0 5 20.5t4.5 54t5.5 52.5q8 49 8 211q0 8 6 25.5t12 23.5q15 15 74 15zM338 975q-33 0 -62 -44.5t-40 -84.5q-7 -26 -17 -152.5t-10 -193.5v-44.5t2 -33.5 t3.5 -28.5t6.5 -44.5t10 -66q16 -87 45 -129q26 -33 82 -33q33 0 59.5 12t33.5 19t22 24l15.5 15.5l19 19t18 19t17.5 21t11 19t5 17.5v157q0 68 -12 179q-17 149 -25 270q-14 30 -71 56t-113 26z" />
<glyph unicode="&#x110;" horiz-adv-x="860" d="M762 1092q16 -122 16 -234q0 -306 -29 -467q-11 -69 -53.5 -160.5t-89.5 -138.5q-58 -55 -125 -69q-30 -6 -138.5 -16.5t-166.5 -10.5q-37 0 -50.5 8t-17.5 37q-6 42 -6 178q0 23 5 80.5t5 93.5q0 43 12.5 149t12.5 146v16q-62 -8 -66 -8q-31 0 -36 6q-4 5 -9.5 25.5 t-5.5 36.5q0 59 32 59q7 0 67 8l4 1q-2 26 -2 40q0 13 -2 44t-2 47q0 24 2 51.5t4.5 54t3.5 35.5q4 47 4 244q0 25 7.5 53t17.5 35q32 24 190 24q30 0 57.5 -4.5t58 -16.5t46.5 -19t53.5 -26.5t48.5 -25.5q62 -32 102 -112.5t50 -163.5zM608 418q25 137 25 418 q0 125 -11 198q-15 101 -42 151t-85 79q-34 19 -54.5 28.5t-57 18t-76.5 8.5q-29 0 -31 -12q-3 -37 -8 -199q-1 -10 -4.5 -46t-3.5 -56q0 -69 10 -166h45q11 0 65 4t60 4q3 0 31.5 -1t51.5 -1t29.5 -8t6.5 -39q0 -57 -11 -76q-6 -8 -31 -8q-15 0 -40.5 3t-26.5 3 q-12 0 -59.5 -6t-60.5 -6h-50v-7q0 -54 -6 -112q-2 -24 -11 -86.5t-9 -97.5q0 -19 -2 -58.5t-2 -54.5q0 -2 -1 -27t-1 -43q0 -21 0.5 -31.5t1.5 -24t4.5 -19t9.5 -5.5q106 0 145 9q4 1 20.5 5.5t22.5 6.5t18.5 7t21 11.5t16.5 14.5q27 30 59.5 103t40.5 118z" />
<glyph unicode="&#x111;" horiz-adv-x="811" d="M762 1341q29 0 37 -8t8 -39q0 -14 -4.5 -39.5t-9.5 -33.5q-9 -9 -39 -9q-7 0 -67 6l-5 -42q-10 -76 -10 -234q0 -123 20 -266q4 -27 12.5 -106.5t8.5 -100.5q0 -60 -1.5 -160.5t-3 -177t-1.5 -78.5q0 -32 -15 -47q-12 -12 -43 -12q-4 0 -24 -4t-31 -4t-23 18 q-2 3 -4 19.5t-3.5 31.5t-2.5 15q-6 0 -15.5 -9.5t-21 -23.5t-18.5 -19q-64 -47 -139 -47q-131 0 -193 66q-32 32 -72 184q-41 157 -41 277q0 253 35 399q16 74 109 172q33 34 63 47.5t84 13.5q26 0 115 -24q13 -3 31 -13t22 -10q3 0 5 21t4.5 54.5t5.5 52.5q-42 -3 -56 -3 q-39 0 -45 6q-5 5 -11.5 24.5t-6.5 35.5q0 13 0.5 20.5t4 18t12 15.5t22.5 5q9 0 34 4t29 4l25 2v78q0 8 6 25.5t12 23.5q15 15 74 15q40 0 48.5 -9.5t8.5 -58.5v-69q7 -1 22 -2.5t27.5 -3t20.5 -1.5zM559 287v157q0 68 -12 179q-17 149 -25 270q-14 30 -71 56t-113 26 q-33 0 -62.5 -45t-40.5 -84q-7 -26 -16.5 -152t-9.5 -194v-44.5t2 -33.5t3.5 -28.5t6.5 -44.5t10 -66q16 -87 45 -129q26 -33 82 -33q33 0 59.5 12t33.5 19t22 24l15.5 15.5l19 19t18 19t17.5 21t11 19t5 17.5z" />
<glyph unicode="&#x112;" horiz-adv-x="716" d="M449 1786q14 0 86 -8q28 -3 68 -23.5t40 -32.5q0 -19 -7.5 -40.5t-14.5 -26.5l-5.5 -5.5t-6.5 -5.5t-7 -4t-8 -2q-6 0 -59.5 11.5t-79.5 11.5q-35 0 -126.5 -9.5t-115.5 -9.5q-27 0 -27 82q0 18 19.5 27.5t54.5 17.5q60 13 189 17zM426 1462q18 0 65.5 -3t65.5 -3 q46 0 74 -8q6 -1 15 -19.5t9 -29.5q0 -13 -5 -39.5t-11 -34.5q-11 -14 -78 -14q-17 0 -65.5 4t-73.5 4q-2 0 -32.5 -2t-57.5 -2q-70 0 -72 -2q-4 -4 -4 -21q0 -16 4 -71.5t4 -79.5q0 -23 -3 -72t-3 -74q0 -21 3 -64t3 -65q0 -10 39 -10q4 0 46.5 6t56.5 6q9 0 40 -3.5 t56 -4.5q22 -1 48 0.5t43.5 3t22.5 0.5q33 -5 33 -92q0 -20 -10 -35q-3 -4 -64 -14q-16 -4 -86 -4q-24 0 -49 3t-30 3q-8 0 -58 -5t-76 -5q-12 0 -20 -17q-8 -16 -8 -77q0 -16 3 -93.5t3 -121.5q0 -22 -8 -87.5t-8 -91.5q0 -32 5.5 -54.5t14.5 -22.5q14 0 48 3t40 3 q22 0 91.5 -6.5t74.5 -6.5q13 0 48 7.5t46 7.5q10 0 35 -37q14 -20 14 -80q0 -17 -68 -31t-106 -14q-28 0 -79.5 7t-59.5 7q-20 0 -99 -8t-98 -8q-21 0 -36 127q-7 68 -7 121q0 39 4.5 99t4.5 62q0 25 -3.5 76t-3.5 84q0 127 13 201q6 35 6 67q0 29 -5 88t-5 89q0 23 2 70 t2 67q0 23 -2 70.5t-2 72.5q0 42 10 94t22 56q7 2 54 7t63 5q10 0 75 6t89 6z" />
<glyph unicode="&#x113;" horiz-adv-x="737" d="M395 1438q14 0 86 -8q28 -3 68.5 -23.5t40.5 -32.5q0 -19 -8 -40.5t-15 -26.5l-7 -7t-9.5 -7.5t-9.5 -2.5q-6 0 -60 11.5t-80 11.5q-35 0 -126 -9.5t-115 -9.5q-27 0 -27 82q0 18 19.5 27.5t54.5 17.5q60 13 188 17zM381 1135q122 0 205 -95q51 -60 70.5 -119.5 t19.5 -166.5v-74q0 -23 -9 -74.5t-20 -64.5q-20 -25 -115 -25q-14 0 -139 11.5t-139 11.5q-35 0 -35 -15q0 -65 2 -92q1 -4 5.5 -36.5t8.5 -61.5t10 -60.5t11 -42.5q11 -31 54 -69.5t85 -38.5q39 0 54.5 10t42.5 45q14 19 18.5 39t4 36t1.5 21q7 19 49 19q28 0 64 -8 q19 -4 24.5 -22t5.5 -58q0 -16 -13.5 -49t-37.5 -62q-35 -43 -49.5 -58t-40 -32t-53.5 -20.5t-76 -3.5q-41 0 -84 12q-50 20 -96 62t-70 83q-10 17 -16.5 38t-9 33.5t-8 45t-7.5 45.5q-37 177 -37 348q0 55 17.5 164t32.5 147q30 67 96 117q76 60 174 60zM377 989 q-37 0 -77.5 -29t-59.5 -67q-9 -20 -19 -75t-10 -93q0 -17 6 -23q2 -2 9 -3t21.5 -3t26.5 -4q143 -26 177 -26q14 0 40.5 5t32.5 9q11 8 11 53q0 92 -17 144q-9 32 -22.5 50.5t-40.5 35.5q-44 26 -78 26z" />
<glyph unicode="&#x114;" horiz-adv-x="716" d="M289 1884q24 0 37.5 -10t15.5 -21q15 -90 23 -118q3 -9 22.5 -19t34.5 -10t25.5 4t15.5 8t16 15q11 14 21 69q1 5 2 11.5t1.5 10t1 8.5t1 7.5t1.5 5.5t1.5 5t2 4t2.5 3.5t3 2.5l4 2q4 2 14 7.5t18 9t15 3.5q21 0 31 -10q20 -20 20 -43q0 -29 -6.5 -71.5t-13.5 -53.5 q-2 -3 -10 -15.5t-10.5 -16t-10.5 -14.5t-12.5 -15.5t-14 -13t-17.5 -12.5t-20 -9.5t-24 -8t-28 -4.5t-33 -2q-24 0 -66.5 13.5t-56.5 27.5q-27 28 -45.5 83.5t-18.5 101.5q0 45 5 55t53 10zM426 1462q18 0 65.5 -3t65.5 -3q46 0 74 -8q6 -1 15 -19.5t9 -29.5 q0 -13 -5 -39.5t-11 -34.5q-11 -14 -78 -14q-17 0 -65.5 4t-73.5 4q-2 0 -32.5 -2t-57.5 -2q-70 0 -72 -2q-4 -4 -4 -21q0 -16 4 -71.5t4 -79.5q0 -23 -3 -72t-3 -74q0 -21 3 -64t3 -65q0 -10 39 -10q4 0 46.5 6t56.5 6q9 0 40 -3.5t56 -4.5q22 -1 48 0.5t43.5 3t22.5 0.5 q33 -5 33 -92q0 -20 -10 -35q-3 -4 -64 -14q-16 -4 -86 -4q-24 0 -49 3t-30 3q-8 0 -58 -5t-76 -5q-12 0 -20 -17q-8 -16 -8 -77q0 -16 3 -93.5t3 -121.5q0 -22 -8 -87.5t-8 -91.5q0 -32 5.5 -54.5t14.5 -22.5q14 0 48 3t40 3q22 0 91.5 -6.5t74.5 -6.5q13 0 48 7.5t46 7.5 q10 0 35 -37q14 -20 14 -80q0 -17 -68 -31t-106 -14q-28 0 -79.5 7t-59.5 7q-20 0 -99 -8t-98 -8q-21 0 -36 127q-7 68 -7 121q0 39 4.5 99t4.5 62q0 25 -3.5 76t-3.5 84q0 127 13 201q6 35 6 67q0 29 -5 88t-5 89q0 23 2 70t2 67q0 23 -2 70.5t-2 72.5q0 42 10 94t22 56 q7 2 54 7t63 5q10 0 75 6t89 6z" />
<glyph unicode="&#x115;" horiz-adv-x="737" d="M236 1536q24 0 37.5 -10t15.5 -21q17 -101 22 -119q3 -9 23 -18.5t35 -9.5t25.5 3.5t16 8t15.5 14.5q10 12 20 70q7 47 14 54q3 3 7 5q5 2 14 7.5t17.5 9.5t15.5 4q21 0 31 -10q20 -20 20 -43q0 -29 -6.5 -71.5t-13.5 -53.5q-2 -3 -10 -15.5t-10.5 -16t-10.5 -14.5 t-12.5 -15.5t-14 -13t-17.5 -12.5t-20 -9.5t-24 -8t-28 -4.5t-33 -2q-24 0 -66.5 13.5t-56.5 27.5q-27 28 -45.5 83t-18.5 101q0 48 4 56q5 10 54 10zM381 1135q122 0 205 -95q51 -60 70.5 -119.5t19.5 -166.5v-74q0 -23 -9 -74.5t-20 -64.5q-20 -25 -115 -25 q-14 0 -139 11.5t-139 11.5q-35 0 -35 -15q0 -65 2 -92q1 -4 5.5 -36.5t8.5 -61.5t10 -60.5t11 -42.5q11 -31 54 -69.5t85 -38.5q39 0 54.5 10t42.5 45q14 19 18.5 39t4 36t1.5 21q7 19 49 19q28 0 64 -8q19 -4 24.5 -22t5.5 -58q0 -16 -13.5 -49t-37.5 -62 q-35 -43 -49.5 -58t-40 -32t-53.5 -20.5t-76 -3.5q-41 0 -84 12q-50 20 -96 62t-70 83q-10 17 -16.5 38t-9 33.5t-8 45t-7.5 45.5q-37 177 -37 348q0 55 17.5 164t32.5 147q30 67 96 117q76 60 174 60zM377 989q-37 0 -77.5 -29t-59.5 -67q-9 -20 -19 -75t-10 -93 q0 -17 6 -23q2 -2 9 -3t21.5 -3t26.5 -4q143 -26 177 -26q14 0 40.5 5t32.5 9q11 8 11 53q0 92 -17 144q-9 32 -22.5 50.5t-40.5 35.5q-44 26 -78 26z" />
<glyph unicode="&#x116;" horiz-adv-x="716" d="M414 1821q34 0 54.5 -16.5t20.5 -47.5q0 -100 -18 -112q-31 -21 -68 -21q-28 0 -52.5 17.5t-24.5 48.5q0 4 -1 16t-1 18q0 50 14 72q17 25 76 25zM426 1462q18 0 65.5 -3t65.5 -3q46 0 74 -8q6 -1 15 -19.5t9 -29.5q0 -13 -5 -39.5t-11 -34.5q-11 -14 -78 -14 q-17 0 -65.5 4t-73.5 4q-2 0 -32.5 -2t-57.5 -2q-70 0 -72 -2q-4 -4 -4 -21q0 -16 4 -71.5t4 -79.5q0 -23 -3 -72t-3 -74q0 -21 3 -64t3 -65q0 -10 39 -10q4 0 46.5 6t56.5 6q9 0 40 -3.5t56 -4.5q22 -1 48 0.5t43.5 3t22.5 0.5q33 -5 33 -92q0 -20 -10 -35q-3 -4 -64 -14 q-16 -4 -86 -4q-24 0 -49 3t-30 3q-8 0 -58 -5t-76 -5q-12 0 -20 -17q-8 -16 -8 -77q0 -16 3 -93.5t3 -121.5q0 -22 -8 -87.5t-8 -91.5q0 -32 5.5 -54.5t14.5 -22.5q14 0 48 3t40 3q22 0 91.5 -6.5t74.5 -6.5q13 0 48 7.5t46 7.5q10 0 35 -37q14 -20 14 -80q0 -17 -68 -31 t-106 -14q-28 0 -79.5 7t-59.5 7q-20 0 -99 -8t-98 -8q-21 0 -36 127q-7 68 -7 121q0 39 4.5 99t4.5 62q0 25 -3.5 76t-3.5 84q0 127 13 201q6 35 6 67q0 29 -5 88t-5 89q0 23 2 70t2 67q0 23 -2 70.5t-2 72.5q0 42 10 94t22 56q7 2 54 7t63 5q10 0 75 6t89 6z" />
<glyph unicode="&#x117;" horiz-adv-x="737" d="M360 1473q34 0 55 -16.5t21 -47.5q0 -101 -18 -113q-30 -20 -68 -20q-29 0 -53.5 17t-24.5 48q0 3 -1 16t-1 19q0 48 15 72q17 25 75 25zM381 1135q122 0 205 -95q51 -60 70.5 -119.5t19.5 -166.5v-74q0 -23 -9 -74.5t-20 -64.5q-20 -25 -115 -25q-14 0 -139 11.5 t-139 11.5q-35 0 -35 -15q0 -65 2 -92q1 -4 5.5 -36.5t8.5 -61.5t10 -60.5t11 -42.5q11 -31 54 -69.5t85 -38.5q39 0 54.5 10t42.5 45q14 19 18.5 39t4 36t1.5 21q7 19 49 19q28 0 64 -8q19 -4 24.5 -22t5.5 -58q0 -16 -13.5 -49t-37.5 -62q-35 -43 -49.5 -58t-40 -32 t-53.5 -20.5t-76 -3.5q-41 0 -84 12q-50 20 -96 62t-70 83q-10 17 -16.5 38t-9 33.5t-8 45t-7.5 45.5q-37 177 -37 348q0 55 17.5 164t32.5 147q30 67 96 117q76 60 174 60zM377 989q-37 0 -77.5 -29t-59.5 -67q-9 -20 -19 -75t-10 -93q0 -17 6 -23q2 -2 9 -3t21.5 -3 t26.5 -4q143 -26 177 -26q14 0 40.5 5t32.5 9q11 8 11 53q0 92 -17 144q-9 32 -22.5 50.5t-40.5 35.5q-44 26 -78 26z" />
<glyph unicode="&#x118;" horiz-adv-x="716" d="M606 158q10 0 35 -37q14 -20 14 -80q0 -5 -10 -12q0 -9 -10 -22.5t-28.5 -30t-34 -29t-36.5 -29t-26 -20.5q-39 -30 -43 -43q-6 -18 -6 -54q0 -13 9 -21.5t26 -8.5q7 0 28 4t23 4q12 0 37.5 -28.5t25.5 -51.5q0 -15 -41 -32t-80 -17q-68 0 -106.5 38t-38.5 107 q0 63 10 92q13 38 52 74q33 31 41 37q-18 2 -56.5 7t-48.5 5q-20 0 -99 -8t-98 -8q-21 0 -36 127q-7 68 -7 121q0 39 4.5 99t4.5 62q0 25 -3.5 76t-3.5 84q0 127 13 201q6 35 6 67q0 29 -5 88t-5 89q0 23 2 70t2 67q0 23 -2 70.5t-2 72.5q0 42 10 94t22 56q7 2 54 7t63 5 q10 0 75 6t89 6q18 0 65.5 -3t65.5 -3q46 0 74 -8q6 -1 15 -19.5t9 -29.5q0 -13 -5 -39.5t-11 -34.5q-11 -14 -78 -14q-17 0 -65.5 4t-73.5 4q-2 0 -32.5 -2t-57.5 -2q-70 0 -72 -2q-4 -4 -4 -21q0 -16 4 -71.5t4 -79.5q0 -23 -3 -72t-3 -74q0 -21 3 -64t3 -65q0 -10 39 -10 q4 0 46.5 6t56.5 6q9 0 40 -3.5t56 -4.5q22 -1 48 0.5t43.5 3t22.5 0.5q33 -5 33 -92q0 -20 -10 -35q-3 -4 -64 -14q-16 -4 -86 -4q-24 0 -49 3t-30 3q-8 0 -58 -5t-76 -5q-12 0 -20 -17q-8 -16 -8 -77q0 -16 3 -93.5t3 -121.5q0 -22 -8 -87.5t-8 -91.5q0 -32 5.5 -54.5 t14.5 -22.5q14 0 48 3t40 3q22 0 91.5 -6.5t74.5 -6.5q13 0 48 7.5t46 7.5z" />
<glyph unicode="&#x119;" horiz-adv-x="737" d="M254 539q-35 0 -35 -15q0 -65 2 -92q1 -4 5.5 -36.5t8.5 -61.5t10 -60.5t11 -42.5q11 -31 54 -69.5t85 -38.5q39 0 54.5 10t42.5 45q14 19 18.5 39t4 36t1.5 21q7 19 49 19q28 0 64 -8q19 -4 24.5 -22t5.5 -58q0 -16 -13.5 -49t-37.5 -62q-36 -44 -55.5 -64t-42.5 -32 q-16 -14 -42.5 -34t-27.5 -21q-39 -30 -43 -43q-6 -18 -6 -54q0 -13 9 -21.5t26 -8.5q7 0 28 4t23 4q12 0 38 -28.5t26 -51.5q0 -15 -41 -32t-80 -17q-68 0 -107 38t-39 107q0 60 11 92q10 29 33 56l-13 4q-50 20 -96 62t-70 83q-10 17 -16.5 38t-9 33.5t-8 45t-7.5 45.5 q-37 177 -37 348q0 55 17.5 164t32.5 147q30 67 96 117q76 60 174 60q122 0 205 -95q51 -60 70.5 -119.5t19.5 -166.5v-74q0 -23 -9 -74.5t-20 -64.5q-20 -25 -115 -25q-14 0 -139 11.5t-139 11.5zM217 702q2 -2 9 -3t21.5 -3t26.5 -4q143 -26 177 -26q14 0 40.5 5t32.5 9 q11 8 11 53q0 92 -17 144q-9 32 -22.5 50.5t-40.5 35.5q-44 26 -78 26q-37 0 -77.5 -29t-59.5 -67q-9 -20 -19 -75t-10 -93q0 -17 6 -23z" />
<glyph unicode="&#x11a;" horiz-adv-x="716" d="M252 1882q9 0 27.5 -7t29.5 -15q6 -4 15 -15t21.5 -27.5t16.5 -21.5q41 -53 48 -53q4 0 11.5 6t18.5 17t15 14l71 63q9 9 33.5 22t36.5 13q7 0 22.5 -9t24.5 -18q12 -12 12 -32t-3 -26t-17 -15q-9 -6 -28 -23.5t-44 -40.5t-37 -33q-2 -2 -10 -9.5t-12 -11t-13 -11.5 t-14.5 -12.5t-14 -11t-15 -10.5t-13.5 -8t-13 -6t-11 -2q-42 0 -101 68q-12 14 -24 30.5t-22.5 32.5t-12.5 19q-4 4 -11.5 9.5t-17.5 11.5t-14 8q-19 19 -19 34q0 7 3 15t10 20.5t8 14.5q10 20 43 20zM426 1462q18 0 65.5 -3t65.5 -3q46 0 74 -8q6 -1 15 -19.5t9 -29.5 q0 -13 -5 -39.5t-11 -34.5q-11 -14 -78 -14q-17 0 -65.5 4t-73.5 4q-2 0 -32.5 -2t-57.5 -2q-70 0 -72 -2q-4 -4 -4 -21q0 -16 4 -71.5t4 -79.5q0 -23 -3 -72t-3 -74q0 -21 3 -64t3 -65q0 -10 39 -10q4 0 46.5 6t56.5 6q9 0 40 -3.5t56 -4.5q22 -1 48 0.5t43.5 3t22.5 0.5 q33 -5 33 -92q0 -20 -10 -35q-3 -4 -64 -14q-16 -4 -86 -4q-24 0 -49 3t-30 3q-8 0 -58 -5t-76 -5q-12 0 -20 -17q-8 -16 -8 -77q0 -16 3 -93.5t3 -121.5q0 -22 -8 -87.5t-8 -91.5q0 -32 5.5 -54.5t14.5 -22.5q14 0 48 3t40 3q22 0 91.5 -6.5t74.5 -6.5q13 0 48 7.5t46 7.5 q10 0 35 -37q14 -20 14 -80q0 -17 -68 -31t-106 -14q-28 0 -79.5 7t-59.5 7q-20 0 -99 -8t-98 -8q-21 0 -36 127q-7 68 -7 121q0 39 4.5 99t4.5 62q0 25 -3.5 76t-3.5 84q0 127 13 201q6 35 6 67q0 29 -5 88t-5 89q0 23 2 70t2 67q0 23 -2 70.5t-2 72.5q0 42 10 94t22 56 q7 2 54 7t63 5q10 0 75 6t89 6z" />
<glyph unicode="&#x11b;" horiz-adv-x="737" d="M199 1534q9 0 27.5 -7.5t29.5 -15.5q6 -4 53 -63q41 -53 47 -53q4 0 11.5 6t18.5 17t15 14l72 63q9 9 33.5 22t36.5 13q7 0 22.5 -9t24.5 -18q12 -12 12 -33q0 -20 -3 -25.5t-17 -14.5q-9 -6 -28 -23.5t-44 -40.5t-37 -33q-89 -82 -117 -82q-41 0 -100 68 q-12 14 -24 30.5t-22.5 32.5t-12.5 19q-4 4 -11.5 9.5t-17.5 11.5t-14 8q-19 19 -19 34q0 7 3 15t9.5 19.5t8.5 14.5q4 9 17.5 15t25.5 6zM381 1135q122 0 205 -95q51 -60 70.5 -119.5t19.5 -166.5v-74q0 -23 -9 -74.5t-20 -64.5q-20 -25 -115 -25q-14 0 -139 11.5 t-139 11.5q-35 0 -35 -15q0 -65 2 -92q1 -4 5.5 -36.5t8.5 -61.5t10 -60.5t11 -42.5q11 -31 54 -69.5t85 -38.5q39 0 54.5 10t42.5 45q14 19 18.5 39t4 36t1.5 21q7 19 49 19q28 0 64 -8q19 -4 24.5 -22t5.5 -58q0 -16 -13.5 -49t-37.5 -62q-35 -43 -49.5 -58t-40 -32 t-53.5 -20.5t-76 -3.5q-41 0 -84 12q-50 20 -96 62t-70 83q-10 17 -16.5 38t-9 33.5t-8 45t-7.5 45.5q-37 177 -37 348q0 55 17.5 164t32.5 147q30 67 96 117q76 60 174 60zM377 989q-37 0 -77.5 -29t-59.5 -67q-9 -20 -19 -75t-10 -93q0 -17 6 -23q2 -2 9 -3t21.5 -3 t26.5 -4q143 -26 177 -26q14 0 40.5 5t32.5 9q11 8 11 53q0 92 -17 144q-9 32 -22.5 50.5t-40.5 35.5q-44 26 -78 26z" />
<glyph unicode="&#x11c;" horiz-adv-x="913" d="M516 1915h29q28 0 49 -49q5 -23 33 -68q3 -5 14 -25.5t18 -29.5q52 -69 52 -109q0 -11 -32.5 -32t-43.5 -21q-14 0 -29.5 11t-19.5 24q-8 19 -36 64.5t-32 45.5q-13 0 -80 -108q-17 -29 -53 -29q-13 0 -43.5 31.5t-30.5 42.5q0 3 5 7.5t13.5 12.5t14.5 15q10 13 23 32 t24.5 36.5t14.5 21.5l69 90q26 37 41 37zM451 1479q46 0 88 -11q7 -2 39 -4t40 -4q48 -12 82 -47.5t72 -109.5q11 -22 24 -77t13 -65q0 -15 -29 -31q-25 -14 -73 -14q-17 0 -25 13t-29 71q-9 26 -15 41.5t-13 27.5t-9.5 16t-13.5 16t-16 18q-5 5 -13 8t-23.5 5t-19.5 3 q-57 11 -90 11q-17 0 -33 -8.5t-26.5 -17.5t-24.5 -30t-19 -29t-18 -32q-1 -2 -12.5 -23.5t-13.5 -26t-11.5 -23t-12 -25.5t-9 -23t-8.5 -26.5t-4.5 -24.5t-3.5 -27q-5 -82 -12 -263.5t-7 -248.5q0 -36 10 -98.5t25 -91.5q42 -86 62 -123q29 -50 54.5 -65t90.5 -15 q126 0 164 74q36 71 45 207q4 86 4 120q0 72 -6 78q-9 3 -22 2.5t-40.5 -2.5t-38.5 -2q-21 0 -62 10.5t-48 20.5q-10 17 -10 74q0 24 5.5 34.5t28.5 10.5q20 0 71 -5.5t69 -5.5q19 0 50.5 5.5t39.5 5.5q43 0 69 -17q22 -15 31.5 -70.5t9.5 -107.5q0 -82 -10 -160 q-1 -10 -3.5 -38t-3.5 -38.5t-4 -34.5t-5.5 -36t-6.5 -32t-9 -33t-12 -28t-15 -28q-39 -61 -116.5 -104t-190.5 -43q-181 0 -242 137q-6 15 -35.5 63.5t-40.5 73.5q-18 40 -34.5 125t-16.5 137q0 57 1 151.5t1 102.5q0 43 3 90t8 103.5t7 89.5q9 130 146 321q36 49 90.5 76 t112.5 27z" />
<glyph unicode="&#x11d;" horiz-adv-x="804" d="M418 1567h28q29 0 50 -49q6 -25 32 -68q4 -7 10.5 -18.5t12 -20.5t10.5 -16q51 -67 51 -109q0 -11 -32 -32t-43 -21q-14 0 -30 11t-20 24q-8 19 -35.5 64.5t-31.5 45.5q-13 0 -80 -108q-17 -29 -53 -29q-13 0 -43.5 31.5t-30.5 42.5q0 3 5 7.5t13.5 12.5t14.5 15 q14 17 37 53t24 37l70 90q26 37 41 37zM592 1153q20 0 54 -15t38 -28q5 -14 14 -172.5t9 -239.5q0 -8 -11 -143q0 -25 2 -81t2 -89q0 -100 -10 -315q-4 -93 -32 -210t-64 -147q-109 -92 -254 -92q-34 0 -69 10.5t-54.5 23.5t-19.5 21q0 29 8 43q2 3 8.5 27t15.5 29 q12 4 29 4q5 0 32.5 -5t33.5 -5q47 0 92.5 12t66.5 33q18 18 38 79.5t20 100.5l6 65q-13 -7 -47 -22q-84 -41 -158 -41q-72 0 -117 35q-77 61 -116 166q-18 49 -29.5 106t-15 87.5t-3.5 41.5q0 8 6 62t7 77q0 62 1.5 103.5t8.5 102.5t23.5 113t42.5 93q29 44 108 84 q27 17 65.5 26t59.5 9q74 0 160 -39q4 4 4 39q0 39 2 43q8 8 43 8zM383 956q-26 0 -63.5 -21t-55.5 -48q-45 -120 -45 -314q0 -11 -6 -66t-6 -67q0 -24 15 -113.5t34 -119.5q34 -57 106 -57q40 0 107 39.5t78 56.5q6 12 11 87t5 136q0 16 -4 49t-4 53q3 177 6 217 q0 90 -8 101q-14 18 -47 33q-85 34 -123 34z" />
<glyph unicode="&#x11e;" horiz-adv-x="913" d="M377 1884q24 0 37.5 -10t15.5 -21q15 -90 23 -118q3 -9 22.5 -19t34.5 -10t25.5 4t15.5 8t16 15q11 14 21 69q1 5 2 11.5t1.5 10t1 8.5t1 7.5t1.5 5.5t1.5 5t2 4t2.5 3.5t3 2.5l4 2q4 2 14 7.5t18 9t15 3.5q21 0 31 -10q21 -21 21 -43q0 -29 -7 -71t-14 -54 q-2 -3 -10 -15.5t-10.5 -16t-10.5 -14.5t-12.5 -15.5t-14 -13t-17.5 -12.5t-20 -9.5t-24 -8t-28 -4.5t-33 -2q-24 0 -66.5 13.5t-56.5 27.5q-27 28 -45.5 83.5t-18.5 101.5q0 45 5 55t53 10zM451 1479q46 0 88 -11q7 -2 39 -4t40 -4q48 -12 82 -47.5t72 -109.5 q11 -22 24 -77t13 -65q0 -15 -29 -31q-25 -14 -73 -14q-17 0 -25 13t-29 71q-9 26 -15 41.5t-13 27.5t-9.5 16t-13.5 16t-16 18q-5 5 -13 8t-23.5 5t-19.5 3q-57 11 -90 11q-17 0 -33 -8.5t-26.5 -17.5t-24.5 -30t-19 -29t-18 -32q-1 -2 -12.5 -23.5t-13.5 -26t-11.5 -23 t-12 -25.5t-9 -23t-8.5 -26.5t-4.5 -24.5t-3.5 -27q-5 -82 -12 -263.5t-7 -248.5q0 -36 10 -98.5t25 -91.5q42 -86 62 -123q29 -50 54.5 -65t90.5 -15q126 0 164 74q36 71 45 207q4 86 4 120q0 72 -6 78q-9 3 -22 2.5t-40.5 -2.5t-38.5 -2q-21 0 -62 10.5t-48 20.5 q-10 17 -10 74q0 24 5.5 34.5t28.5 10.5q20 0 71 -5.5t69 -5.5q19 0 50.5 5.5t39.5 5.5q43 0 69 -17q22 -15 31.5 -70.5t9.5 -107.5q0 -82 -10 -160q-1 -10 -3.5 -38t-3.5 -38.5t-4 -34.5t-5.5 -36t-6.5 -32t-9 -33t-12 -28t-15 -28q-39 -61 -116.5 -104t-190.5 -43 q-181 0 -242 137q-6 15 -35.5 63.5t-40.5 73.5q-18 40 -34.5 125t-16.5 137q0 57 1 151.5t1 102.5q0 43 3 90t8 103.5t7 89.5q9 130 146 321q36 49 90.5 76t112.5 27z" />
<glyph unicode="&#x11f;" horiz-adv-x="804" d="M279 1536q24 0 37.5 -10t15.5 -21q17 -101 22 -119q3 -9 23 -18.5t35 -9.5t25.5 3.5t16 8t15.5 14.5q10 12 20 70q7 47 14 54q3 3 7 5q5 2 14 7.5t17.5 9.5t15.5 4q21 0 31 -10q20 -20 20 -43q0 -29 -6.5 -71.5t-13.5 -53.5q-2 -3 -10 -15.5t-10.5 -16t-10.5 -14.5 t-12.5 -15.5t-14 -13t-17.5 -12.5t-20 -9.5t-24 -8t-28 -4.5t-33 -2q-24 0 -66.5 13.5t-56.5 27.5q-27 28 -45.5 83t-18.5 101q0 48 4 56q5 10 54 10zM592 1153q20 0 54 -15t38 -28q5 -14 14 -172.5t9 -239.5q0 -8 -11 -143q0 -25 2 -81t2 -89q0 -100 -10 -315 q-4 -93 -32 -210t-64 -147q-109 -92 -254 -92q-34 0 -69 10.5t-54.5 23.5t-19.5 21q0 29 8 43q2 3 8.5 27t15.5 29q12 4 29 4q5 0 32.5 -5t33.5 -5q47 0 92.5 12t66.5 33q18 18 38 79.5t20 100.5l6 65q-13 -7 -47 -22q-84 -41 -158 -41q-72 0 -117 35q-77 61 -116 166 q-18 49 -29.5 106t-15 87.5t-3.5 41.5q0 8 6 62t7 77q0 62 1.5 103.5t8.5 102.5t23.5 113t42.5 93q29 44 108 84q27 17 65.5 26t59.5 9q74 0 160 -39q4 4 4 39q0 39 2 43q8 8 43 8zM383 956q-26 0 -63.5 -21t-55.5 -48q-45 -120 -45 -314q0 -11 -6 -66t-6 -67 q0 -24 15 -113.5t34 -119.5q34 -57 106 -57q40 0 107 39.5t78 56.5q6 12 11 87t5 136q0 16 -4 49t-4 53q3 177 6 217q0 90 -8 101q-14 18 -47 33q-85 34 -123 34z" />
<glyph unicode="&#x120;" horiz-adv-x="913" d="M502 1821q34 0 55 -16.5t21 -47.5q0 -99 -19 -112q-32 -21 -67 -21q-29 0 -53.5 17.5t-24.5 48.5q0 4 -1 16t-1 18q0 50 14 72q17 25 76 25zM451 1479q46 0 88 -11q7 -2 39 -4t40 -4q48 -12 82 -47.5t72 -109.5q11 -22 24 -77t13 -65q0 -15 -29 -31q-25 -14 -73 -14 q-17 0 -25 13t-29 71q-9 26 -15 41.5t-13 27.5t-9.5 16t-13.5 16t-16 18q-5 5 -13 8t-23.5 5t-19.5 3q-57 11 -90 11q-17 0 -33 -8.5t-26.5 -17.5t-24.5 -30t-19 -29t-18 -32q-1 -2 -12.5 -23.5t-13.5 -26t-11.5 -23t-12 -25.5t-9 -23t-8.5 -26.5t-4.5 -24.5t-3.5 -27 q-5 -82 -12 -263.5t-7 -248.5q0 -36 10 -98.5t25 -91.5q42 -86 62 -123q29 -50 54.5 -65t90.5 -15q126 0 164 74q36 71 45 207q4 86 4 120q0 72 -6 78q-9 3 -22 2.5t-40.5 -2.5t-38.5 -2q-21 0 -62 10.5t-48 20.5q-10 17 -10 74q0 24 5.5 34.5t28.5 10.5q20 0 71 -5.5 t69 -5.5q19 0 50.5 5.5t39.5 5.5q43 0 69 -17q22 -15 31.5 -70.5t9.5 -107.5q0 -82 -10 -160q-1 -10 -3.5 -38t-3.5 -38.5t-4 -34.5t-5.5 -36t-6.5 -32t-9 -33t-12 -28t-15 -28q-39 -61 -116.5 -104t-190.5 -43q-181 0 -242 137q-6 15 -35.5 63.5t-40.5 73.5 q-18 40 -34.5 125t-16.5 137q0 57 1 151.5t1 102.5q0 43 3 90t8 103.5t7 89.5q9 130 146 321q36 49 90.5 76t112.5 27z" />
<glyph unicode="&#x121;" horiz-adv-x="804" d="M403 1473q34 0 55 -16.5t21 -47.5q0 -101 -18 -113q-30 -20 -68 -20q-29 0 -53.5 17t-24.5 48q0 3 -1 16t-1 19q0 48 15 72q17 25 75 25zM592 1153q20 0 54 -15t38 -28q5 -14 14 -172.5t9 -239.5q0 -8 -11 -143q0 -25 2 -81t2 -89q0 -100 -10 -315q-4 -93 -32 -210 t-64 -147q-109 -92 -254 -92q-34 0 -69 10.5t-54.5 23.5t-19.5 21q0 29 8 43q2 3 8.5 27t15.5 29q12 4 29 4q5 0 32.5 -5t33.5 -5q47 0 92.5 12t66.5 33q18 18 38 79.5t20 100.5l6 65q-13 -7 -47 -22q-84 -41 -158 -41q-72 0 -117 35q-77 61 -116 166q-18 49 -29.5 106 t-15 87.5t-3.5 41.5q0 8 6 62t7 77q0 62 1.5 103.5t8.5 102.5t23.5 113t42.5 93q29 44 108 84q27 17 65.5 26t59.5 9q74 0 160 -39q4 4 4 39q0 39 2 43q8 8 43 8zM383 956q-26 0 -63.5 -21t-55.5 -48q-45 -120 -45 -314q0 -11 -6 -66t-6 -67q0 -24 15 -113.5t34 -119.5 q34 -57 106 -57q40 0 107 39.5t78 56.5q6 12 11 87t5 136q0 16 -4 49t-4 53q3 177 6 217q0 90 -8 101q-14 18 -47 33q-85 34 -123 34z" />
<glyph unicode="&#x122;" horiz-adv-x="913" d="M451 1479q46 0 88 -11q7 -2 39 -4t40 -4q48 -12 82 -47.5t72 -109.5q11 -22 24 -77t13 -65q0 -15 -29 -31q-25 -14 -73 -14q-17 0 -25 13t-29 71q-9 26 -15 41.5t-13 27.5t-9.5 16t-13.5 16t-16 18q-5 5 -13 8t-23.5 5t-19.5 3q-57 11 -90 11q-17 0 -33 -8.5t-26.5 -17.5 t-24.5 -30t-19 -29t-18 -32q-1 -2 -12.5 -23.5t-13.5 -26t-11.5 -23t-12 -25.5t-9 -23t-8.5 -26.5t-4.5 -24.5t-3.5 -27q-5 -82 -12 -263.5t-7 -248.5q0 -36 10 -98.5t25 -91.5q42 -86 62 -123q29 -50 54.5 -65t90.5 -15q126 0 164 74q36 71 45 207q4 86 4 120q0 72 -6 78 q-9 3 -22 2.5t-40.5 -2.5t-38.5 -2q-21 0 -62 10.5t-48 20.5q-10 17 -10 74q0 24 5.5 34.5t28.5 10.5q20 0 71 -5.5t69 -5.5q19 0 50.5 5.5t39.5 5.5q43 0 69 -17q22 -15 31.5 -70.5t9.5 -107.5q0 -82 -10 -160q-1 -10 -3.5 -38t-3.5 -38.5t-4 -34.5t-5.5 -36t-6.5 -32 t-9 -33t-12 -28t-15 -28q-39 -61 -116.5 -104t-190.5 -43q-181 0 -242 137q-6 15 -35.5 63.5t-40.5 73.5q-18 40 -34.5 125t-16.5 137q0 57 1 151.5t1 102.5q0 43 3 90t8 103.5t7 89.5q9 130 146 321q36 49 90.5 76t112.5 27zM475 -127q39 0 47 -16q8 -15 24.5 -78.5 t16.5 -100.5q0 -28 -8.5 -67t-19.5 -55q-13 -17 -21.5 -26.5t-23 -18.5t-29.5 -9q-14 0 -43 23q-1 1 -6 4.5t-6.5 5.5t-5 5.5t-4.5 7t-1 8.5q0 9 6.5 25t16.5 26q26 26 26 55q0 14 -3.5 28.5t-8.5 29t-6 18.5q-1 6 -13 39t-12 39q0 28 13 41q21 16 61 16z" />
</font>
</defs>
</svg>
